<?xml version="1.0" encoding="utf-8"?>
<!-- Generator: Adobe Illustrator 24.1.2, SVG Export Plug-In . SVG Version: 6.00 Build 0)  -->
<svg version="1.1" id="Layer_1" xmlns:xodm="http://www.corel.com/coreldraw/odm/2003"
	 xmlns="http://www.w3.org/2000/svg" xmlns:xlink="http://www.w3.org/1999/xlink" x="0px" y="0px" viewBox="0 0 192 192"
	 style="enable-background:new 0 0 192 192;" xml:space="preserve">
<style type="text/css">
	.st0{fill:#5DC180;}
	.st1{opacity:0.3;fill:#AED1B4;}
	.st2{fill:#BDD3EF;}
	.st3{fill:#283D6B;}
	.st4{fill:#FFFFFF;}
	.st5{fill:#EBF7FA;}
	.st6{fill:#ACB6CA;}
	.st7{fill:#D5DAE4;}
	.st8{fill:#2F487A;}
	.st9{fill:#93B9E9;}
</style>
<g>
	<g>
		<g>
			<path class="st0" d="M68.6,81.5c-2.2,3.7-4.8,6.6-4,11c0.6,3.2,1.6,4.7,0.5,8.3c-0.9,2.8-2.7,6.1-5.2,8.4H49.1
				c-0.8-1.7-0.5-4-1.6-6c-2.2-4-6.9-6.1-9-10.6c-0.8-1.7-1.3-3.9-1.3-5.9c0.1-3.1,2.2-4.1,2.9-6.3c1-3.3-3.8-6-3-10.7
				c0.7-3.9,1.9-4.3,4.6-6.7c1-0.9,1.4-2.3,1.3-3.6c-0.4-4.4-2.2-9-1.1-13.4c1.1-4.5,6.6-6.5,10.9-5.2c6.2,1.9,5,6.6,6,11.6
				c1.4,7.1,10.9,8.1,12.9,14.8C73.2,72.1,71.1,77.3,68.6,81.5z"/>
		</g>
		<g>
			<path class="st0" d="M58.5,119.3c0,0,0,0.1,0,0.1c-1.4,4.6-1.6,9.3-3.8,13.8c-0.7,1.5-1.7,4-3,5.4H35.4
				c-3.3-2.8-5.7-6.5-6.7-10.6c-0.8-3.4-0.9-7.1-2.6-10.2c-2.7-4.8-8.5-6.6-13.6-8.6c-5.1-2-10.6-5.5-10.9-11
				c-0.3-5.8,5.7-10.8,4.9-16.5c-0.5-3-2.7-5.5-3.7-8.4C1.3,69.2,3,64.3,6.6,61.8c3.6-2.5,8.9-2.2,12.3,0.7
				c4.6,3.9,5.1,11.3,10,14.9c4.6,3.4,12,2.4,15.5,7c4.3,5.5-0.3,15.1,4.9,19.7c2,1.8,4.8,2.2,6.9,3.9
				C59.4,110.7,59.6,115.5,58.5,119.3z"/>
			<path class="st1" d="M42.6,138.6h-1.2c-4-20.4-11.5-40.1-22-58.1c-0.4-0.7,0.7-1.4,1.1-0.7C31.2,98.1,38.7,118,42.6,138.6z"/>
		</g>
		<path class="st2" d="M66.7,148.6H35c-3.5,0-6.6-2.3-7.6-5.6l-4.7-16.1c-0.4-1.2,0.6-2.5,1.9-2.5h52.5c1.3,0,2.2,1.3,1.9,2.5
			L74.2,143C73.2,146.3,70.2,148.6,66.7,148.6z"/>
	</g>
	<g>
		<path class="st0" d="M122.2,101.3c-1.9-4.1-2.5-9.4,0.4-12.8c1.9-2.2,5-3.2,6.8-5.6c4.8-6.1-2.1-15.7,1.5-22.5
			c3-5.6,11.2-6,15.6-10.6c4.6-4.9,3.7-13.1,8-18.3c3.1-3.8,8.8-5.1,13.3-3.1c4.5,2,7.3,7.1,6.6,11.9c-0.5,3.4-2.5,6.5-2.4,9.9
			c0.2,6.5,7.7,10.7,8.5,17.1c0.8,6-4.6,11-9.8,14.1c-5.2,3.2-11.2,6.3-13.2,12c-1.3,3.7-0.6,7.7-0.8,11.6
			c-0.6,9.9-8.9,19.2-18.5,21.5c-6.8,1.6-7.9-1.1-8.6-7.2C128.7,112.2,125.2,107.9,122.2,101.3z"/>
	</g>
	<g>
		<path class="st0" d="M156.2,128.7c1.6-0.4,3.6-1.4,5-2.6c2.1-1.9,1.6-4,2.8-5.8c1.8-2.6,6.6-0.8,9.4-4.2c2.2-2.6,3.2-6,5.1-8.8
			c2.5-3.8,6.4-6.5,8.6-10.5c2.2-3.9,1.5-10.2-2.8-11.4c-4.4-1.2-7.8,3.2-11.3,5.1c-5.9,3.2-12.2-3-18.3-0.4
			c-4.4,1.9-6.9,6.4-8.4,10.7c-1.4,3.7-1.9,7.3-5.5,9.4c-2.6,1.5-4.3,1.7-6.2,4.6c-2.7,4.2-4.9,11.7-0.2,15.3
			c3.8,2.9,5.6-0.7,8.9-1.4C147.5,127.8,151.8,129.9,156.2,128.7z"/>
		<path class="st1" d="M133.4,127.6c9.7-11.7,22-21.3,35.6-28.1c0.7-0.3,1.2,0.7,0.6,1c-13.6,6.9-25.4,16.5-35.4,28
			C133.7,129,132.9,128.2,133.4,127.6z"/>
	</g>
	<g>
		<g>
			<path class="st3" d="M166.2,147.5H26.7V50.5c0-2.4,2-4.4,4.4-4.4h130.6c2.4,0,4.4,2,4.4,4.4V147.5z"/>
			<path class="st3" d="M162.9,152.9H30c-6.4,0-11.6-2.3-11.6-5.1c0-0.5,0.9-0.9,2-0.9h152c1.1,0,2,0.4,2,0.9
				C174.5,150.6,169.3,152.9,162.9,152.9z"/>
			<rect x="28.1" y="51" class="st4" width="136.8" height="94.4"/>
			<path class="st4" d="M97.2,49.9h-3.3c-0.1,0-0.2-0.5-0.2-1.2s0.1-1.2,0.2-1.2h3.3c0.1,0,0.2,0.5,0.2,1.2S97.3,49.9,97.2,49.9z"/>
		</g>
	</g>
</g>
<g>
	<g>
		<path class="st5" d="M142.2,127.7H49.2c-4.5,0-8.1-3.6-8.1-8.1V72.1c0-4.5,3.6-8.1,8.1-8.1h92.9c4.5,0,8.1,3.6,8.1,8.1v47.5
			C150.2,124.1,146.6,127.7,142.2,127.7z"/>
		<g>
			<g>
				<ellipse class="st6" cx="63.7" cy="89.5" rx="10.5" ry="10.3"/>
				<g>
					<path class="st4" d="M67.8,86.6c0,2.1-1.7,3.8-3.9,3.8c-2.1,0-3.9-1.7-3.9-3.8c0-2.1,1.7-3.8,3.9-3.8
						C66,82.7,67.8,84.4,67.8,86.6z"/>
					<path class="st4" d="M57.4,97.7c0-3.5,2.9-6.3,6.4-6.3c3.5,0,6.4,2.8,6.4,6.3c0,0-2.9,2.4-6.5,2.5
						C60.1,100.2,57.4,97.7,57.4,97.7z"/>
				</g>
			</g>
			<g>
				<g>
					<path class="st7" d="M135.5,87.5H82.1c-1.5,0-2.7-1.2-2.7-2.7v-2.6c0-1.5,1.2-2.7,2.7-2.7h53.4c1.5,0,2.7,1.2,2.7,2.7v2.6
						C138.2,86.3,137,87.5,135.5,87.5z"/>
				</g>
				<g>
					<path class="st7" d="M135.5,98.9H82.1c-1.5,0-2.7-1.2-2.7-2.7v-2.6c0-1.5,1.2-2.7,2.7-2.7h53.4c1.5,0,2.7,1.2,2.7,2.7v2.6
						C138.2,97.7,137,98.9,135.5,98.9z"/>
				</g>
			</g>
		</g>
		<g>
			<path class="st6" d="M77.7,117.7h-17c-2.2,0-4-1.8-4-4v0c0-2.2,1.8-4,4-4h17c2.2,0,4,1.8,4,4v0C81.7,115.9,79.9,117.7,77.7,117.7
				z"/>
			<path class="st8" d="M130.8,117.7h-17c-2.2,0-4-1.8-4-4v0c0-2.2,1.8-4,4-4h17c2.2,0,4,1.8,4,4v0
				C134.8,115.9,133,117.7,130.8,117.7z"/>
		</g>
	</g>
</g>
<path class="st8" d="M171.2,101.4h-25.7c-1.9,0-3.5,1.5-3.5,3.4v41.5v9.5c0,1.9,1.6,3.4,3.5,3.4h25.7c1.9,0,3.5-1.5,3.5-3.4v-41.5
	v-9.4C174.6,102.9,173.1,101.4,171.2,101.4z"/>
<rect x="143.7" y="106" class="st4" width="29.2" height="48.6"/>
<path class="st4" d="M164.4,104.5h-12c-0.1,0-0.2-0.1-0.2-0.2v-0.2c0-0.1,0.1-0.2,0.2-0.2h12.1c0.1,0,0.2,0.1,0.2,0.2v0.2
	C164.6,104.4,164.5,104.5,164.4,104.5z"/>
<path class="st9" d="M166.6,131.2h-25.4c-0.9,0-1.6,0.7-1.6,1.5v10.2c0,0.8,0.7,1.5,1.6,1.5h20c0.8,1.1,2.3,3.1,2.4,3.1
	s-0.1-1.9-0.3-3.1h3.3c0.9,0,1.6-0.7,1.6-1.5v-10.2C168.2,131.9,167.4,131.2,166.6,131.2z"/>
<rect x="143.7" y="151.7" class="st2" width="29.2" height="2.9"/>
</svg>
