<?xml version="1.0" encoding="utf-8"?>
<!-- Generator: Adobe Illustrator 24.1.2, SVG Export Plug-In . SVG Version: 6.00 Build 0)  -->
<svg version="1.1" id="Layer_1" xmlns="http://www.w3.org/2000/svg" xmlns:xlink="http://www.w3.org/1999/xlink" x="0px" y="0px"
	 viewBox="0 0 500 500" style="enable-background:new 0 0 500 500;" xml:space="preserve">
<style type="text/css">
	.st0{fill:#EE2D24;}
	.st1{fill-rule:evenodd;clip-rule:evenodd;fill:#164C82;}
	.st2{fill-rule:evenodd;clip-rule:evenodd;fill:#00A0E2;}
	.st3{display:none;fill:none;}
	.st4{fill-rule:evenodd;clip-rule:evenodd;fill:#171796;}
	.st5{display:none;fill-rule:evenodd;clip-rule:evenodd;fill:#171796;}
	.st6{enable-background:new    ;}
	.st7{fill:#171796;}
</style>
<g>
	<g>
		<path class="st0" d="M199.3,364.7v-25.2h17v3h-13.6v7.8h11.8v3h-11.8v11.4H199.3z"/>
		<path class="st0" d="M219,355.6c0-3.4,0.9-5.9,2.8-7.5c1.6-1.3,3.5-2,5.7-2c2.5,0,4.6,0.8,6.1,2.5c1.6,1.6,2.4,3.9,2.4,6.8
			c0,2.3-0.4,4.2-1.1,5.5c-0.7,1.3-1.7,2.4-3.1,3.1s-2.8,1.1-4.4,1.1c-2.6,0-4.6-0.8-6.2-2.5C219.8,361,219,358.6,219,355.6z
			 M222.2,355.6c0,2.3,0.5,4.1,1.5,5.2c1,1.2,2.3,1.7,3.8,1.7c1.5,0,2.8-0.6,3.8-1.8c1-1.2,1.5-2.9,1.5-5.3c0-2.3-0.5-4-1.5-5.1
			c-1-1.2-2.3-1.7-3.8-1.7c-1.5,0-2.8,0.6-3.8,1.7C222.7,351.5,222.2,353.2,222.2,355.6z"/>
		<path class="st0" d="M239.7,364.7v-18.2h2.8v2.8c0.7-1.3,1.4-2.1,2-2.6s1.3-0.6,2-0.6c1,0,2.1,0.3,3.2,1l-1.1,2.9
			c-0.8-0.4-1.5-0.7-2.3-0.7c-0.7,0-1.3,0.2-1.8,0.6s-0.9,1-1.1,1.7c-0.3,1.1-0.5,2.3-0.5,3.6v9.5H239.7z"/>
		<path class="st0" d="M254.8,364.7l-5.6-18.2h3.2l2.9,10.5l1.1,3.9c0-0.2,0.4-1.4,0.9-3.8l2.9-10.7h3.2l2.7,10.6l0.9,3.5l1-3.5
			l3.1-10.5h3l-5.7,18.2h-3.2l-2.9-10.9l-0.7-3.1l-3.7,14H254.8z"/>
		<path class="st0" d="M288.7,362.4c-1.1,1-2.2,1.7-3.3,2.1c-1.1,0.4-2.2,0.6-3.4,0.6c-2,0-3.5-0.5-4.6-1.5s-1.6-2.2-1.6-3.8
			c0-0.9,0.2-1.7,0.6-2.4c0.4-0.7,0.9-1.3,1.6-1.8c0.7-0.4,1.4-0.8,2.2-1c0.6-0.2,1.5-0.3,2.7-0.5c2.5-0.3,4.3-0.7,5.5-1.1
			c0-0.4,0-0.7,0-0.8c0-1.3-0.3-2.1-0.9-2.7c-0.8-0.7-2-1-3.5-1c-1.5,0-2.5,0.3-3.2,0.8c-0.7,0.5-1.2,1.4-1.5,2.7l-3-0.4
			c0.3-1.3,0.7-2.3,1.4-3.1s1.5-1.4,2.7-1.8c1.2-0.4,2.6-0.6,4.1-0.6c1.6,0,2.8,0.2,3.8,0.5c1,0.4,1.7,0.8,2.1,1.4
			c0.5,0.6,0.8,1.3,1,2.1c0.1,0.5,0.2,1.5,0.2,2.8v4.1c0,2.9,0.1,4.7,0.2,5.4c0.1,0.8,0.4,1.5,0.8,2.2h-3.2
			C289,364,288.8,363.3,288.7,362.4z M288.4,355.5c-1.1,0.5-2.8,0.8-5,1.2c-1.3,0.2-2.2,0.4-2.7,0.6c-0.5,0.2-0.9,0.6-1.2,1
			c-0.3,0.4-0.4,0.9-0.4,1.5c0,0.8,0.3,1.5,0.9,2.1s1.5,0.8,2.7,0.8c1.2,0,2.2-0.3,3.2-0.8c0.9-0.5,1.6-1.2,2-2.1
			c0.3-0.7,0.5-1.7,0.5-3.1V355.5z"/>
		<path class="st0" d="M296.3,364.7v-18.2h2.8v2.8c0.7-1.3,1.4-2.1,2-2.6s1.3-0.6,2-0.6c1,0,2.1,0.3,3.2,1l-1.1,2.9
			c-0.8-0.4-1.5-0.7-2.3-0.7c-0.7,0-1.3,0.2-1.8,0.6c-0.5,0.4-0.9,1-1.2,1.7c-0.3,1.1-0.5,2.3-0.5,3.6v9.5H296.3z"/>
		<path class="st0" d="M319.8,364.7v-2.3c-1.2,1.8-2.9,2.7-5.1,2.7c-1.5,0-2.8-0.4-4-1.2c-1.2-0.8-2.2-1.9-2.8-3.4
			c-0.7-1.4-1-3.1-1-5c0-1.8,0.3-3.5,0.9-4.9c0.6-1.5,1.5-2.6,2.7-3.4c1.2-0.8,2.6-1.2,4.1-1.2c1.1,0,2.1,0.2,2.9,0.7
			c0.9,0.5,1.6,1.1,2.1,1.8v-9h3.1v25.2H319.8z M310.1,355.6c0,2.3,0.5,4.1,1.5,5.2c1,1.2,2.1,1.7,3.5,1.7c1.3,0,2.5-0.6,3.4-1.7
			c0.9-1.1,1.4-2.8,1.4-5.1c0-2.5-0.5-4.3-1.4-5.5s-2.1-1.8-3.6-1.8c-1.4,0-2.5,0.6-3.4,1.7C310.5,351.4,310.1,353.2,310.1,355.6z"
			/>
		<path class="st0" d="M344.1,361.9l0.4,2.7c-0.9,0.2-1.6,0.3-2.3,0.3c-1.1,0-2-0.2-2.6-0.5c-0.6-0.4-1.1-0.8-1.3-1.4
			s-0.4-1.8-0.4-3.6v-10.5h-2.3v-2.4h2.3v-4.5l3.1-1.9v6.4h3.1v2.4H341v10.7c0,0.9,0.1,1.4,0.2,1.7c0.1,0.3,0.3,0.5,0.5,0.6
			s0.6,0.2,1.1,0.2C343.1,362,343.5,362,344.1,361.9z"/>
		<path class="st0" d="M347.1,364.7v-25.2h3.1v9c1.4-1.7,3.3-2.5,5.5-2.5c1.3,0,2.5,0.3,3.5,0.8c1,0.5,1.7,1.3,2.1,2.2
			c0.4,0.9,0.6,2.3,0.6,4.1v11.5h-3.1v-11.5c0-1.5-0.3-2.7-1-3.4c-0.7-0.7-1.6-1.1-2.8-1.1c-0.9,0-1.8,0.2-2.6,0.7
			c-0.8,0.5-1.4,1.1-1.7,1.9c-0.3,0.8-0.5,1.9-0.5,3.4v10H347.1z"/>
		<path class="st0" d="M366.7,343.1v-3.6h3.1v3.6H366.7z M366.7,364.7v-18.2h3.1v18.2H366.7z"/>
		<path class="st0" d="M374.4,364.7v-18.2h2.8v2.6c1.3-2,3.3-3,5.8-3c1.1,0,2.1,0.2,3,0.6s1.6,0.9,2.1,1.6c0.5,0.6,0.8,1.4,1,2.3
			c0.1,0.6,0.2,1.6,0.2,3v11.2h-3.1v-11.1c0-1.3-0.1-2.2-0.4-2.8s-0.7-1.1-1.3-1.5s-1.3-0.6-2.2-0.6c-1.3,0-2.5,0.4-3.4,1.3
			c-1,0.8-1.4,2.4-1.4,4.8v10H374.4z"/>
		<path class="st0" d="M394,364.7v-25.2h3.1v14.3l7.3-7.4h4l-7,6.8l7.7,11.5h-3.8l-6-9.3l-2.2,2.1v7.2H394z"/>
		<path class="st0" d="M411.6,343.1v-3.6h3.1v3.6H411.6z M411.6,364.7v-18.2h3.1v18.2H411.6z"/>
		<path class="st0" d="M419.4,364.7v-18.2h2.8v2.6c1.3-2,3.3-3,5.8-3c1.1,0,2.1,0.2,3,0.6s1.6,0.9,2.1,1.6c0.5,0.6,0.8,1.4,1,2.3
			c0.1,0.6,0.2,1.6,0.2,3v11.2h-3.1v-11.1c0-1.3-0.1-2.2-0.4-2.8s-0.7-1.1-1.3-1.5s-1.3-0.6-2.2-0.6c-1.3,0-2.5,0.4-3.4,1.3
			c-1,0.8-1.4,2.4-1.4,4.8v10H419.4z"/>
		<path class="st0" d="M438.3,366.2l3,0.4c0.1,0.9,0.5,1.6,1,2c0.8,0.6,1.8,0.9,3.1,0.9c1.4,0,2.5-0.3,3.3-0.9
			c0.8-0.6,1.3-1.4,1.6-2.4c0.2-0.6,0.2-1.9,0.2-4c-1.4,1.6-3,2.4-5,2.4c-2.5,0-4.4-0.9-5.8-2.7c-1.4-1.8-2.1-4-2.1-6.5
			c0-1.7,0.3-3.3,0.9-4.8c0.6-1.5,1.5-2.6,2.7-3.4s2.6-1.2,4.2-1.2c2.2,0,3.9,0.9,5.3,2.6v-2.2h2.8v15.8c0,2.8-0.3,4.8-0.9,6
			c-0.6,1.2-1.5,2.1-2.7,2.8c-1.3,0.7-2.8,1-4.6,1c-2.2,0-3.9-0.5-5.3-1.5C438.9,369.6,438.3,368.2,438.3,366.2z M440.9,355.2
			c0,2.4,0.5,4.1,1.4,5.2s2.1,1.6,3.6,1.6c1.4,0,2.6-0.5,3.6-1.6c1-1.1,1.4-2.8,1.4-5.1c0-2.2-0.5-3.9-1.5-5c-1-1.1-2.2-1.7-3.6-1.7
			c-1.4,0-2.5,0.6-3.5,1.7S440.9,353,440.9,355.2z"/>
		<path class="st0" d="M199.2,406.8v-25.2h18.2v3h-14.9v7.7h13.9v3h-13.9v8.6h15.4v3H199.2z"/>
		<path class="st0" d="M222.1,406.8v-18.2h2.8v2.6c1.3-2,3.3-3,5.8-3c1.1,0,2.1,0.2,3,0.6c0.9,0.4,1.6,0.9,2.1,1.6
			c0.5,0.6,0.8,1.4,1,2.3c0.1,0.6,0.2,1.6,0.2,3v11.2h-3.1v-11.1c0-1.3-0.1-2.2-0.4-2.8c-0.2-0.6-0.7-1.1-1.3-1.5
			c-0.6-0.4-1.3-0.6-2.2-0.6c-1.3,0-2.5,0.4-3.4,1.3c-1,0.8-1.4,2.4-1.4,4.8v10H222.1z"/>
		<path class="st0" d="M241.1,408.4l3,0.4c0.1,0.9,0.5,1.6,1,2c0.8,0.6,1.8,0.9,3.1,0.9c1.4,0,2.5-0.3,3.3-0.9
			c0.8-0.6,1.3-1.4,1.6-2.4c0.2-0.6,0.2-1.9,0.2-4c-1.3,1.6-3,2.4-5,2.4c-2.5,0-4.4-0.9-5.8-2.7c-1.4-1.8-2.1-4-2.1-6.5
			c0-1.7,0.3-3.3,0.9-4.8c0.6-1.5,1.5-2.6,2.7-3.4c1.2-0.8,2.6-1.2,4.2-1.2c2.2,0,3.9,0.9,5.3,2.6v-2.2h2.8v15.8
			c0,2.8-0.3,4.8-0.9,6c-0.6,1.2-1.5,2.1-2.7,2.8c-1.3,0.7-2.8,1-4.6,1c-2.2,0-3.9-0.5-5.3-1.5S241.1,410.3,241.1,408.4z
			 M243.7,397.4c0,2.4,0.5,4.1,1.4,5.2c0.9,1.1,2.1,1.6,3.6,1.6c1.4,0,2.6-0.5,3.6-1.6s1.4-2.8,1.4-5.1c0-2.2-0.5-3.9-1.5-5
			s-2.2-1.7-3.6-1.7c-1.4,0-2.5,0.6-3.5,1.7S243.7,395.2,243.7,397.4z"/>
		<path class="st0" d="M261.2,406.8v-25.2h3.1v25.2H261.2z"/>
		<path class="st0" d="M269,385.2v-3.6h3.1v3.6H269z M269,406.8v-18.2h3.1v18.2H269z"/>
		<path class="st0" d="M275.6,401.4l3.1-0.5c0.2,1.2,0.6,2.2,1.4,2.8c0.8,0.7,1.9,1,3.3,1c1.4,0,2.5-0.3,3.2-0.9s1-1.3,1-2
			c0-0.7-0.3-1.2-0.9-1.6c-0.4-0.3-1.5-0.6-3.2-1c-2.3-0.6-3.8-1.1-4.7-1.5s-1.5-1-2-1.7c-0.5-0.7-0.7-1.6-0.7-2.4
			c0-0.8,0.2-1.6,0.6-2.3c0.4-0.7,0.9-1.3,1.5-1.7c0.5-0.4,1.1-0.7,2-0.9c0.8-0.2,1.7-0.4,2.7-0.4c1.4,0,2.7,0.2,3.8,0.6
			c1.1,0.4,1.9,1,2.4,1.7s0.9,1.6,1.1,2.8l-3,0.4c-0.1-0.9-0.5-1.7-1.2-2.2c-0.7-0.5-1.6-0.8-2.8-0.8c-1.4,0-2.4,0.2-3,0.7
			s-0.9,1-0.9,1.6c0,0.4,0.1,0.8,0.4,1.1c0.3,0.3,0.6,0.6,1.2,0.8c0.3,0.1,1.2,0.4,2.7,0.8c2.2,0.6,3.7,1.1,4.6,1.4
			c0.9,0.4,1.5,0.9,2,1.6c0.5,0.7,0.7,1.6,0.7,2.6c0,1-0.3,2-0.9,2.9s-1.5,1.6-2.6,2.1c-1.1,0.5-2.4,0.7-3.8,0.7
			c-2.4,0-4.2-0.5-5.4-1.5S275.9,403.3,275.6,401.4z"/>
		<path class="st0" d="M294.4,406.8v-25.2h3.1v9c1.4-1.7,3.3-2.5,5.5-2.5c1.3,0,2.5,0.3,3.5,0.8c1,0.5,1.7,1.3,2.1,2.2
			s0.6,2.3,0.6,4.1v11.5h-3.1v-11.5c0-1.5-0.3-2.7-1-3.4c-0.7-0.7-1.6-1.1-2.8-1.1c-0.9,0-1.8,0.2-2.6,0.7c-0.8,0.5-1.4,1.1-1.7,1.9
			c-0.3,0.8-0.5,1.9-0.5,3.4v10H294.4z"/>
		<path class="st0" d="M330.5,404.1l0.4,2.7c-0.9,0.2-1.6,0.3-2.3,0.3c-1.1,0-2-0.2-2.6-0.5c-0.6-0.4-1.1-0.8-1.3-1.4
			c-0.3-0.6-0.4-1.8-0.4-3.6V391H322v-2.4h2.3v-4.5l3.1-1.9v6.4h3.1v2.4h-3.1v10.7c0,0.9,0.1,1.4,0.2,1.7c0.1,0.3,0.3,0.5,0.5,0.6
			s0.6,0.2,1.1,0.2C329.4,404.2,329.9,404.2,330.5,404.1z"/>
		<path class="st0" d="M345.9,401l3.2,0.4c-0.5,1.9-1.4,3.3-2.8,4.3s-3.1,1.5-5.2,1.5c-2.7,0-4.8-0.8-6.3-2.5s-2.3-3.9-2.3-6.9
			c0-3.1,0.8-5.4,2.4-7.1c1.6-1.7,3.6-2.5,6.1-2.5c2.4,0,4.4,0.8,6,2.5c1.5,1.7,2.3,4,2.3,7c0,0.2,0,0.5,0,0.8h-13.6
			c0.1,2,0.7,3.5,1.7,4.6c1,1.1,2.3,1.6,3.8,1.6c1.1,0,2.1-0.3,2.9-0.9C344.8,403.2,345.5,402.3,345.9,401z M335.8,396H346
			c-0.1-1.5-0.5-2.7-1.2-3.4c-1-1.2-2.3-1.8-3.8-1.8c-1.4,0-2.6,0.5-3.6,1.4S335.9,394.4,335.8,396z"/>
		<path class="st0" d="M351.8,401.4l3.1-0.5c0.2,1.2,0.6,2.2,1.4,2.8c0.8,0.7,1.9,1,3.3,1c1.4,0,2.5-0.3,3.2-0.9s1-1.3,1-2
			c0-0.7-0.3-1.2-0.9-1.6c-0.4-0.3-1.5-0.6-3.2-1c-2.3-0.6-3.8-1.1-4.7-1.5s-1.5-1-2-1.7c-0.5-0.7-0.7-1.6-0.7-2.4
			c0-0.8,0.2-1.6,0.6-2.3c0.4-0.7,0.9-1.3,1.5-1.7c0.5-0.4,1.1-0.7,2-0.9c0.8-0.2,1.7-0.4,2.7-0.4c1.4,0,2.7,0.2,3.8,0.6
			c1.1,0.4,1.9,1,2.4,1.7s0.9,1.6,1.1,2.8l-3,0.4c-0.1-0.9-0.5-1.7-1.2-2.2c-0.7-0.5-1.6-0.8-2.8-0.8c-1.4,0-2.4,0.2-3,0.7
			s-0.9,1-0.9,1.6c0,0.4,0.1,0.8,0.4,1.1c0.3,0.3,0.6,0.6,1.2,0.8c0.3,0.1,1.2,0.4,2.7,0.8c2.2,0.6,3.7,1.1,4.6,1.4
			c0.9,0.4,1.5,0.9,2,1.6c0.5,0.7,0.7,1.6,0.7,2.6c0,1-0.3,2-0.9,2.9s-1.5,1.6-2.6,2.1c-1.1,0.5-2.4,0.7-3.8,0.7
			c-2.4,0-4.2-0.5-5.4-1.5S352.1,403.3,351.8,401.4z"/>
		<path class="st0" d="M377.3,404.1l0.4,2.7c-0.9,0.2-1.6,0.3-2.3,0.3c-1.1,0-2-0.2-2.6-0.5c-0.6-0.4-1.1-0.8-1.3-1.4
			c-0.3-0.6-0.4-1.8-0.4-3.6V391h-2.3v-2.4h2.3v-4.5l3.1-1.9v6.4h3.1v2.4h-3.1v10.7c0,0.9,0.1,1.4,0.2,1.7c0.1,0.3,0.3,0.5,0.5,0.6
			s0.6,0.2,1.1,0.2C376.3,404.2,376.8,404.2,377.3,404.1z"/>
		<path class="st0" d="M380.4,385.2v-3.6h3.1v3.6H380.4z M380.4,406.8v-18.2h3.1v18.2H380.4z"/>
		<path class="st0" d="M388.2,406.8v-18.2h2.8v2.6c1.3-2,3.3-3,5.8-3c1.1,0,2.1,0.2,3,0.6c0.9,0.4,1.6,0.9,2.1,1.6
			c0.5,0.6,0.8,1.4,1,2.3c0.1,0.6,0.2,1.6,0.2,3v11.2h-3.1v-11.1c0-1.3-0.1-2.2-0.4-2.8c-0.2-0.6-0.7-1.1-1.3-1.5
			c-0.6-0.4-1.3-0.6-2.2-0.6c-1.3,0-2.5,0.4-3.4,1.3c-1,0.8-1.4,2.4-1.4,4.8v10H388.2z"/>
		<path class="st0" d="M407.1,408.4l3,0.4c0.1,0.9,0.5,1.6,1,2c0.8,0.6,1.8,0.9,3.1,0.9c1.4,0,2.5-0.3,3.3-0.9
			c0.8-0.6,1.3-1.4,1.6-2.4c0.2-0.6,0.2-1.9,0.2-4c-1.4,1.6-3,2.4-5,2.4c-2.5,0-4.4-0.9-5.8-2.7c-1.4-1.8-2.1-4-2.1-6.5
			c0-1.7,0.3-3.3,0.9-4.8c0.6-1.5,1.5-2.6,2.7-3.4s2.6-1.2,4.2-1.2c2.2,0,3.9,0.9,5.3,2.6v-2.2h2.8v15.8c0,2.8-0.3,4.8-0.9,6
			c-0.6,1.2-1.5,2.1-2.7,2.8c-1.3,0.7-2.8,1-4.6,1c-2.2,0-3.9-0.5-5.3-1.5C407.7,411.8,407.1,410.3,407.1,408.4z M409.7,397.4
			c0,2.4,0.5,4.1,1.4,5.2c0.9,1.1,2.1,1.6,3.6,1.6c1.4,0,2.6-0.5,3.6-1.6s1.4-2.8,1.4-5.1c0-2.2-0.5-3.9-1.5-5s-2.2-1.7-3.6-1.7
			c-1.4,0-2.5,0.6-3.5,1.7S409.7,395.2,409.7,397.4z"/>
	</g>
	<g>
		<path class="st0" d="M156.3,321.5h-27.6l-11-28.5H67.6l-10.4,28.5H30.4L79.2,196H106L156.3,321.5z M109.6,271.8l-17.3-46.6
			l-17,46.6H109.6z"/>
		<path class="st0" d="M168.9,230.6h22.4v13.4c2.9-4.6,6.8-8.3,11.8-11.1c5-2.9,10.5-4.3,16.5-4.3c10.6,0,19.5,4.1,26.9,12.4
			c7.4,8.3,11,19.8,11,34.6c0,15.2-3.7,27-11.1,35.4c-7.4,8.4-16.4,12.6-27,12.6c-5,0-9.6-1-13.7-3c-4.1-2-8.4-5.4-12.9-10.3v45.8
			h-24.1V230.6z M192.7,274.5c0,10.2,2,17.8,6.1,22.6c4.1,4.9,9,7.3,14.8,7.3c5.6,0,10.2-2.2,14-6.7c3.7-4.5,5.6-11.8,5.6-22
			c0-9.5-1.9-16.6-5.7-21.2c-3.8-4.6-8.6-6.9-14.2-6.9c-5.9,0-10.8,2.3-14.6,6.8C194.6,258.8,192.7,265.6,192.7,274.5z"/>
		<path class="st0" d="M318.4,230.6v19.2H302v36.6c0,7.4,0.2,11.7,0.5,13c0.3,1.2,1,2.2,2.1,3c1.1,0.8,2.5,1.2,4.1,1.2
			c2.2,0,5.5-0.8,9.7-2.3l2.1,18.7c-5.6,2.4-11.9,3.6-19,3.6c-4.3,0-8.2-0.7-11.7-2.2c-3.5-1.5-6-3.3-7.7-5.7s-2.8-5.4-3.4-9.4
			c-0.5-2.8-0.8-8.4-0.8-17v-39.6h-11v-19.2h11v-18.1l24.1-14v32.1H318.4z"/>
		<path class="st0" d="M335.1,218.2V196h24.1v22.3H335.1z M335.1,321.5v-90.9h24.1v90.9H335.1z"/>
		<path class="st0" d="M375.3,295.5l24.1-3.7c1,4.7,3.1,8.2,6.3,10.7c3.1,2.4,7.5,3.6,13.2,3.6c6.2,0,10.9-1.1,14-3.4
			c2.1-1.6,3.2-3.7,3.2-6.4c0-1.8-0.6-3.3-1.7-4.5c-1.2-1.1-3.9-2.2-8-3.2c-19.4-4.3-31.7-8.2-36.9-11.7
			c-7.2-4.9-10.8-11.7-10.8-20.5c0-7.9,3.1-14.5,9.3-19.9c6.2-5.4,15.9-8,28.9-8c12.4,0,21.7,2,27.7,6.1c6,4.1,10.2,10,12.5,18
			l-22.7,4.2c-1-3.5-2.8-6.3-5.5-8.1c-2.7-1.9-6.6-2.8-11.6-2.8c-6.3,0-10.9,0.9-13.6,2.7c-1.8,1.3-2.7,2.9-2.7,4.9
			c0,1.7,0.8,3.2,2.4,4.4c2.2,1.6,9.7,3.9,22.5,6.8c12.8,2.9,21.8,6.5,26.8,10.7c5,4.3,7.5,10.2,7.5,17.9c0,8.3-3.5,15.5-10.4,21.5
			c-7,6-17.3,9-30.9,9c-12.4,0-22.2-2.5-29.4-7.5C382.3,311,377.6,304.2,375.3,295.5z"/>
	</g>
</g>
<g>
	<path class="st1" d="M317.3,94.3V66.2h10.2c2.2,0,3.6,0.5,4.8,0.9c2.8,1.4,4,4,4,6.4c0,2.6-1.1,4.5-3.3,5.9
		c3.3,0.8,5.1,2.9,5.1,6.4c0,3.9-2.3,6.7-6.2,7.9c-1.4,0.5-2.9,0.6-5.3,0.6L317.3,94.3L317.3,94.3L317.3,94.3z M329.9,71
		c-0.8-0.3-1.6-0.5-2.6-0.5h-5.3v7.3h5c1.4,0,2.3-0.2,3.1-0.6c1.1-0.6,1.7-1.7,1.7-2.9C331.7,72.9,330.9,71.6,329.9,71z M331.3,82.6
		c-0.6-0.3-1.6-0.5-3.1-0.5h-6.2v7.8h5.7c1.9,0,2.8-0.3,3.6-0.6c1.4-0.6,2-1.9,2-3.4C333.3,84.3,332.7,83.3,331.3,82.6L331.3,82.6z
		 M366.2,94.3V66.2h4.8v28.1H366.2z M401.1,94.3V66.2h4.8v28.1H401.1z M421.3,66c3.1,0,6.2,0.8,7.9,1.6l-0.2,4.7
		c-2.5-1.2-4.8-2-7.8-2c-2.6,0-5,0.8-5,2.9c0,5.7,14.4,3.4,14.4,12.9c0,5.3-4.3,8.5-10.9,8.5c-4.3,0-7.3-1.2-9.5-2.5l2-3.9
		c1.7,1.1,4.5,2.2,7.6,2.2c2.9,0,5.6-1.1,5.6-3.6c0-6.1-14.3-3.4-14.3-12.9C411.3,68.8,415.4,66,421.3,66L421.3,66z M453.4,94.3
		V82.2h-13.5v12.1h-4.8V66.2h4.8v11.5h13.5V66.2h4.8v28.1H453.4z M327.8,99.1c2.9,0,5.3,0.6,7.8,1.7l-1.4,4
		c-1.4-0.6-3.3-1.4-5.9-1.4c-5.3,0-8.5,4.5-8.5,9.9c0,5.6,3.1,10.1,8.5,10.1c2.6,0,4.5-0.8,5.9-1.4l1.4,4c-2.5,1.1-4.8,1.7-7.8,1.7
		c-8.4,0-13.2-5.9-13.2-14.3C314.7,105.6,319.5,99.1,327.8,99.1L327.8,99.1z M432.7,99.1c3.1,0,5.4,0.6,7.8,1.7l-1.4,4
		c-1.4-0.6-3.3-1.4-5.9-1.4c-5.3,0-8.5,4.5-8.5,9.9c0,5.6,3.1,10.1,8.5,10.1c2.6,0,4.5-0.8,5.9-1.4l1.4,4c-2.3,1.1-4.7,1.7-7.8,1.7
		c-8.4,0-13.2-5.9-13.2-14.3C419.5,105.6,424.4,99.1,432.7,99.1L432.7,99.1z M362.9,113.4c0,8.4-5.3,14.4-13.2,14.4
		s-13.2-5.9-13.2-14.3s5.3-14.4,13.2-14.4C357.8,99.1,362.9,105,362.9,113.4L362.9,113.4z M357.9,113.4c0-6.1-3.6-9.9-8.2-9.9
		c-4.7,0-8.2,3.9-8.2,10.1c0,6.1,3.6,9.9,8.2,9.9C354.4,123.4,357.9,119.6,357.9,113.4z M366.2,116.8V99.4h4.8v17.5
		c0,4.8,2.5,6.5,6.5,6.5s6.5-1.7,6.5-6.5V99.4h4.8v17.4c0,7.6-4.3,11-11.3,11C370.5,127.8,366.2,124.4,366.2,116.8L366.2,116.8z
		 M397.8,107h-0.2c0.2,0.9,0.2,2.5,0.2,3.7v16.6H393V99.4h5.3l12.9,19.1h0.2c-0.2-0.9-0.2-2.5-0.2-3.7V99.4h4.8v27.9h-4.2L397.8,107
		z M444.2,127.3V99.4h4.8v27.9H444.2z M453.4,127.3V99.4h4.8V123h11v4.3H453.4z M397.4,66.3h-22.7v4.3h9v23.6h4.8V70.7h8.8V66.3z
		 M357.6,94.3c-4-8.5-5.1-10.9-6.8-10.9h-4.5v10.9h-4.8V66.3h9.5c7.3,0,9.9,3.7,9.9,7.9c0,3.9-2,6.4-5.1,7.3
		c1.2,0.8,2.6,3.4,7.3,12.7L357.6,94.3L357.6,94.3z M351.3,70.5h-5v8.5h4.8c3.4,0,5-1.7,5-4.3C356.1,72.4,354.7,70.5,351.3,70.5z"/>
	<path class="st2" d="M270.3,79.7c0,8.8-7.3,16-16.1,16c-8.7,0-16-7.1-16-16s7.3-16,16-16C263,63.7,270.3,70.8,270.3,79.7z
		 M304.4,79.7c0,8.8-7.1,16-15.9,16c0,0,0,0,0,0c-8.8,0-16-7.1-16-16s7.1-16,16-16C297.2,63.7,304.4,70.8,304.4,79.7
		C304.4,79.7,304.4,79.7,304.4,79.7z M270.3,114c0,8.8-7.3,16-16.1,16c-8.7,0-16-7.1-16-16c0-8.8,7.3-16,16-16
		C263,98,270.3,105.1,270.3,114z M304.4,114c0,8.8-7.1,16-15.9,16c0,0,0,0,0,0c-8.8,0-16-7.1-16-15.9c0,0,0,0,0,0
		c0-8.8,7.1-16,15.9-16c0,0,0,0,0,0C297.2,98,304.4,105.1,304.4,114C304.4,113.9,304.4,114,304.4,114z"/>
</g>
<g>
	<g id="Слой_x0020_1">
		<path class="st3" d="M38.5,63.8L58,64c0,0,18.2,0,19.1,15.6C78,95.1,54,101,50.5,100.6 M56.1,73.9c0,0,10.9,1,9.8,11.7
			c-1.1,10.7-7.3,12.9-15.3,15 M56.1,73.9L47.1,74l-4.3,30.2c40.9,1.8,41.1-40,41.1-40 M93.1,74.5L86.6,111l11.7,0.3l6.6-36.5
			l9.6,0.1l1.5-10.7H84 M85,74.5h8.1 M38.5,63.8L31,111c0,0,49.4,8.6,54-36.5 M110.3,111.3h12 M122.4,111.3l8.4-27.6l6.3,26.9h4.6
			l15.7-26.4l-0.8,26.9h12l1.2-46.7l-12.2-0.1l-14.4,24.9l-5-24.9h-12l-15.8,47.1"/>
		<path class="st4" d="M84,64.3c0,0-0.1,41.8-41.1,40L47.1,74l8.9-0.1c0,0,10.9,1,9.8,11.7c-1.2,10.7-7.3,12.9-15.3,15
			c3.4,0.3,27.6-5.6,26.6-21.1C76,64,58,64,58,64l-19.5-0.1L31,111c0,0,49.4,8.6,54-36.5h8.1L86.6,111l11.7,0.3l6.6-36.5l9.6,0.1
			l1.5-10.7L84,64.3L84,64.3z"/>
		<polygon class="st5" points="126.1,63.8 110.3,110.8 122.4,110.8 130.7,83.2 137,110.2 141.7,110.2 157.4,83.8 156.6,110.7 
			168.6,110.7 169.8,64 157.5,63.8 143.1,88.7 138.2,63.8 		"/>
		<path class="st5" d="M98.4,111.3l6.6-36.5l9.6,0.1l1.5-10.7H84c0,0-0.1,41.8-41.1,40L47.1,74l8.9-0.1c0,0,10.9,1,9.8,11.7
			c-1.1,10.7-7.3,12.9-15.3,15c3.4,0.3,27.6-5.6,26.6-21.1C76.1,64,58,64,58,64l-19.5-0.1L31,111c0,0,49.4,8.6,54-36.5h8.1L86.6,111
			L98.4,111.3z"/>
		<path class="st5" d="M130.7,83.8l-8.4,27.6h-12l15.8-47.1h12l5,24.9l14.4-24.9l12.2,0.1l-1.2,46.7h-12l0.8-26.9l-15.7,26.4h-4.6
			L130.7,83.8L130.7,83.8z M105,74.8l-6.6,36.5L86.7,111l6.5-36.5h-8.1C80.5,119.6,31,111,31,111l7.4-47.2L58,64
			c0,0,18.2,0,19.1,15.6C78,95.1,54,101,50.5,100.6c8.1-2.1,14.2-4.3,15.3-15C67,74.9,56.1,74,56.1,74l-8.9,0.1l-4.3,30.1
			c40.9,1.8,41.1-40,41.1-40h32.1L114.6,75L105,74.8z"/>
		<path class="st5" d="M98.4,111.3l6.6-36.5l9.6,0.1l1.5-10.7H84c0,0-0.1,41.8-41.1,40L47.1,74l8.9-0.1c0,0,10.9,1,9.8,11.7
			c-1.1,10.7-7.3,12.9-15.3,15c3.4,0.3,27.6-5.6,26.6-21.1C76.1,64,58,64,58,64l-19.5-0.1L31,111c0,0,49.4,8.6,54-36.5h8.1L86.6,111
			L98.4,111.3z"/>
		<polygon class="st4" points="126.1,63.8 110.3,110.8 122.4,110.8 130.7,83.2 137,110.2 141.7,110.2 157.4,83.8 156.6,110.7 
			168.6,110.7 169.8,64 157.5,63.8 143.1,88.7 138.2,63.8 		"/>
	</g>
	<g class="st6">
		<path class="st7" d="M31.3,120.9h3.2c0.7,0,1.2,0.1,1.7,0.1c0.5,0.1,1,0.4,1.3,0.8s0.6,0.8,0.8,1.4c0.2,0.6,0.3,1.2,0.3,2.1
			c0,0.7-0.1,1.3-0.3,1.9c-0.2,0.6-0.6,1.1-0.9,1.5c-0.3,0.3-0.7,0.6-1.2,0.7c-0.4,0.1-0.9,0.2-1.5,0.2h-3.2L31.3,120.9L31.3,120.9
			L31.3,120.9z M33,122.4v5.7h1.3c0.5,0,0.8,0,1-0.1c0.3-0.1,0.5-0.2,0.7-0.3s0.3-0.4,0.5-0.8c0.1-0.4,0.2-0.9,0.2-1.6
			s-0.1-1.2-0.2-1.5c-0.1-0.3-0.3-0.6-0.5-0.8c-0.2-0.2-0.5-0.3-0.8-0.4c-0.3-0.1-0.7-0.1-1.4-0.1L33,122.4L33,122.4z"/>
		<path class="st7" d="M47.7,129.5h-1.9l-0.8-1.9h-3.4l-0.7,1.9h-1.9l3.4-8.6h1.8L47.7,129.5z M44.5,126.1l-1.2-3.2l-1.2,3.2H44.5z"
			/>
		<path class="st7" d="M49.9,129.5l-3.1-8.6h1.9l2.2,6.4l2.1-6.4h1.9l-3.1,8.6H49.9z"/>
		<path class="st7" d="M55.8,129.5V121h1.7v7.1h4.3v1.4L55.8,129.5L55.8,129.5z"/>
		<path class="st7" d="M70.8,129.5h-1.9l-0.8-1.9h-3.4l-0.7,1.9h-1.9l3.4-8.6h1.9L70.8,129.5z M67.6,126.1l-1.2-3.2l-1.2,3.2H67.6z"
			/>
		<path class="st7" d="M72.7,129.5v-7.2h-2.5v-1.4h6.8v1.4h-2.5v7.2H72.7z"/>
		<path class="st7" d="M83.3,129.5v-7.2h-2.5v-1.4h6.8v1.4h-2.5v7.2H83.3z"/>
		<path class="st7" d="M88.7,129.5v-8.6H95v1.4h-4.6v1.9h4.3v1.4h-4.3v2.3h4.8v1.4L88.7,129.5L88.7,129.5z"/>
		<path class="st7" d="M96.3,126.7l1.7-0.1c0.1,0.6,0.3,1,0.6,1.2c0.3,0.3,0.8,0.4,1.2,0.4c0.6,0,1-0.1,1.2-0.3
			c0.3-0.2,0.4-0.5,0.4-0.8c0-0.2-0.1-0.3-0.2-0.6c-0.1-0.1-0.3-0.3-0.6-0.3c-0.2-0.1-0.7-0.2-1.4-0.3c-0.9-0.2-1.6-0.5-1.9-0.8
			c-0.6-0.5-0.8-1-0.8-1.7c0-0.4,0.1-0.8,0.3-1.2c0.3-0.4,0.6-0.7,1.1-0.9c0.5-0.2,1-0.3,1.7-0.3c1.1,0,1.9,0.2,2.4,0.7
			c0.6,0.5,0.8,1.1,0.8,1.9l-1.7,0.1c-0.1-0.4-0.2-0.8-0.5-1c-0.3-0.2-0.6-0.3-1.1-0.3c-0.5,0-0.9,0.1-1.2,0.3
			c-0.2,0.1-0.3,0.3-0.3,0.6s0.1,0.3,0.3,0.6c0.2,0.2,0.8,0.3,1.6,0.6c0.8,0.2,1.4,0.4,1.9,0.6c0.4,0.2,0.7,0.5,1,0.9
			c0.2,0.3,0.3,0.8,0.3,1.4c0,0.5-0.1,1-0.4,1.4s-0.7,0.8-1.2,1s-1.1,0.3-1.9,0.3c-1.1,0-1.9-0.3-2.5-0.8
			C96.8,128.4,96.4,127.7,96.3,126.7z"/>
		<path class="st7" d="M106.7,129.5v-7.2h-2.5v-1.4h6.8v1.4h-2.5v7.2H106.7z"/>
		<path class="st7" d="M115.3,129.5v-8.6h2.6l1.6,5.8l1.5-5.8h2.6v8.6H122v-6.8l-1.7,6.8h-1.7l-1.7-6.8v6.8H115.3z"/>
		<path class="st7" d="M133,129.5h-1.9l-0.8-1.9H127l-0.7,1.9h-1.9l3.4-8.6h1.9L133,129.5z M129.9,126.1l-1.2-3.2l-1.2,3.2H129.9z"
			/>
		<path class="st7" d="M134,129.5v-8.6h3.6c0.9,0,1.6,0.1,2,0.2c0.4,0.1,0.8,0.4,1,0.8c0.3,0.4,0.3,0.8,0.3,1.4
			c0,0.6-0.2,1.2-0.6,1.6c-0.3,0.4-1,0.7-1.7,0.8c0.3,0.2,0.7,0.5,0.9,0.8c0.3,0.3,0.6,0.8,1,1.4l1,1.7h-2.1l-1.2-1.9
			c-0.4-0.7-0.8-1.1-0.9-1.2c-0.1-0.2-0.3-0.3-0.6-0.3s-0.5-0.1-0.9-0.1h-0.3v3.6L134,129.5L134,129.5z M135.7,124.6h1.3
			c0.8,0,1.4-0.1,1.6-0.1c0.2-0.1,0.3-0.2,0.5-0.3c0.1-0.2,0.2-0.4,0.2-0.6c0-0.3-0.1-0.6-0.2-0.7c-0.1-0.2-0.3-0.3-0.6-0.3
			c-0.1,0-0.6,0-1.2,0h-1.4v2.1L135.7,124.6L135.7,124.6z"/>
		<path class="st7" d="M142.7,129.5v-8.6h1.7v3.9l3.5-3.9h2.3l-3.2,3.4l3.4,5.2h-2.2l-2.3-4.1l-1.4,1.4v2.6L142.7,129.5L142.7,129.5
			z"/>
		<path class="st7" d="M159,129.5h-1.9l-0.8-1.9h-3.4l-0.7,1.9h-1.9l3.4-8.6h1.9L159,129.5z M155.8,126.1l-1.2-3.2l-1.2,3.2H155.8z"
			/>
		<path class="st7" d="M159.2,129.5V128l4.5-5.6h-4v-1.4h6.3v1.4l-4.7,5.8h4.9v1.4L159.2,129.5L159.2,129.5z"/>
		<path class="st7" d="M167.1,129.5v-8.6h1.7v8.6H167.1z"/>
	</g>
</g>
</svg>
