<?xml version="1.0" encoding="UTF-8"?> <svg xmlns="http://www.w3.org/2000/svg" width="446" height="288" viewBox="0 0 446 288" fill="none"> <g opacity="0.5"> <g opacity="0.2"> <path opacity="0.9" d="M223.006 244.831L74.771 159.247L223.006 73.6626L371.241 159.247L223.006 244.831Z" fill="#080344"></path> </g> </g> <g style="mix-blend-mode:lighten"> <g style="mix-blend-mode:lighten"> <path d="M79.2197 149.879C77.6318 149.894 76.0682 149.488 74.6885 148.702L22.4913 118.573C22.0876 118.34 21.7536 118.003 21.5238 117.598C21.2941 117.192 21.1771 116.732 21.1849 116.266C21.1821 115.805 21.3029 115.35 21.5347 114.951C21.7664 114.552 22.1008 114.222 22.5031 113.995L116.94 59.469C117.019 59.4223 117.108 59.3977 117.199 59.3977C117.291 59.3977 117.38 59.4223 117.458 59.469L117.894 59.7161L173.928 92.0692C174.329 92.2973 174.663 92.6276 174.895 93.0266C175.127 93.4256 175.249 93.879 175.249 94.3406C175.249 94.8022 175.127 95.2556 174.895 95.6546C174.663 96.0535 174.329 96.3839 173.928 96.612L83.7509 148.666C82.3752 149.466 80.811 149.885 79.2197 149.879V149.879ZM117.199 60.5282L23.0445 114.901C22.8032 115.038 22.6028 115.236 22.4642 115.476C22.3255 115.716 22.2536 115.989 22.2559 116.266C22.256 116.543 22.329 116.815 22.4674 117.055C22.6058 117.294 22.8048 117.493 23.0445 117.631L75.2416 147.76C76.4685 148.445 77.8501 148.804 79.255 148.804C80.6599 148.804 82.0414 148.445 83.2683 147.76L173.445 95.7058C173.685 95.5673 173.884 95.3683 174.022 95.1286C174.16 94.889 174.233 94.6172 174.233 94.3406C174.233 94.064 174.16 93.7922 174.022 93.5525C173.884 93.3129 173.685 93.1139 173.445 92.9754L117.199 60.5282Z" fill="#42E8E0"></path> </g> </g> <path d="M180.695 77.4286L175.222 80.2885L120.271 48.571C119.712 48.3209 119.102 48.2035 118.489 48.228C117.877 48.2525 117.278 48.4182 116.74 48.7122L21.9264 103.426C21.0202 102.92 16.8892 100.931 16.8892 100.931L18.89 106.157C18.9949 106.427 19.1961 106.649 19.4549 106.781L77.3248 140.181C77.8858 140.428 78.4959 140.542 79.1081 140.515C79.7202 140.489 80.3181 140.322 80.8557 140.028L177.823 84.0428C178.188 83.8632 178.477 83.5582 178.636 83.1837L180.695 77.4286Z" fill="url(#paint0_linear)"></path> <path d="M179.848 78.3231L80.4671 135.709C79.9093 136.019 79.2868 136.194 78.6492 136.22C78.0117 136.247 77.3768 136.124 76.7951 135.862L17.4892 101.614C16.5477 101.073 16.6654 100.119 17.7482 99.4956L117.14 42.1215C117.697 41.8091 118.32 41.6324 118.958 41.6058C119.596 41.5792 120.232 41.7035 120.812 41.9685L180.071 76.2047C181.06 76.746 180.942 77.6758 179.848 78.3231Z" fill="#D0EBFF"></path> <path d="M179.848 77.7582L80.4672 135.132C79.9094 135.442 79.2869 135.617 78.6493 135.644C78.0118 135.67 77.3769 135.547 76.7952 135.285L17.4894 101.049C17.2218 100.915 17.0155 100.683 16.9127 100.402C16.8511 100.635 16.8755 100.882 16.9814 101.098C17.0874 101.314 17.2677 101.485 17.4894 101.579L76.7952 135.827C77.3769 136.089 78.0118 136.212 78.6493 136.185C79.2869 136.158 79.9094 135.983 80.4672 135.674L179.848 78.2878C180.589 77.8759 180.86 77.2992 180.695 76.8167C180.536 77.2228 180.235 77.5573 179.848 77.7582V77.7582Z" fill="white"></path> <path d="M50.491 123.292V122.198C50.491 122.104 50.5616 122.057 50.6322 122.092L54.4808 124.316C54.5225 124.349 54.5567 124.39 54.5811 124.436C54.6055 124.483 54.6194 124.534 54.622 124.587V125.67C54.622 125.776 54.5514 125.823 54.4808 125.776L50.6087 123.575C50.5698 123.539 50.5391 123.495 50.5188 123.447C50.4985 123.398 50.489 123.345 50.491 123.292V123.292Z" fill="#2842A2"></path> <path d="M56.2461 126.611V125.517C56.2461 125.423 56.3049 125.376 56.3873 125.411L60.2241 127.635C60.2678 127.666 60.3034 127.706 60.328 127.753C60.3526 127.8 60.3654 127.853 60.3654 127.906V128.989C60.3654 129.095 60.3654 129.142 60.2241 129.095L56.3873 126.882C56.3437 126.852 56.3081 126.811 56.2835 126.764C56.2589 126.717 56.2461 126.665 56.2461 126.611V126.611Z" fill="#2842A2"></path> <path d="M50.9261 109.452L133.512 61.764C133.782 61.608 134.088 61.5259 134.4 61.5259C134.712 61.5259 135.019 61.608 135.289 61.764L164.712 78.782C164.807 78.8382 164.886 78.9182 164.941 79.0142C164.996 79.1101 165.025 79.2187 165.025 79.3292C165.025 79.4398 164.996 79.5483 164.941 79.6443C164.886 79.7403 164.807 79.8203 164.712 79.8765L82.1503 127.494C81.8801 127.65 81.5736 127.732 81.2617 127.732C80.9497 127.732 80.6433 127.65 80.3731 127.494L50.9497 110.5C50.8634 110.443 50.7921 110.366 50.742 110.276C50.692 110.186 50.6646 110.085 50.6623 109.982C50.66 109.879 50.6828 109.777 50.7287 109.684C50.7747 109.592 50.8425 109.512 50.9261 109.452V109.452Z" fill="#ADB1F2"></path> <path d="M50.9264 110.499L51.2206 110.676L133.512 63.1644C133.782 63.0085 134.089 62.9264 134.401 62.9264C134.713 62.9264 135.019 63.0085 135.289 63.1644L164.407 80.0295L164.701 79.8529C164.796 79.7967 164.875 79.7167 164.93 79.6208C164.984 79.5248 165.013 79.4162 165.013 79.3057C165.013 79.1952 164.984 79.0866 164.93 78.9906C164.875 78.8946 164.796 78.8146 164.701 78.7584L135.348 61.7168C135.078 61.5609 134.771 61.4788 134.459 61.4788C134.148 61.4788 133.841 61.5609 133.571 61.7168L50.9264 109.452C50.8414 109.51 50.772 109.589 50.724 109.68C50.676 109.771 50.6509 109.873 50.6509 109.976C50.6509 110.079 50.676 110.18 50.724 110.272C50.772 110.363 50.8414 110.441 50.9264 110.499V110.499Z" fill="#9198DB"></path> <path d="M137.513 66.0362L61.4361 109.946L57.6699 108.44L134.324 64.1885L137.513 66.0362Z" fill="#24126A"></path> <path d="M145.328 70.5437L78.0425 109.393L74.853 107.557L142.138 68.7078L145.328 70.5437Z" fill="#24126A"></path> <path d="M150.424 73.4859L71.1929 119.22L68.0034 117.384L147.235 71.6499L150.424 73.4859Z" fill="#24126A"></path> <path d="M155.52 76.4283L76.2891 122.163L73.0996 120.327L152.331 74.5806L155.52 76.4283Z" fill="#24126A"></path> <path d="M160.617 79.3704L81.3853 125.105L78.1958 123.269L157.415 77.5227L160.617 79.3704Z" fill="#24126A"></path> <path d="M61.4361 109.946L58.2466 111.794L55.0571 109.946L58.2466 108.11L61.4361 109.946Z" fill="#24126A"></path> <path d="M81.9149 107.157L66.0616 116.313L62.8721 114.466L78.8313 105.25L81.9149 107.157Z" fill="#24126A"></path> <path d="M80.326 88.0323L102.594 75.1806C102.783 75.115 102.948 74.9919 103.064 74.8284C103.181 74.6649 103.243 74.4692 103.243 74.2685C103.243 74.0677 103.181 73.872 103.064 73.7085C102.948 73.545 102.783 73.4219 102.594 73.3564L87.3641 64.5649C86.8743 64.3204 86.3344 64.1931 85.787 64.1931C85.2396 64.1931 84.6997 64.3204 84.2099 64.5649L61.9423 77.4284C61.0713 77.9227 61.0713 78.7348 61.9423 79.2409L77.1718 88.0323C77.6616 88.2768 78.2015 88.4041 78.7489 88.4041C79.2963 88.4041 79.8362 88.2768 80.326 88.0323V88.0323Z" fill="url(#paint1_linear)"></path> <path d="M61.9423 78.1699L84.2099 65.3063C84.6997 65.0618 85.2396 64.9346 85.787 64.9346C86.3344 64.9346 86.8743 65.0618 87.3641 65.3063L102.594 74.1449C102.824 74.2713 103.015 74.4586 103.147 74.6862C103.37 74.2508 103.147 73.7565 102.594 73.4034L87.3641 64.5649C86.8743 64.3204 86.3344 64.1931 85.787 64.1931C85.2396 64.1931 84.6997 64.3204 84.2099 64.5649L61.9423 77.4284C61.3421 77.7697 61.1655 78.264 61.4009 78.6995C61.5316 78.4784 61.7184 78.2957 61.9423 78.1699V78.1699Z" fill="#9198DB"></path> <path d="M180.542 75.9574L167.972 1.42416L168.985 1.00048L167.466 0.129568C167.28 0.0385084 167.074 -0.00182654 166.867 0.0126388C166.66 0.0271042 166.461 0.0958573 166.289 0.211951L65.9086 58.1862C65.4853 58.4564 65.1413 58.834 64.9118 59.2807C64.6822 59.7273 64.5754 60.2269 64.6022 60.7283L77.266 135.862C77.2827 136.024 77.34 136.179 77.4325 136.312C77.5251 136.446 77.65 136.554 77.7956 136.627V136.627L79.2786 137.486L79.5375 136.097H79.4551L179.248 78.4289C179.658 78.1635 179.993 77.7964 180.22 77.3634C180.447 76.9303 180.558 76.446 180.542 75.9574V75.9574Z" fill="url(#paint2_linear)"></path> <path d="M66.4615 60.2224L64.8138 59.4927C64.6246 59.8754 64.5471 60.3037 64.5902 60.7284L77.254 135.862C77.2707 136.024 77.328 136.179 77.4206 136.312C77.5132 136.446 77.6381 136.554 77.7837 136.627V136.627L79.2666 137.486L79.5255 136.097H79.4431L84.4922 133.179L66.4615 60.2224Z" fill="url(#paint3_linear)"></path> <path d="M180.813 79.4057L80.4084 137.368C79.6317 137.827 78.9726 137.568 78.8314 136.756L66.1675 61.6345C66.1411 61.1314 66.2479 60.6304 66.4773 60.1819C66.7067 59.7334 67.0505 59.3535 67.4739 59.0806L167.878 1.17696C168.655 0.729738 169.314 0.988656 169.455 1.78895L182.119 76.8518C182.148 77.3552 182.042 77.8572 181.813 78.3061C181.583 78.755 181.238 79.1346 180.813 79.4057V79.4057Z" fill="#453C9E"></path> <g style="mix-blend-mode:lighten"> <g style="mix-blend-mode:lighten"> <path d="M362.414 149.879C360.826 149.896 359.262 149.489 357.883 148.702L267.706 96.612C267.305 96.3839 266.971 96.0535 266.739 95.6546C266.507 95.2556 266.384 94.8022 266.384 94.3406C266.384 93.879 266.507 93.4256 266.739 93.0266C266.971 92.6276 267.305 92.2973 267.706 92.0692L324.199 59.469C324.277 59.4223 324.367 59.3977 324.458 59.3977C324.549 59.3977 324.638 59.4223 324.717 59.469L419.166 113.995C419.568 114.222 419.903 114.552 420.134 114.951C420.366 115.35 420.487 115.805 420.484 116.266C420.484 116.728 420.363 117.181 420.131 117.58C419.9 117.979 419.567 118.309 419.166 118.538L366.969 148.666C365.585 149.467 364.013 149.886 362.414 149.879V149.879ZM324.434 60.5282L324.258 60.6223L268.224 92.9754C267.984 93.1139 267.785 93.3129 267.647 93.5526C267.509 93.7922 267.436 94.064 267.436 94.3406C267.436 94.6172 267.509 94.889 267.647 95.1286C267.785 95.3683 267.984 95.5673 268.224 95.7058L358.401 147.76C359.624 148.449 361.004 148.811 362.408 148.811C363.812 148.811 365.192 148.449 366.416 147.76L418.625 117.69C418.864 117.552 419.063 117.353 419.202 117.113C419.34 116.874 419.413 116.602 419.413 116.325C419.415 116.048 419.344 115.775 419.205 115.535C419.066 115.295 418.866 115.096 418.625 114.96L324.434 60.5282Z" fill="#42E8E0"></path> </g> </g> <path d="M260.938 77.4286L266.411 80.2885L321.304 48.571C321.864 48.3226 322.473 48.2063 323.085 48.2307C323.698 48.2552 324.296 48.4199 324.834 48.7122L419.601 103.426C420.508 102.92 424.639 100.931 424.639 100.931L422.638 106.157C422.533 106.427 422.332 106.649 422.073 106.781L364.215 140.193C363.646 140.449 363.025 140.568 362.402 140.542C361.778 140.515 361.17 140.343 360.625 140.04L263.751 84.0428C263.386 83.8632 263.098 83.5582 262.939 83.1837L260.938 77.4286Z" fill="url(#paint4_linear)"></path> <path d="M261.786 78.3231L361.167 135.709C361.725 136.019 362.347 136.194 362.985 136.22C363.622 136.247 364.257 136.124 364.839 135.862L424.145 101.614C425.086 101.073 424.968 100.119 423.886 99.4956L324.493 42.1215C323.936 41.8091 323.314 41.6324 322.676 41.6058C322.038 41.5792 321.402 41.7035 320.821 41.9685L261.515 76.2047C260.574 76.746 260.692 77.6758 261.786 78.3231Z" fill="#D0EBFF"></path> <path d="M261.786 77.758L361.167 135.132C361.721 135.453 362.343 135.639 362.983 135.676C363.623 135.713 364.263 135.599 364.85 135.344L424.156 101.108C424.424 100.973 424.63 100.742 424.733 100.46C424.794 100.693 424.77 100.94 424.664 101.157C424.558 101.373 424.378 101.543 424.156 101.637L364.85 135.862C364.269 136.124 363.634 136.247 362.996 136.22C362.359 136.194 361.736 136.018 361.178 135.709L261.786 78.3229C261.045 77.911 260.762 77.3343 260.939 76.8518C261.105 77.2447 261.405 77.5659 261.786 77.758V77.758Z" fill="white"></path> <path d="M391.143 123.292V122.198C391.143 122.104 391.072 122.057 391.002 122.092L387.212 124.316C387.17 124.349 387.136 124.39 387.112 124.436C387.087 124.483 387.073 124.534 387.071 124.587V125.67C387.071 125.776 387.141 125.823 387.212 125.776L391.061 123.563C391.092 123.526 391.115 123.483 391.129 123.436C391.143 123.39 391.148 123.341 391.143 123.292V123.292Z" fill="#2842A2"></path> <path d="M385.388 126.611V125.517C385.388 125.423 385.329 125.376 385.247 125.411L381.41 127.635C381.366 127.666 381.331 127.706 381.306 127.753C381.281 127.8 381.269 127.853 381.269 127.906V128.989C381.269 129.095 381.327 129.142 381.41 129.095L385.247 126.882C385.29 126.852 385.326 126.811 385.35 126.764C385.375 126.717 385.388 126.665 385.388 126.611Z" fill="#2842A2"></path> <path d="M390.743 109.452L308.122 61.7168C307.852 61.5609 307.545 61.4788 307.233 61.4788C306.921 61.4788 306.615 61.5609 306.345 61.7168L276.921 78.7349C276.826 78.7911 276.747 78.8711 276.692 78.967C276.638 79.063 276.609 79.1716 276.609 79.2821C276.609 79.3926 276.638 79.5012 276.692 79.5972C276.747 79.6932 276.826 79.7732 276.921 79.8294L359.472 127.494C359.742 127.65 360.048 127.732 360.36 127.732C360.672 127.732 360.979 127.65 361.249 127.494L390.672 110.499C390.761 110.447 390.836 110.374 390.891 110.286C390.945 110.198 390.977 110.098 390.984 109.994C390.991 109.891 390.973 109.788 390.931 109.693C390.889 109.599 390.824 109.516 390.743 109.452V109.452Z" fill="#ADB1F2"></path> <path d="M390.743 110.5L390.449 110.676L308.122 63.1646C307.852 63.0086 307.545 62.9265 307.233 62.9265C306.921 62.9265 306.615 63.0086 306.345 63.1646L277.227 80.0296L276.933 79.8531C276.838 79.7969 276.759 79.7169 276.704 79.6209C276.649 79.5249 276.621 79.4163 276.621 79.3058C276.621 79.1953 276.649 79.0867 276.704 78.9907C276.759 78.8948 276.838 78.8147 276.933 78.7585L306.356 61.7405C306.627 61.5846 306.933 61.5024 307.245 61.5024C307.557 61.5024 307.863 61.5846 308.134 61.7405L390.743 109.452C390.828 109.511 390.897 109.589 390.945 109.68C390.993 109.771 391.018 109.873 391.018 109.976C391.018 110.079 390.993 110.181 390.945 110.272C390.897 110.363 390.828 110.441 390.743 110.5V110.5Z" fill="#9198DB"></path> <path d="M304.121 66.0362L380.198 109.946L383.964 108.44L307.31 64.1885L304.121 66.0362Z" fill="#24126A"></path> <path d="M296.306 70.5437L363.591 109.393L366.781 107.557L299.495 68.7078L296.306 70.5437Z" fill="#24126A"></path> <path d="M291.209 73.4859L370.429 119.22L373.619 117.384L294.399 71.6499L291.209 73.4859Z" fill="#24126A"></path> <path d="M286.113 76.4283L365.345 122.163L368.534 120.327L289.303 74.5806L286.113 76.4283Z" fill="#24126A"></path> <path d="M281.017 79.3704L360.248 125.105L363.438 123.269L284.218 77.5227L281.017 79.3704Z" fill="#24126A"></path> <path d="M380.198 109.946L383.387 111.794L386.577 109.946L383.387 108.11L380.198 109.946Z" fill="#24126A"></path> <path d="M359.719 107.157L375.56 116.313L378.75 114.466L362.791 105.25L359.719 107.157Z" fill="#24126A"></path> <path d="M361.32 88.0325L339.04 75.1807C338.851 75.1151 338.686 74.992 338.57 74.8285C338.453 74.665 338.391 74.4693 338.391 74.2686C338.391 74.0678 338.453 73.8721 338.57 73.7086C338.686 73.5452 338.851 73.4221 339.04 73.3565L354.258 64.565C354.744 64.3151 355.283 64.1848 355.829 64.1848C356.376 64.1848 356.915 64.3151 357.401 64.565L379.68 77.4286C379.866 77.4965 380.026 77.6199 380.139 77.782C380.253 77.9441 380.313 78.137 380.313 78.3348C380.313 78.5325 380.253 78.7255 380.139 78.8875C380.026 79.0496 379.866 79.173 379.68 79.241L364.462 88.0325C363.974 88.2751 363.436 88.4013 362.891 88.4013C362.346 88.4013 361.808 88.2751 361.32 88.0325V88.0325Z" fill="url(#paint5_linear)"></path> <path d="M379.692 78.17L357.412 65.3065C356.924 65.0639 356.386 64.9376 355.841 64.9376C355.296 64.9376 354.758 65.0639 354.27 65.3065L339.04 74.145C338.81 74.2714 338.619 74.4587 338.487 74.6864C338.264 74.2509 338.487 73.7566 339.04 73.4035L354.258 64.565C354.744 64.3151 355.283 64.1848 355.829 64.1848C356.376 64.1848 356.914 64.3151 357.401 64.565L379.68 77.4286C380.28 77.7699 380.457 78.2642 380.221 78.6996C380.094 78.48 379.911 78.2975 379.692 78.17Z" fill="#9198DB"></path> <path d="M261.092 75.9574L273.65 1.42416L272.649 1.00048L274.226 0.129568C274.412 0.0385084 274.619 -0.00182654 274.826 0.0126388C275.033 0.0271042 275.232 0.0958573 275.403 0.211951L375.808 58.1862C376.231 58.4551 376.575 58.8329 376.803 59.2801C377.031 59.7273 377.134 60.2275 377.102 60.7283L364.38 135.862C364.361 136.023 364.303 136.177 364.21 136.311C364.118 136.444 363.994 136.553 363.85 136.627L362.367 137.486L362.108 136.097H362.191L262.457 78.4995C262.023 78.2367 261.667 77.8622 261.427 77.4151C261.187 76.9679 261.071 76.4646 261.092 75.9574V75.9574Z" fill="url(#paint6_linear)"></path> <path d="M375.172 60.2224L376.82 59.4927C377.011 59.8747 377.085 60.3046 377.032 60.7284L364.38 135.862C364.361 136.023 364.303 136.177 364.211 136.311C364.118 136.444 363.994 136.553 363.85 136.627L362.367 137.486L362.108 136.097H362.191L357.142 133.179L375.172 60.2224Z" fill="url(#paint7_linear)"></path> <path d="M260.821 79.4057L361.225 137.368C362.002 137.827 362.661 137.568 362.802 136.756L375.443 61.6345C375.469 61.1314 375.362 60.6304 375.133 60.1819C374.903 59.7334 374.56 59.3535 374.136 59.0806L273.755 1.17696C272.979 0.729738 272.319 0.988656 272.178 1.78895L259.514 76.8518C259.486 77.3552 259.591 77.8572 259.821 78.3061C260.051 78.755 260.396 79.1346 260.821 79.4057V79.4057Z" fill="#453C9E"></path> <path d="M220.817 167.862L127.333 113.889L220.817 59.9163L314.301 113.889L220.817 167.862Z" fill="#BCBEFF"></path> <path d="M220.817 153.115L152.86 113.889L220.817 74.6511L288.773 113.889L220.817 153.115Z" fill="#453C9E"></path> <path d="M220.817 77.3109L286.478 115.219L288.773 113.889L220.817 74.6511L152.86 113.889L155.155 115.207L220.817 77.3109Z" fill="white"></path> <path d="M314.301 113.889V144.477L220.817 198.449V167.862L314.301 113.889Z" fill="url(#paint8_linear)"></path> <path d="M127.333 113.889V144.477L220.817 198.449V167.862L127.333 113.889Z" fill="#24126A"></path> <g opacity="0.51"> <path opacity="0.51" d="M133.665 127.624V137.262L214.485 183.927V174.288L133.665 127.624Z" fill="#453C9E"></path> </g> <path d="M220.817 166.108L128.851 113.006L127.333 113.889L220.817 167.862L314.301 113.889L312.783 113.006L220.817 166.108Z" fill="white"></path> <path d="M300.283 135.321V140.805L234.846 178.584V173.111L300.283 135.321Z" fill="#453C9E"></path> <path opacity="0.51" d="M127.333 113.889V144.477L220.817 198.449V167.862L127.333 113.889Z" fill="#453C9E"></path> <path d="M193.524 166.238L176.6 156.458V158.482L193.524 168.25V166.238Z" fill="#42E8E0"></path> <path d="M174.151 155.069L169.573 152.421V154.445L174.151 157.093V155.069Z" fill="#42E8E0"></path> <path d="M152.672 142.664L143.28 137.25V139.263L152.672 144.689V142.664Z" fill="#42E8E0"></path> <path d="M161.229 147.607L154.45 143.688V145.713L161.229 149.632V147.607Z" fill="#42E8E0"></path> <path d="M167.596 151.291L163.006 148.643V150.656L167.596 153.304V151.291Z" fill="#42E8E0"></path> <path d="M220.911 88.1265L217.945 86.4082L220.911 84.6899L223.877 86.4082L220.911 88.1265Z" fill="#42E8E0"></path> <path opacity="0.1" d="M226.855 91.5515L223.877 89.8332L226.855 88.1267L229.82 89.8332L226.855 91.5515Z" fill="#42E8E0"></path> <path opacity="0.4" d="M232.787 94.9763L229.821 93.258L232.787 91.5515L235.753 93.258L232.787 94.9763Z" fill="#42E8E0"></path> <path d="M238.73 98.4009L235.752 96.6944L238.73 94.9761L241.696 96.6944L238.73 98.4009Z" fill="#42E8E0"></path> <path opacity="0.4" d="M244.662 101.837L241.696 100.119L244.662 98.4009L247.628 100.119L244.662 101.837Z" fill="#42E8E0"></path> <path d="M250.605 105.262L247.627 103.544L250.605 101.838L253.571 103.544L250.605 105.262Z" fill="#42E8E0"></path> <path d="M256.537 108.687L253.571 106.969L256.537 105.262L259.503 106.969L256.537 108.687Z" fill="#42E8E0"></path> <path d="M262.469 112.112L259.503 110.405L262.469 108.687L265.446 110.405L262.469 112.112Z" fill="#42E8E0"></path> <path opacity="0.1" d="M268.412 115.537L265.446 113.83L268.412 112.112L271.378 113.83L268.412 115.537Z" fill="#42E8E0"></path> <path d="M214.956 91.5632L211.978 89.8449L214.956 88.1384L217.922 89.8449L214.956 91.5632Z" fill="#42E8E0"></path> <path d="M220.888 94.988L217.922 93.2815L220.888 91.5632L223.854 93.2815L220.888 94.988Z" fill="#42E8E0"></path> <path d="M226.831 98.4128L223.854 96.7063L226.831 94.988L229.797 96.7063L226.831 98.4128Z" fill="#42E8E0"></path> <path d="M232.763 101.849L229.797 100.131L232.763 98.4128L235.729 100.131L232.763 101.849Z" fill="#42E8E0"></path> <path d="M238.694 105.274L235.729 103.556L238.694 101.849L241.672 103.556L238.694 105.274Z" fill="#42E8E0"></path> <path d="M244.638 108.699L241.672 106.992L244.638 105.274L247.604 106.992L244.638 108.699Z" fill="#42E8E0"></path> <path d="M250.57 112.136L247.604 110.417L250.57 108.699L253.548 110.417L250.57 112.136Z" fill="#42E8E0"></path> <path d="M256.513 115.56L253.547 113.842L256.513 112.135L259.479 113.842L256.513 115.56Z" fill="#42E8E0"></path> <path d="M262.445 118.985L259.479 117.267L262.445 115.56L265.423 117.267L262.445 118.985Z" fill="#42E8E0"></path> <path d="M208.989 94.9997L206.023 93.2932L208.989 91.575L211.955 93.2932L208.989 94.9997Z" fill="#42E8E0"></path> <path d="M214.932 98.4363L211.955 96.718L214.932 94.9998L217.898 96.718L214.932 98.4363Z" fill="#42E8E0"></path> <path d="M220.864 101.861L217.898 100.143L220.864 98.4363L223.83 100.143L220.864 101.861Z" fill="#42E8E0"></path> <path opacity="0.1" d="M226.808 105.286L223.83 103.568L226.808 101.861L229.774 103.568L226.808 105.286Z" fill="#42E8E0"></path> <path opacity="0.4" d="M232.739 108.711L229.773 107.004L232.739 105.286L235.705 107.004L232.739 108.711Z" fill="#42E8E0"></path> <path opacity="0.4" d="M238.671 112.147L235.705 110.429L238.671 108.711L241.649 110.429L238.671 112.147Z" fill="#42E8E0"></path> <path d="M244.615 115.572L241.649 113.854L244.615 112.147L247.581 113.854L244.615 115.572Z" fill="#42E8E0"></path> <path d="M250.546 118.997L247.581 117.29L250.546 115.572L253.524 117.29L250.546 118.997Z" fill="#42E8E0"></path> <path d="M256.49 122.422L253.524 120.715L256.49 118.997L259.456 120.715L256.49 122.422Z" fill="#42E8E0"></path> <path opacity="0.4" d="M203.033 98.448L200.056 96.7298L203.033 95.0115L205.999 96.7298L203.033 98.448Z" fill="#42E8E0"></path> <path opacity="0.4" d="M208.965 101.873L206 100.155L208.965 98.448L211.931 100.155L208.965 101.873Z" fill="#42E8E0"></path> <path opacity="0.1" d="M214.897 105.298L211.931 103.591L214.897 101.873L217.875 103.591L214.897 105.298Z" fill="#42E8E0"></path> <path d="M220.84 108.734L217.875 107.016L220.84 105.298L223.806 107.016L220.84 108.734Z" fill="#42E8E0"></path> <path d="M226.784 112.159L223.807 110.441L226.784 108.734L229.75 110.441L226.784 112.159Z" fill="#42E8E0"></path> <path d="M232.716 115.584L229.75 113.865L232.716 112.159L235.682 113.865L232.716 115.584Z" fill="#42E8E0"></path> <path opacity="0.4" d="M238.648 119.009L235.682 117.302L238.648 115.584L241.625 117.302L238.648 119.009Z" fill="#42E8E0"></path> <path d="M244.591 122.445L241.625 120.727L244.591 119.009L247.557 120.727L244.591 122.445Z" fill="#42E8E0"></path> <path d="M250.523 125.87L247.557 124.152L250.523 122.445L253.501 124.152L250.523 125.87Z" fill="#42E8E0"></path> <path d="M197.066 101.885L194.101 100.178L197.066 98.46L200.032 100.178L197.066 101.885Z" fill="#42E8E0"></path> <path d="M203.01 105.31L200.032 103.603L203.01 101.885L205.976 103.603L203.01 105.31Z" fill="#42E8E0"></path> <path d="M208.941 108.746L205.976 107.028L208.941 105.309L211.907 107.028L208.941 108.746Z" fill="#42E8E0"></path> <path d="M214.873 112.171L211.907 110.453L214.873 108.746L217.851 110.453L214.873 112.171Z" fill="#42E8E0"></path> <path d="M220.817 115.596L217.851 113.889L220.817 112.171L223.783 113.889L220.817 115.596Z" fill="#42E8E0"></path> <path d="M226.749 119.032L223.783 117.314L226.749 115.595L229.726 117.314L226.749 119.032Z" fill="#42E8E0"></path> <path d="M232.692 122.457L229.727 120.738L232.692 119.032L235.658 120.738L232.692 122.457Z" fill="#42E8E0"></path> <path d="M238.624 125.882L235.658 124.164L238.624 122.457L241.602 124.164L238.624 125.882Z" fill="#42E8E0"></path> <path d="M244.567 129.306L241.602 127.6L244.567 125.882L247.533 127.6L244.567 129.306Z" fill="#42E8E0"></path> <path d="M191.111 105.333L188.133 103.615L191.111 101.896L194.077 103.615L191.111 105.333Z" fill="#42E8E0"></path> <path d="M197.043 108.758L194.077 107.04L197.043 105.333L200.008 107.04L197.043 108.758Z" fill="#42E8E0"></path> <path opacity="0.4" d="M202.986 112.183L200.009 110.464L202.986 108.758L205.952 110.464L202.986 112.183Z" fill="#42E8E0"></path> <path d="M208.918 115.607L205.952 113.901L208.918 112.183L211.884 113.901L208.918 115.607Z" fill="#42E8E0"></path> <path opacity="0.1" d="M214.861 119.044L211.884 117.325L214.861 115.607L217.827 117.325L214.861 119.044Z" fill="#42E8E0"></path> <path d="M220.794 122.469L217.828 120.75L220.794 119.044L223.759 120.75L220.794 122.469Z" fill="#42E8E0"></path> <path d="M226.725 125.894L223.759 124.187L226.725 122.469L229.703 124.187L226.725 125.894Z" fill="#42E8E0"></path> <path d="M232.669 129.318L229.703 127.612L232.669 125.893L235.635 127.612L232.669 129.318Z" fill="#42E8E0"></path> <path d="M238.6 132.755L235.634 131.036L238.6 129.318L241.578 131.036L238.6 132.755Z" fill="#42E8E0"></path> <path d="M185.144 108.77L182.178 107.063L185.144 105.345L188.11 107.063L185.144 108.77Z" fill="#42E8E0"></path> <path d="M191.076 112.194L188.11 110.488L191.076 108.77L194.053 110.488L191.076 112.194Z" fill="#42E8E0"></path> <path opacity="0.4" d="M197.019 115.631L194.053 113.913L197.019 112.194L199.985 113.913L197.019 115.631Z" fill="#42E8E0"></path> <path d="M202.951 119.056L199.985 117.337L202.951 115.631L205.929 117.337L202.951 119.056Z" fill="#42E8E0"></path> <path d="M208.895 122.48L205.929 120.762L208.895 119.056L211.861 120.762L208.895 122.48Z" fill="#42E8E0"></path> <path opacity="0.1" d="M214.826 125.905L211.86 124.199L214.826 122.48L217.804 124.199L214.826 125.905Z" fill="#42E8E0"></path> <path opacity="0.4" d="M220.77 129.342L217.804 127.624L220.77 125.905L223.735 127.624L220.77 129.342Z" fill="#42E8E0"></path> <path d="M226.702 132.767L223.736 131.048L226.702 129.342L229.679 131.048L226.702 132.767Z" fill="#42E8E0"></path> <path opacity="0.1" d="M232.645 136.191L229.679 134.485L232.645 132.767L235.611 134.485L232.645 136.191Z" fill="#42E8E0"></path> <path d="M179.189 112.206L176.211 110.5L179.189 108.781L182.154 110.5L179.189 112.206Z" fill="#42E8E0"></path> <path opacity="0.4" d="M185.121 115.643L182.155 113.924L185.121 112.206L188.087 113.924L185.121 115.643Z" fill="#42E8E0"></path> <path d="M191.064 119.067L188.086 117.349L191.064 115.643L194.03 117.349L191.064 119.067Z" fill="#42E8E0"></path> <path d="M196.996 122.492L194.03 120.786L196.996 119.067L199.962 120.786L196.996 122.492Z" fill="#42E8E0"></path> <path d="M202.927 125.929L199.961 124.21L202.927 122.492L205.905 124.21L202.927 125.929Z" fill="#42E8E0"></path> <path d="M208.871 129.353L205.905 127.635L208.871 125.929L211.837 127.635L208.871 129.353Z" fill="#42E8E0"></path> <path d="M214.803 132.778L211.837 131.06L214.803 129.354L217.78 131.06L214.803 132.778Z" fill="#42E8E0"></path> <path opacity="0.4" d="M220.746 136.203L217.78 134.497L220.746 132.778L223.712 134.497L220.746 136.203Z" fill="#42E8E0"></path> <path d="M226.678 139.64L223.712 137.921L226.678 136.203L229.656 137.921L226.678 139.64Z" fill="#42E8E0"></path> <path d="M173.222 115.654L170.256 113.936L173.222 112.229L176.188 113.936L173.222 115.654Z" fill="#42E8E0"></path> <path opacity="0.1" d="M179.153 119.079L176.188 117.373L179.153 115.654L182.131 117.373L179.153 119.079Z" fill="#42E8E0"></path> <path d="M185.097 122.504L182.131 120.797L185.097 119.079L188.063 120.797L185.097 122.504Z" fill="#42E8E0"></path> <path d="M191.028 125.94L188.062 124.222L191.028 122.504L194.006 124.222L191.028 125.94Z" fill="#42E8E0"></path> <path d="M196.972 129.365L194.006 127.647L196.972 125.94L199.938 127.647L196.972 129.365Z" fill="#42E8E0"></path> <path d="M202.904 132.79L199.938 131.084L202.904 129.365L205.882 131.084L202.904 132.79Z" fill="#42E8E0"></path> <path opacity="0.4" d="M208.847 136.227L205.881 134.508L208.847 132.79L211.813 134.508L208.847 136.227Z" fill="#42E8E0"></path> <path d="M214.779 139.651L211.813 137.933L214.779 136.227L217.757 137.933L214.779 139.651Z" fill="#42E8E0"></path> <path d="M220.723 143.076L217.757 141.358L220.723 139.651L223.689 141.358L220.723 143.076Z" fill="#42E8E0"></path> <path d="M220.817 114.889L127.333 60.9166L220.817 6.94385L314.301 60.9166L220.817 114.889Z" fill="#BCEFFF"></path> <path d="M220.817 100.143L152.86 60.9167L220.817 21.6787L288.773 60.9167L220.817 100.143Z" fill="#453C9E"></path> <path d="M220.817 24.3385L286.478 62.2466L288.773 60.9167L220.817 21.6787L152.86 60.9167L155.155 62.2348L220.817 24.3385Z" fill="white"></path> <path d="M314.301 60.9167V91.5045L220.817 145.477V114.89L314.301 60.9167Z" fill="url(#paint9_linear)"></path> <path d="M127.333 60.9167V91.5045L220.817 145.477V114.89L127.333 60.9167Z" fill="#24126A"></path> <g opacity="0.51"> <path opacity="0.51" d="M133.665 74.6628V84.2899L214.485 130.954V121.315L133.665 74.6628Z" fill="#453C9E"></path> </g> <path d="M220.817 113.136L128.851 60.0339L127.333 60.9166L220.817 114.889L314.301 60.9166L312.783 60.0339L220.817 113.136Z" fill="white"></path> <path d="M300.283 82.3481V87.8325L234.846 125.611V120.139L300.283 82.3481Z" fill="#453C9E"></path> <path opacity="0.51" d="M127.333 60.9167V91.5045L220.817 145.477V114.89L127.333 60.9167Z" fill="#453C9E"></path> <path d="M193.524 113.265L176.6 103.485V105.51L193.524 115.278V113.265Z" fill="#42E8E0"></path> <path d="M174.151 102.097L169.573 99.4485V101.473L174.151 104.121V102.097Z" fill="#42E8E0"></path> <path d="M152.672 89.6918L143.28 84.2781V86.2906L152.672 91.7161V89.6918Z" fill="#42E8E0"></path> <path d="M161.229 94.6349L154.45 90.7158V92.7401L161.229 96.6592V94.6349Z" fill="#42E8E0"></path> <path d="M167.596 98.3187L163.006 95.6707V97.6832L167.596 100.331V98.3187Z" fill="#42E8E0"></path> <path d="M220.911 35.1423L217.945 33.4358L220.911 31.7175L223.877 33.4358L220.911 35.1423Z" fill="#42E8E0"></path> <path opacity="0.1" d="M226.855 38.5789L223.877 36.8606L226.855 35.1423L229.82 36.8606L226.855 38.5789Z" fill="#42E8E0"></path> <path opacity="0.4" d="M232.787 42.0039L229.821 40.2856L232.787 38.5791L235.753 40.2856L232.787 42.0039Z" fill="#42E8E0"></path> <path d="M238.73 45.4285L235.752 43.7219L238.73 42.0037L241.696 43.7219L238.73 45.4285Z" fill="#42E8E0"></path> <path opacity="0.4" d="M244.662 48.865L241.696 47.1468L244.662 45.4285L247.628 47.1468L244.662 48.865Z" fill="#42E8E0"></path> <path d="M250.605 52.2898L247.627 50.5715L250.605 48.865L253.571 50.5715L250.605 52.2898Z" fill="#42E8E0"></path> <path d="M256.537 55.7146L253.571 53.9963L256.537 52.2898L259.503 53.9963L256.537 55.7146Z" fill="#42E8E0"></path> <path d="M262.469 59.1394L259.503 57.4329L262.469 55.7146L265.446 57.4329L262.469 59.1394Z" fill="#42E8E0"></path> <path opacity="0.1" d="M268.412 62.576L265.446 60.8577L268.412 59.1394L271.378 60.8577L268.412 62.576Z" fill="#42E8E0"></path> <path d="M214.956 38.5908L211.978 36.8725L214.956 35.166L217.922 36.8725L214.956 38.5908Z" fill="#42E8E0"></path> <path d="M220.888 42.0156L217.922 40.3091L220.888 38.5908L223.854 40.3091L220.888 42.0156Z" fill="#42E8E0"></path> <path d="M226.831 45.4522L223.854 43.7339L226.831 42.0156L229.797 43.7339L226.831 45.4522Z" fill="#42E8E0"></path> <path opacity="0.8" d="M232.763 48.8769L229.797 47.1587L232.763 45.4521L235.729 47.1587L232.763 48.8769Z" fill="#FF2C9C"></path> <path d="M238.694 52.3017L235.729 50.5835L238.694 48.877L241.672 50.5835L238.694 52.3017Z" fill="#42E8E0"></path> <path d="M244.638 55.7265L241.672 54.02L244.638 52.3018L247.604 54.02L244.638 55.7265Z" fill="#42E8E0"></path> <path opacity="0.8" d="M250.57 59.1631L247.604 57.4448L250.57 55.7266L253.548 57.4448L250.57 59.1631Z" fill="url(#paint10_radial)"></path> <path d="M256.513 62.5879L253.547 60.8696L256.513 59.1631L259.479 60.8696L256.513 62.5879Z" fill="#42E8E0"></path> <path opacity="0.8" d="M262.445 66.0127L259.479 64.2944L262.445 62.5879L265.423 64.2944L262.445 66.0127Z" fill="#FF2C9C"></path> <path d="M208.989 42.0273L206.023 40.3208L208.989 38.6025L211.955 40.3208L208.989 42.0273Z" fill="#42E8E0"></path> <path opacity="0.8" d="M214.932 45.4639L211.955 43.7456L214.932 42.0273L217.898 43.7456L214.932 45.4639Z" fill="#FF2C9C"></path> <path d="M220.864 48.8887L217.898 47.1704L220.864 45.4639L223.83 47.1704L220.864 48.8887Z" fill="#42E8E0"></path> <path opacity="0.1" d="M226.808 52.3135L223.83 50.5952L226.808 48.8887L229.774 50.6069L226.808 52.3135Z" fill="#42E8E0"></path> <path opacity="0.4" d="M232.739 55.7383L229.773 54.0318L232.739 52.3135L235.705 54.0318L232.739 55.7383Z" fill="#42E8E0"></path> <path opacity="0.4" d="M238.671 59.1748L235.705 57.4566L238.671 55.7383L241.649 57.4566L238.671 59.1748Z" fill="#42E8E0"></path> <path d="M244.615 62.5996L241.649 60.8813L244.615 59.1748L247.581 60.8813L244.615 62.5996Z" fill="#42E8E0"></path> <path d="M250.546 66.0244L247.581 64.3179L250.546 62.5996L253.524 64.3179L250.546 66.0244Z" fill="#42E8E0"></path> <path d="M256.49 69.4492L253.524 67.7427L256.49 66.0244L259.456 67.7427L256.49 69.4492Z" fill="#42E8E0"></path> <path opacity="0.4" d="M203.033 45.4756L200.056 43.7573L203.033 42.0508L205.999 43.7573L203.033 45.4756Z" fill="#42E8E0"></path> <path opacity="0.4" d="M208.965 48.9004L206 47.1821L208.965 45.4756L211.931 47.1821L208.965 48.9004Z" fill="#42E8E0"></path> <path opacity="0.1" d="M214.897 52.3252L211.931 50.6187L214.897 48.9004L217.875 50.6187L214.897 52.3252Z" fill="#42E8E0"></path> <path d="M220.84 55.7618L217.875 54.0435L220.84 52.3252L223.806 54.0435L220.84 55.7618Z" fill="#42E8E0"></path> <path d="M226.784 59.1865L223.807 57.4682L226.784 55.7617L229.75 57.4682L226.784 59.1865Z" fill="#42E8E0"></path> <path opacity="0.8" d="M232.716 62.6113L229.75 60.893L232.716 59.1865L235.682 60.893L232.716 62.6113Z" fill="#FF2C9C"></path> <path opacity="0.4" d="M238.648 66.0361L235.682 64.3296L238.648 62.6113L241.625 64.3296L238.648 66.0361Z" fill="#42E8E0"></path> <path d="M244.591 69.4727L241.625 67.7544L244.591 66.0361L247.557 67.7544L244.591 69.4727Z" fill="#42E8E0"></path> <path d="M250.523 72.8975L247.557 71.1792L250.523 69.4727L253.501 71.1792L250.523 72.8975Z" fill="#42E8E0"></path> <path opacity="0.8" d="M197.066 48.9123L194.101 47.2058L197.066 45.4875L200.032 47.2058L197.066 48.9123Z" fill="#FF2C9C"></path> <path d="M203.01 52.3487L200.032 50.6304L203.01 48.9121L205.976 50.6304L203.01 52.3487Z" fill="#42E8E0"></path> <path d="M208.941 55.7737L205.976 54.0554L208.941 52.3489L211.907 54.0554L208.941 55.7737Z" fill="#42E8E0"></path> <path d="M214.873 59.1985L211.907 57.4802L214.873 55.7737L217.851 57.4802L214.873 59.1985Z" fill="#42E8E0"></path> <path opacity="0.8" d="M220.817 62.6233L217.851 60.9168L220.817 59.1985L223.783 60.9168L220.817 62.6233Z" fill="#FF2C9C"></path> <path opacity="0.8" d="M226.749 66.0596L223.783 64.3413L226.749 62.623L229.726 64.3413L226.749 66.0596Z" fill="#FF2C9C"></path> <path d="M232.692 69.4846L229.727 67.7663L232.692 66.0598L235.658 67.7663L232.692 69.4846Z" fill="#42E8E0"></path> <path d="M238.624 72.9094L235.658 71.1911L238.624 69.4846L241.602 71.1911L238.624 72.9094Z" fill="#42E8E0"></path> <path d="M244.567 76.334L241.602 74.6275L244.567 72.9092L247.533 74.6275L244.567 76.334Z" fill="#42E8E0"></path> <path d="M191.111 52.3606L188.133 50.6423L191.111 48.9358L194.077 50.6423L191.111 52.3606Z" fill="#42E8E0"></path> <path d="M197.043 55.7854L194.077 54.0671L197.043 52.3606L200.008 54.0671L197.043 55.7854Z" fill="#42E8E0"></path> <path opacity="0.4" d="M202.986 59.2102L200.009 57.5037L202.986 55.7854L205.952 57.5037L202.986 59.2102Z" fill="#42E8E0"></path> <path opacity="0.8" d="M208.918 62.6465L205.952 60.9282L208.918 59.21L211.884 60.9282L208.918 62.6465Z" fill="#FF2C9C"></path> <path opacity="0.1" d="M214.861 66.0715L211.884 64.3532L214.861 62.6467L217.827 64.3532L214.861 66.0715Z" fill="#42E8E0"></path> <path d="M220.794 69.4963L217.828 67.778L220.794 66.0715L223.759 67.778L220.794 69.4963Z" fill="#42E8E0"></path> <path d="M226.725 72.9211L223.759 71.2146L226.725 69.4963L229.703 71.2146L226.725 72.9211Z" fill="#42E8E0"></path> <path opacity="0.8" d="M232.669 76.3575L229.703 74.6392L232.669 72.9209L235.635 74.6392L232.669 76.3575Z" fill="#FF2C9C"></path> <path d="M238.6 79.7825L235.634 78.0642L238.6 76.3577L241.578 78.0642L238.6 79.7825Z" fill="#42E8E0"></path> <path d="M185.144 55.7971L182.178 54.0788L185.144 52.3723L188.11 54.0788L185.144 55.7971Z" fill="#42E8E0"></path> <path d="M191.076 59.2219L188.11 57.5154L191.076 55.7971L194.053 57.5154L191.076 59.2219Z" fill="#42E8E0"></path> <path opacity="0.4" d="M197.019 62.6585L194.053 60.9402L197.019 59.2219L199.985 60.9402L197.019 62.6585Z" fill="#42E8E0"></path> <path d="M202.951 66.0832L199.985 64.365L202.951 62.6584L205.929 64.365L202.951 66.0832Z" fill="#42E8E0"></path> <path d="M208.895 69.508L205.929 67.7898L208.895 66.0833L211.861 67.7898L208.895 69.508Z" fill="#42E8E0"></path> <path opacity="0.1" d="M214.826 72.9328L211.86 71.2263L214.826 69.5081L217.804 71.2263L214.826 72.9328Z" fill="#42E8E0"></path> <path opacity="0.4" d="M220.77 76.3694L217.804 74.6511L220.77 72.9329L223.735 74.6511L220.77 76.3694Z" fill="#42E8E0"></path> <path d="M226.702 79.7942L223.736 78.0759L226.702 76.3694L229.679 78.0759L226.702 79.7942Z" fill="#42E8E0"></path> <path opacity="0.1" d="M232.645 83.219L229.679 81.5125L232.645 79.7942L235.611 81.5125L232.645 83.219Z" fill="#42E8E0"></path> <path d="M179.189 59.2454L176.211 57.5271L179.189 55.8088L182.154 57.5271L179.189 59.2454Z" fill="#42E8E0"></path> <path opacity="0.4" d="M185.121 62.6701L182.155 60.9519L185.121 59.2454L188.087 60.9519L185.121 62.6701Z" fill="#42E8E0"></path> <path d="M191.064 66.095L188.086 64.3767L191.064 62.6702L194.03 64.3767L191.064 66.095Z" fill="#42E8E0"></path> <path d="M196.996 69.5197L194.03 67.8132L196.996 66.095L199.962 67.8132L196.996 69.5197Z" fill="#42E8E0"></path> <path d="M202.927 72.9563L199.961 71.238L202.927 69.5198L205.905 71.238L202.927 72.9563Z" fill="#42E8E0"></path> <path d="M208.871 76.3811L205.905 74.6628L208.871 72.9563L211.837 74.6628L208.871 76.3811Z" fill="#42E8E0"></path> <path d="M214.803 79.8059L211.837 78.0994L214.803 76.3811L217.78 78.0994L214.803 79.8059Z" fill="#42E8E0"></path> <path opacity="0.4" d="M220.746 83.2307L217.78 81.5242L220.746 79.8059L223.712 81.5242L220.746 83.2307Z" fill="#42E8E0"></path> <path d="M226.678 86.6673L223.712 84.949L226.678 83.2307L229.656 84.949L226.678 86.6673Z" fill="#42E8E0"></path> <path d="M173.222 62.6819L170.256 60.9636L173.222 59.2571L176.188 60.9636L173.222 62.6819Z" fill="#42E8E0"></path> <path opacity="0.1" d="M179.153 66.1067L176.188 64.4002L179.153 62.6819L182.131 64.4002L179.153 66.1067Z" fill="#42E8E0"></path> <path opacity="0.8" d="M185.097 69.5432L182.131 67.825L185.097 66.1067L188.063 67.825L185.097 69.5432Z" fill="#FF2C9C"></path> <path d="M191.028 72.968L188.062 71.2497L191.028 69.5432L194.006 71.2497L191.028 72.968Z" fill="#42E8E0"></path> <path d="M196.972 76.3928L194.006 74.6745L196.972 72.968L199.938 74.6745L196.972 76.3928Z" fill="#42E8E0"></path> <path d="M202.904 79.8176L199.938 78.1111L202.904 76.3928L205.882 78.1111L202.904 79.8176Z" fill="#42E8E0"></path> <path opacity="0.4" d="M208.847 83.2424L205.881 81.5359L208.847 79.8176L211.813 81.5359L208.847 83.2424Z" fill="#42E8E0"></path> <path opacity="0.8" d="M214.779 86.679L211.813 84.9607L214.779 83.2424L217.757 84.9607L214.779 86.679Z" fill="#FF2C9C"></path> <path d="M220.723 90.1037L217.757 88.3855L220.723 86.679L223.689 88.3855L220.723 90.1037Z" fill="#42E8E0"></path> <g style="mix-blend-mode:lighten"> <g style="mix-blend-mode:lighten"> <path d="M321.457 279.55C319.843 279.565 318.253 279.159 316.843 278.373L263.728 247.703C263.322 247.47 262.985 247.134 262.751 246.729C262.516 246.324 262.393 245.864 262.393 245.396C262.393 244.928 262.516 244.469 262.751 244.064C262.985 243.659 263.322 243.323 263.728 243.09L359.837 187.599C359.917 187.552 360.009 187.528 360.102 187.528C360.195 187.528 360.286 187.552 360.366 187.599L417.813 220.74C418.216 220.974 418.55 221.31 418.783 221.713C419.016 222.117 419.138 222.575 419.138 223.041C419.138 223.507 419.016 223.965 418.783 224.369C418.55 224.772 418.216 225.108 417.813 225.342L326.012 278.303C324.627 279.105 323.058 279.535 321.457 279.55ZM360.143 188.611L264.281 243.925C264.036 244.064 263.832 244.266 263.692 244.51C263.551 244.755 263.478 245.032 263.481 245.314C263.477 245.598 263.55 245.877 263.69 246.123C263.831 246.37 264.035 246.574 264.281 246.714L317.408 277.385C318.656 278.085 320.062 278.452 321.492 278.452C322.923 278.452 324.329 278.085 325.576 277.385L417.377 224.424C417.625 224.284 417.831 224.08 417.973 223.834C418.116 223.588 418.191 223.308 418.189 223.023C418.19 222.741 418.115 222.463 417.972 222.219C417.829 221.974 417.624 221.773 417.377 221.635L360.143 188.611Z" fill="#42E8E0"></path> </g> </g> <path d="M360.225 166.12L347.432 90.2685L348.467 89.8331L346.914 88.9504C346.728 88.8593 346.521 88.819 346.314 88.8334C346.108 88.8479 345.909 88.9167 345.737 89.0328L243.567 148.019C243.132 148.293 242.779 148.679 242.545 149.137C242.311 149.595 242.205 150.107 242.237 150.62L255.125 227.119C255.141 227.284 255.199 227.442 255.294 227.578C255.388 227.714 255.517 227.824 255.666 227.896V227.896L257.173 228.766L257.431 227.354H257.349L358.907 168.721C359.337 168.443 359.686 168.055 359.917 167.598C360.149 167.142 360.255 166.631 360.225 166.12Z" fill="url(#paint11_linear)"></path> <path d="M244.12 150.102L242.437 149.361C242.246 149.755 242.172 150.197 242.226 150.632L255.113 227.131C255.129 227.296 255.187 227.454 255.282 227.59C255.377 227.726 255.505 227.835 255.654 227.907V227.907L257.161 228.778L257.42 227.366H257.337L262.469 224.4L244.12 150.102Z" fill="url(#paint12_linear)"></path> <path d="M360.495 169.627L258.314 228.625C257.525 229.084 256.854 228.814 256.713 228.002L243.767 151.503C243.739 150.991 243.848 150.48 244.081 150.023C244.315 149.566 244.665 149.18 245.097 148.902L347.278 89.9155C348.067 89.4566 348.738 89.7155 348.879 90.5393L361.767 167.038C361.799 167.543 361.699 168.048 361.476 168.502C361.253 168.956 360.915 169.344 360.495 169.627V169.627Z" fill="#24126A"></path> <g opacity="0.51"> <path opacity="0.51" d="M345.996 94.835L247.51 151.703L259.715 223.706L358.142 166.885L345.996 94.835Z" fill="#453C9E"></path> </g> <path d="M424.721 205.829L419.154 208.736L363.238 176.453C362.659 176.194 362.029 176.073 361.395 176.099C360.762 176.126 360.144 176.299 359.589 176.606L263.151 232.286C262.221 231.768 258.02 229.744 258.02 229.744L260.056 235.063C260.161 235.334 260.362 235.556 260.621 235.687L319.467 269.688C320.045 269.95 320.676 270.072 321.31 270.046C321.944 270.019 322.562 269.844 323.116 269.535L421.802 212.561C422.174 212.377 422.469 212.069 422.638 211.69V211.69L424.721 205.829Z" fill="url(#paint13_linear)"></path> <path d="M423.862 206.747L322.728 265.133C322.16 265.451 321.525 265.63 320.875 265.657C320.225 265.683 319.577 265.556 318.985 265.286L258.632 230.45C257.667 229.897 257.796 228.931 258.903 228.284L360.037 169.898C360.605 169.58 361.24 169.401 361.89 169.374C362.54 169.348 363.188 169.475 363.78 169.745L424.133 204.581C425.098 205.134 424.969 206.1 423.862 206.747Z" fill="#D0EBFF"></path> <path d="M423.862 206.158L322.728 264.556C322.159 264.871 321.524 265.049 320.875 265.076C320.225 265.102 319.578 264.977 318.985 264.709L258.632 229.861C258.36 229.729 258.149 229.497 258.044 229.214C257.972 229.456 257.992 229.716 258.101 229.944C258.21 230.173 258.399 230.352 258.632 230.45L318.95 265.286C319.542 265.556 320.189 265.683 320.84 265.656C321.49 265.63 322.125 265.451 322.693 265.133L423.827 206.747C424.58 206.311 424.863 205.735 424.686 205.24C424.532 205.636 424.239 205.962 423.862 206.158Z" fill="white"></path> <path d="M292.222 252.505V251.399C292.222 251.293 292.281 251.246 292.363 251.293L296.27 253.54C296.314 253.573 296.35 253.616 296.374 253.665C296.399 253.714 296.412 253.768 296.412 253.823V254.929C296.412 255.035 296.412 255.082 296.27 255.035L292.363 252.776C292.319 252.745 292.284 252.705 292.259 252.658C292.234 252.61 292.222 252.558 292.222 252.505V252.505Z" fill="#2842A2"></path> <path d="M298.071 255.882V254.776C298.071 254.67 298.13 254.623 298.213 254.67L302.12 256.918C302.164 256.951 302.199 256.994 302.224 257.043C302.248 257.092 302.261 257.146 302.261 257.2V258.307C302.261 258.413 302.202 258.46 302.12 258.413L298.213 256.153C298.169 256.123 298.133 256.082 298.109 256.035C298.084 255.988 298.071 255.935 298.071 255.882Z" fill="#2842A2"></path> <path d="M274.368 227.143L358.413 178.619C358.688 178.46 359.001 178.376 359.319 178.376C359.637 178.376 359.95 178.46 360.225 178.619L390.155 195.931C390.252 195.988 390.334 196.07 390.39 196.168C390.446 196.266 390.476 196.377 390.476 196.49C390.476 196.603 390.446 196.714 390.39 196.812C390.334 196.91 390.252 196.992 390.155 197.049L306.145 245.549C305.868 245.705 305.556 245.787 305.239 245.787C304.921 245.787 304.609 245.705 304.333 245.549L274.368 228.319C274.255 228.268 274.16 228.185 274.093 228.081C274.026 227.976 273.99 227.855 273.99 227.731C273.99 227.607 274.026 227.486 274.093 227.381C274.16 227.277 274.255 227.194 274.368 227.143V227.143Z" fill="#ADB1F2"></path> <path d="M274.368 228.319L274.662 228.496L358.413 180.149C358.688 179.99 359.001 179.906 359.319 179.906C359.637 179.906 359.95 179.99 360.225 180.149L389.849 197.296L390.155 197.12C390.252 197.063 390.334 196.981 390.39 196.883C390.446 196.785 390.476 196.674 390.476 196.561C390.476 196.448 390.446 196.336 390.39 196.238C390.334 196.14 390.252 196.059 390.155 196.002L360.225 178.689C359.95 178.53 359.637 178.447 359.319 178.447C359.001 178.447 358.688 178.53 358.413 178.689L274.368 227.143C274.255 227.194 274.16 227.277 274.093 227.381C274.026 227.486 273.99 227.607 273.99 227.731C273.99 227.855 274.026 227.976 274.093 228.081C274.16 228.185 274.255 228.268 274.368 228.319V228.319Z" fill="#9198DB"></path> <path d="M362.485 183.044L289.479 225.189L286.231 223.317L359.236 181.173L362.485 183.044Z" fill="#24126A"></path> <path d="M370.441 187.646L301.967 227.178L298.718 225.306L367.192 185.762L370.441 187.646Z" fill="#24126A"></path> <path d="M375.619 190.635L294.999 237.182L291.751 235.31L372.371 188.764L375.619 190.635Z" fill="#24126A"></path> <path d="M380.809 193.624L300.178 240.171L296.929 238.299L377.561 191.753L380.809 193.624Z" fill="#24126A"></path> <path d="M385.988 196.613L305.368 243.172L302.12 241.289L382.74 194.742L385.988 196.613Z" fill="#24126A"></path> <path d="M285.066 227.743L281.818 229.614L278.569 227.743L281.818 225.871L285.066 227.743Z" fill="#24126A"></path> <path d="M296.518 230.32L289.774 234.216L286.525 232.333L293.269 228.449L296.518 230.32Z" fill="#24126A"></path> <path d="M361.649 238.912L384.305 225.824C385.2 225.318 385.2 224.494 384.305 223.977L368.817 215.032C368.319 214.778 367.769 214.646 367.21 214.646C366.652 214.646 366.101 214.778 365.604 215.032L342.948 228.119C342.755 228.185 342.588 228.31 342.47 228.476C342.352 228.641 342.288 228.84 342.288 229.043C342.288 229.247 342.352 229.445 342.47 229.611C342.588 229.776 342.755 229.901 342.948 229.967L358.436 238.912C358.933 239.166 359.484 239.298 360.043 239.298C360.601 239.298 361.152 239.166 361.649 238.912Z" fill="url(#paint14_linear)"></path> <path d="M342.948 228.884L365.604 215.797C366.101 215.543 366.652 215.411 367.21 215.411C367.769 215.411 368.319 215.543 368.817 215.797L384.305 224.789C384.544 224.908 384.74 225.097 384.87 225.33C385.106 224.883 384.929 224.377 384.305 224.024L368.817 215.079C368.319 214.825 367.769 214.693 367.21 214.693C366.652 214.693 366.101 214.825 365.604 215.079L342.948 228.166C342.336 228.519 342.147 229.014 342.383 229.461C342.51 229.218 342.707 229.017 342.948 228.884Z" fill="#9198DB"></path> <g opacity="0.11"> <g opacity="0.11"> <path opacity="0.11" d="M360.143 169.78L258.997 228.166C258.428 228.481 257.793 228.659 257.143 228.686C256.494 228.712 255.847 228.587 255.254 228.319L194.901 193.483C193.947 192.918 194.065 191.953 195.171 191.317L296.317 132.99C296.882 132.671 297.515 132.489 298.163 132.461C298.811 132.432 299.457 132.557 300.048 132.825L360.401 167.673C361.319 168.168 361.249 169.133 360.143 169.78Z" fill="url(#paint15_linear)"></path> <path opacity="0.11" d="M258.702 180.243L281.358 167.12C281.551 167.054 281.718 166.93 281.836 166.764C281.954 166.598 282.018 166.4 282.018 166.196C282.018 165.993 281.954 165.794 281.836 165.629C281.718 165.463 281.551 165.339 281.358 165.272L265.858 156.328C265.362 156.076 264.814 155.944 264.258 155.944C263.701 155.944 263.153 156.076 262.657 156.328L239.989 169.474C239.797 169.54 239.63 169.665 239.511 169.83C239.393 169.996 239.33 170.194 239.33 170.398C239.33 170.601 239.393 170.8 239.511 170.965C239.63 171.131 239.797 171.256 239.989 171.322L255.489 180.266C255.989 180.517 256.54 180.645 257.099 180.641C257.657 180.637 258.207 180.5 258.702 180.243V180.243Z" fill="url(#paint16_linear)"></path> <path opacity="0.11" d="M239.989 170.204L262.657 157.117C263.153 156.864 263.701 156.733 264.257 156.733C264.814 156.733 265.362 156.864 265.858 157.117L281.358 166.061C281.592 166.188 281.784 166.38 281.911 166.614C282.147 166.167 281.97 165.661 281.358 165.308L265.858 156.363C265.362 156.111 264.814 155.98 264.257 155.98C263.701 155.98 263.153 156.111 262.657 156.363L239.989 169.474C239.377 169.827 239.2 170.321 239.436 170.769C239.56 170.53 239.753 170.333 239.989 170.204V170.204Z" fill="#9198DB"></path> <path opacity="0.11" d="M230.032 200.686L314.077 152.162C314.353 152.003 314.665 151.919 314.983 151.919C315.302 151.919 315.614 152.003 315.89 152.162L345.819 169.474C345.932 169.526 346.027 169.609 346.094 169.713C346.161 169.817 346.197 169.939 346.197 170.062C346.197 170.186 346.161 170.308 346.094 170.412C346.027 170.516 345.932 170.599 345.819 170.651L261.809 219.151C261.533 219.307 261.221 219.389 260.903 219.389C260.586 219.389 260.274 219.307 259.997 219.151L230.032 201.851C229.923 201.798 229.83 201.715 229.766 201.612C229.701 201.509 229.667 201.39 229.667 201.268C229.667 201.146 229.701 201.027 229.766 200.924C229.83 200.821 229.923 200.739 230.032 200.686V200.686Z" fill="#ADB1F2"></path> <path opacity="0.11" d="M230.032 201.803L230.327 201.98L314.077 153.633C314.352 153.471 314.665 153.386 314.984 153.386C315.302 153.386 315.615 153.471 315.89 153.633L345.513 170.769L345.819 170.604C345.932 170.552 346.027 170.469 346.094 170.365C346.161 170.261 346.197 170.139 346.197 170.015C346.197 169.891 346.161 169.77 346.094 169.666C346.027 169.561 345.932 169.479 345.819 169.427L315.89 152.173C315.614 152.014 315.302 151.931 314.984 151.931C314.665 151.931 314.353 152.014 314.077 152.173L230.032 200.697C229.937 200.755 229.859 200.836 229.804 200.933C229.75 201.03 229.721 201.139 229.721 201.25C229.721 201.362 229.75 201.471 229.804 201.568C229.859 201.665 229.937 201.746 230.032 201.803Z" fill="#9198DB"></path> <path opacity="0.11" d="M337.981 168.297L264.764 210.571L267.671 212.254L340.888 169.98L337.981 168.297Z" fill="#24126A"></path> <path opacity="0.11" d="M330.272 163.848L260.68 204.028L263.575 205.699L333.167 165.52L330.272 163.848Z" fill="#24126A"></path> <path opacity="0.11" d="M255.478 207.029L248.981 210.783L251.876 212.455L258.385 208.7L255.478 207.029Z" fill="#24126A"></path> <path opacity="0.11" d="M261.221 212.619L256.69 215.232L259.597 216.915L264.116 214.302L261.221 212.619Z" fill="#24126A"></path> <path opacity="0.11" d="M325.435 161.059L244.144 207.994L247.051 209.665L328.342 162.731L325.435 161.059Z" fill="#24126A"></path> <path opacity="0.11" d="M320.598 158.27L239.307 205.193L242.214 206.876L323.505 159.941L320.598 158.27Z" fill="#24126A"></path> <path opacity="0.11" d="M315.772 155.481L234.481 202.404L237.376 204.087L318.667 157.152L315.772 155.481Z" fill="#24126A"></path> </g> </g> <path d="M284.595 196.249L292.563 191.647L292.798 193.036L284.831 197.637L284.595 196.249Z" fill="#42E8E0"></path> <path d="M293.846 190.917L298.189 188.399L298.424 189.788L294.081 192.294L293.846 190.917Z" fill="#42E8E0"></path> <path d="M304.944 184.503L308.087 182.691L308.31 184.068L305.18 185.892L304.944 184.503Z" fill="#42E8E0"></path> <path d="M302.649 185.833L303.72 185.209L303.956 186.586L302.885 187.21L302.649 185.833Z" fill="#42E8E0"></path> <path d="M299.483 187.657L301.437 186.528L301.661 187.916L299.719 189.046L299.483 187.657Z" fill="#42E8E0"></path> <path d="M290.892 185.668L294.034 183.856L294.269 185.233L291.127 187.057L290.892 185.668Z" fill="#42E8E0"></path> <path d="M283.524 189.929L289.679 186.375L289.915 187.751L283.759 191.318L283.524 189.929Z" fill="#42E8E0"></path> <path d="M292.351 167.509L298.506 163.955L298.742 165.332L292.586 168.886L292.351 167.509Z" fill="#42E8E0"></path> <path d="M289.185 169.333L291.127 168.215L291.362 169.592L289.42 170.722L289.185 169.333Z" fill="#42E8E0"></path> <path d="M293.375 173.84L299.53 170.274L299.766 171.663L293.61 175.217L293.375 173.84Z" fill="#42E8E0"></path> <path d="M290.209 175.665L292.163 174.535L292.398 175.924L290.444 177.053L290.209 175.665Z" fill="#42E8E0"></path> <path d="M287.808 140.193L276.215 146.89L275.98 145.513L287.573 138.804L287.808 140.193Z" fill="#42E8E0"></path> <path d="M291.892 137.827L289.021 139.487L288.785 138.098L291.657 136.438L291.892 137.827Z" fill="#42E8E0"></path> <path d="M312.265 136.486L300.672 143.182L300.437 141.805L312.041 135.097L312.265 136.486Z" fill="#42E8E0"></path> <path d="M316.361 134.12L313.489 135.779L313.253 134.391L316.125 132.731L316.361 134.12Z" fill="#42E8E0"></path> <path d="M279.888 148.231L276.745 150.055L276.51 148.666L279.652 146.854L279.888 148.231Z" fill="#42E8E0"></path> <path d="M299.001 144.136L295.858 145.948L295.623 144.571L298.765 142.747L299.001 144.136Z" fill="#42E8E0"></path> <path d="M287.255 143.971L281.1 147.537L280.876 146.148L287.031 142.594L287.255 143.971Z" fill="#42E8E0"></path> <path d="M290.421 142.147L288.479 143.265L288.244 141.888L290.186 140.758L290.421 142.147Z" fill="#42E8E0"></path> <path d="M297.86 137.863L291.704 141.417L291.469 140.028L297.624 136.474L297.86 137.863Z" fill="#42E8E0"></path> <path d="M301.025 136.027L299.071 137.156L298.836 135.768L300.79 134.65L301.025 136.027Z" fill="#42E8E0"></path> <path d="M298.459 140.97L295.329 142.794L295.093 141.405L298.236 139.593L298.459 140.97Z" fill="#42E8E0"></path> <path d="M305.839 136.709L299.684 140.275L299.448 138.887L305.604 135.332L305.839 136.709Z" fill="#42E8E0"></path> <path d="M309.004 134.885L307.051 136.003L306.815 134.626L308.769 133.496L309.004 134.885Z" fill="#42E8E0"></path> <path d="M283.712 149.502L277.274 153.209L277.051 151.832L283.477 148.113L283.712 149.502Z" fill="#42E8E0"></path> <path d="M289.574 146.101L284.925 148.796L284.689 147.407L289.338 144.724L289.574 146.101Z" fill="#42E8E0"></path> <path d="M293.928 143.582L290.786 145.406L290.55 144.018L293.693 142.205L293.928 143.582Z" fill="#42E8E0"></path> <path d="M324.399 129.483L317.973 133.202L317.738 131.813L324.164 128.106L324.399 129.483Z" fill="#42E8E0"></path> <path d="M330.26 126.094L325.611 128.777L325.376 127.4L330.025 124.717L330.26 126.094Z" fill="#42E8E0"></path> <path d="M334.627 123.575L331.484 125.387L331.249 124.01L334.391 122.198L334.627 123.575Z" fill="#42E8E0"></path> <path d="M321.892 171.251L328.318 167.532L328.554 168.921L322.116 172.628L321.892 171.251Z" fill="#42E8E0"></path> <path d="M316.02 174.641L320.668 171.958L320.904 173.334L316.255 176.018L316.02 174.641Z" fill="#42E8E0"></path> <path d="M311.665 177.159L314.807 175.347L315.042 176.724L311.9 178.548L311.665 177.159Z" fill="#42E8E0"></path> <path d="M319.75 175.959L326.176 172.252L326.411 173.629L319.985 177.348L319.75 175.959Z" fill="#42E8E0"></path> <path d="M313.889 179.36L318.538 176.665L318.773 178.054L314.125 180.737L313.889 179.36Z" fill="#42E8E0"></path> <path d="M309.534 181.879L312.677 180.054L312.9 181.443L309.758 183.256L309.534 181.879Z" fill="#42E8E0"></path> <path d="M293.799 170.122L295.976 168.862L296.212 170.251L294.034 171.499L293.799 170.122Z" fill="#42E8E0"></path> <path d="M289.715 172.487L292.587 170.828L292.81 172.205L289.95 173.864L289.715 172.487Z" fill="#42E8E0"></path> <path d="M284.277 152.633L277.851 156.352L277.616 154.975L284.042 151.256L284.277 152.633Z" fill="#42E8E0"></path> <path d="M290.15 149.243L285.501 151.938L285.266 150.55L289.915 147.866L290.15 149.243Z" fill="#42E8E0"></path> <path d="M294.505 146.725L291.362 148.549L291.127 147.16L294.269 145.348L294.505 146.725Z" fill="#42E8E0"></path> <path d="M280.558 158.258L278.393 159.518L278.157 158.129L280.323 156.87L280.558 158.258Z" fill="#42E8E0"></path> <path d="M284.642 155.893L281.77 157.552L281.547 156.175L284.407 154.516L284.642 155.893Z" fill="#42E8E0"></path> <path d="M290.48 152.527L285.866 155.198L285.631 153.81L290.256 151.138L290.48 152.527Z" fill="#42E8E0"></path> <path d="M296.753 178.831L298.93 177.583L299.154 178.96L296.988 180.219L296.753 178.831Z" fill="#42E8E0"></path> <path d="M292.669 181.196L295.541 179.537L295.776 180.926L292.904 182.585L292.669 181.196Z" fill="#42E8E0"></path> <path d="M286.832 184.574L291.445 181.902L291.68 183.279L287.067 185.951L286.832 184.574Z" fill="#42E8E0"></path> <path d="M300.06 173.699L304.685 171.028L304.921 172.416L300.295 175.088L300.06 173.699Z" fill="#42E8E0"></path> <path d="M292.504 177.818L298.73 174.217L298.965 175.606L292.728 179.207L292.504 177.818Z" fill="#42E8E0"></path> <path d="M289.338 179.654L291.28 178.524L291.516 179.913L289.562 181.043L289.338 179.654Z" fill="#42E8E0"></path> <path d="M286.29 181.408L288.244 180.29L288.479 181.667L286.525 182.797L286.29 181.408Z" fill="#42E8E0"></path> <path d="M286.713 163.554L292.869 159.988L293.104 161.377L286.949 164.931L286.713 163.554Z" fill="#42E8E0"></path> <path d="M283.548 165.379L285.49 164.249L285.725 165.638L283.783 166.767L283.548 165.379Z" fill="#42E8E0"></path> <path d="M287.137 159.835L289.303 158.576L289.538 159.965L287.373 161.224L287.137 159.835Z" fill="#42E8E0"></path> <path d="M294.799 162.366L296.965 161.118L297.2 162.495L295.035 163.754L294.799 162.366Z" fill="#42E8E0"></path> <path d="M297.895 160.577L303.108 157.576L303.332 158.953L298.13 161.966L297.895 160.577Z" fill="#42E8E0"></path> <path d="M304.026 157.046L307.122 155.245L307.357 156.634L304.262 158.423L304.026 157.046Z" fill="#42E8E0"></path> <path d="M283.054 162.201L285.914 160.542L286.149 161.918L283.277 163.578L283.054 162.201Z" fill="#42E8E0"></path> <path d="M282.783 158.953L284.948 157.693L285.184 159.082L283.018 160.33L282.783 158.953Z" fill="#42E8E0"></path> <path d="M278.687 161.307L281.559 159.659L281.794 161.036L278.922 162.695L278.687 161.307Z" fill="#42E8E0"></path> <path d="M291.645 164.19L293.599 163.06L293.834 164.437L291.88 165.567L291.645 164.19Z" fill="#42E8E0"></path> <path d="M288.608 165.943L290.562 164.813L290.798 166.202L288.844 167.332L288.608 165.943Z" fill="#42E8E0"></path> <path d="M303.579 181.832L310.24 177.983L310.464 179.372L303.815 183.209L303.579 181.832Z" fill="#42E8E0"></path> <path d="M296.141 186.127L302.367 182.526L302.602 183.915L296.364 187.516L296.141 186.127Z" fill="#42E8E0"></path> <path d="M292.975 187.963L294.917 186.833L295.152 188.222L293.199 189.34L292.975 187.963Z" fill="#42E8E0"></path> <path d="M289.927 189.717L291.88 188.587L292.116 189.976L290.162 191.106L289.927 189.717Z" fill="#42E8E0"></path> <path d="M288.267 190.682L284.065 193.107L284.301 194.495L288.503 192.059L288.267 190.682Z" fill="#42E8E0"></path> <g opacity="0.8"> <path opacity="0.8" d="M120.177 279.738C118.526 279.739 116.903 279.309 115.469 278.491V278.491L23.6681 225.53C23.2356 225.28 22.8764 224.921 22.6267 224.488C22.377 224.055 22.2456 223.564 22.2456 223.065C22.2456 222.565 22.377 222.074 22.6267 221.641C22.8764 221.209 23.2356 220.849 23.6681 220.599L81.491 187.21L81.8441 187.422L177.964 242.913C178.397 243.163 178.756 243.523 179.006 243.955C179.256 244.388 179.387 244.879 179.387 245.379C179.387 245.878 179.256 246.369 179.006 246.802C178.756 247.235 178.397 247.594 177.964 247.844L124.849 278.503C123.426 279.314 121.815 279.74 120.177 279.738V279.738ZM116.187 277.255C117.404 277.944 118.778 278.306 120.177 278.306C121.575 278.306 122.95 277.944 124.167 277.255L177.294 246.585C177.508 246.458 177.686 246.277 177.81 246.06C177.933 245.844 177.998 245.599 177.998 245.349C177.998 245.1 177.933 244.855 177.81 244.638C177.686 244.421 177.508 244.24 177.294 244.113L81.5263 188.799H81.4439L24.4096 221.752C24.1919 221.877 24.011 222.057 23.8853 222.274C23.7595 222.491 23.6932 222.737 23.6932 222.988C23.6932 223.239 23.7595 223.485 23.8853 223.702C24.011 223.919 24.1919 224.099 24.4096 224.224L116.187 277.255Z" fill="url(#paint17_linear)"></path> </g> <path d="M81.4087 166.12L94.155 90.2687L93.1193 89.8333L94.6728 88.9506C94.8568 88.8519 95.0649 88.8072 95.2732 88.8218C95.4814 88.8364 95.6813 88.9096 95.8497 89.033L198.031 148.019C198.465 148.295 198.816 148.682 199.05 149.139C199.284 149.596 199.391 150.108 199.361 150.62L186.415 227.119C186.399 227.284 186.341 227.442 186.246 227.578C186.151 227.714 186.023 227.824 185.874 227.896V227.896L184.367 228.767L184.108 227.354H184.191L82.7387 168.709C82.3081 168.434 81.9582 168.049 81.7247 167.594C81.4911 167.139 81.382 166.631 81.4087 166.12V166.12Z" fill="url(#paint18_linear)"></path> <path d="M197.514 150.102L199.197 149.361C199.384 149.757 199.458 150.197 199.409 150.632L186.462 227.131C186.446 227.296 186.388 227.454 186.293 227.59C186.199 227.726 186.07 227.835 185.921 227.907L184.414 228.778L184.156 227.366H184.238L179.106 224.4L197.514 150.102Z" fill="url(#paint19_linear)"></path> <path d="M81.1381 169.627L183.32 228.625C184.108 229.084 184.779 228.814 184.92 228.002L197.808 151.503C197.835 150.991 197.727 150.48 197.493 150.023C197.26 149.566 196.909 149.18 196.478 148.902L94.2963 89.9627C93.5077 89.5037 92.8369 89.7626 92.6957 90.5864L79.7494 167.085C79.7372 167.593 79.8592 168.096 80.103 168.542C80.3468 168.989 80.7038 169.363 81.1381 169.627V169.627Z" fill="#24126A"></path> <g opacity="0.51"> <path opacity="0.51" d="M95.6382 94.835L194.124 151.703L181.908 223.706L83.4922 166.885L95.6382 94.835Z" fill="#453C9E"></path> </g> <path d="M16.9009 205.829L22.4796 208.736L78.3958 176.453C78.9741 176.194 79.6049 176.073 80.2381 176.099C80.8714 176.126 81.4897 176.299 82.0443 176.606L178.482 232.286C179.412 231.768 183.614 229.744 183.614 229.744L181.578 235.063C181.47 235.336 181.264 235.558 181.001 235.687L122.154 269.688C121.577 269.95 120.946 270.072 120.312 270.046C119.678 270.019 119.059 269.844 118.506 269.535L19.7726 212.561C19.401 212.377 19.1054 212.069 18.937 211.69L16.9009 205.829Z" fill="url(#paint20_linear)"></path> <path d="M17.7719 206.747L118.871 265.133C119.439 265.451 120.074 265.63 120.724 265.657C121.374 265.683 122.021 265.556 122.613 265.286L182.967 230.45C183.932 229.897 183.802 228.931 182.696 228.284L81.5972 169.898C81.0292 169.58 80.3943 169.401 79.7441 169.374C79.0939 169.348 78.4465 169.475 77.8545 169.745L17.5012 204.581C16.5361 205.134 16.6656 206.1 17.7719 206.747Z" fill="#D0EBFF"></path> <path d="M17.7718 206.158L118.871 264.556C119.44 264.871 120.074 265.049 120.724 265.076C121.374 265.102 122.021 264.977 122.613 264.709L182.967 229.861C183.239 229.729 183.449 229.497 183.555 229.214C183.627 229.456 183.606 229.716 183.498 229.944C183.389 230.173 183.2 230.352 182.967 230.45L122.613 265.286C122.021 265.556 121.374 265.683 120.724 265.656C120.073 265.63 119.439 265.451 118.871 265.133L17.7718 206.747C17.0186 206.311 16.7361 205.735 16.9127 205.24C17.0757 205.642 17.3818 205.969 17.7718 206.158V206.158Z" fill="white"></path> <path d="M149.471 252.505V251.399C149.471 251.293 149.471 251.246 149.33 251.293L145.422 253.54C145.379 253.573 145.343 253.616 145.319 253.665C145.294 253.714 145.281 253.768 145.281 253.823V254.929C145.281 255.035 145.281 255.082 145.422 255.035L149.33 252.776C149.374 252.745 149.409 252.705 149.434 252.658C149.458 252.61 149.471 252.558 149.471 252.505V252.505Z" fill="#2842A2"></path> <path d="M143.586 255.882V254.776C143.586 254.67 143.586 254.623 143.445 254.67L139.538 256.918C139.494 256.951 139.458 256.994 139.434 257.043C139.409 257.092 139.396 257.146 139.396 257.2V258.307C139.396 258.413 139.396 258.46 139.538 258.413L143.445 256.153C143.489 256.123 143.524 256.082 143.549 256.035C143.574 255.988 143.586 255.935 143.586 255.882Z" fill="#2842A2"></path> <path d="M167.266 227.142L83.2212 178.654C82.9456 178.495 82.6331 178.411 82.3149 178.411C81.9968 178.411 81.6842 178.495 81.4087 178.654L51.4792 195.978C51.3815 196.035 51.3005 196.117 51.2442 196.215C51.1878 196.313 51.1582 196.424 51.1582 196.537C51.1582 196.65 51.1878 196.761 51.2442 196.859C51.3005 196.957 51.3815 197.039 51.4792 197.096L135.489 245.596C135.766 245.752 136.078 245.834 136.395 245.834C136.713 245.834 137.025 245.752 137.301 245.596L167.266 228.319C167.379 228.268 167.474 228.185 167.541 228.08C167.608 227.976 167.644 227.855 167.644 227.731C167.644 227.607 167.608 227.486 167.541 227.381C167.474 227.277 167.379 227.194 167.266 227.142V227.142Z" fill="#ADB1F2"></path> <path d="M167.266 228.319L166.972 228.496L83.2212 180.125C82.9456 179.966 82.6331 179.882 82.3149 179.882C81.9968 179.882 81.6842 179.966 81.4087 180.125L51.7852 197.273L51.4792 197.096C51.3815 197.039 51.3005 196.958 51.2442 196.859C51.1878 196.761 51.1582 196.65 51.1582 196.537C51.1582 196.424 51.1878 196.313 51.2442 196.215C51.3005 196.117 51.3815 196.035 51.4792 195.978L81.4087 178.666C81.6842 178.507 81.9968 178.423 82.3149 178.423C82.6331 178.423 82.9456 178.507 83.2212 178.666L167.266 227.143C167.379 227.194 167.474 227.277 167.541 227.381C167.608 227.486 167.644 227.607 167.644 227.731C167.644 227.855 167.608 227.976 167.541 228.081C167.474 228.185 167.379 228.268 167.266 228.319V228.319Z" fill="#9198DB"></path> <path d="M86.1753 187.104L157.321 228.178L160.393 226.201L89.4472 185.245L86.1753 187.104Z" fill="#24126A"></path> <path d="M81.562 193.624L146.152 230.92L148.365 228.449L84.8103 191.753L81.562 193.624Z" fill="#24126A"></path> <path d="M66.0146 190.635L146.635 237.182L149.883 235.31L69.2512 188.764L66.0146 190.635Z" fill="#24126A"></path> <path d="M60.8242 193.624L141.456 240.171L144.693 238.299L64.0726 191.753L60.8242 193.624Z" fill="#24126A"></path> <path d="M55.6455 196.613L136.266 243.172L139.514 241.289L58.8939 194.742L55.6455 196.613Z" fill="#24126A"></path> <path d="M156.568 227.743L159.816 229.614L163.065 227.743L159.816 225.871L156.568 227.743Z" fill="#24126A"></path> <path d="M145.116 230.32L151.86 234.216L155.108 232.333L148.365 228.449L145.116 230.32Z" fill="#24126A"></path> <path d="M80.0317 238.911L57.3168 225.836C57.1243 225.77 56.9573 225.645 56.839 225.48C56.7208 225.314 56.6572 225.116 56.6572 224.912C56.6572 224.709 56.7208 224.51 56.839 224.345C56.9573 224.179 57.1243 224.054 57.3168 223.988L72.8171 215.044C73.3144 214.79 73.865 214.657 74.4236 214.657C74.9821 214.657 75.5327 214.79 76.0301 215.044L98.6861 228.131C98.8786 228.197 99.0456 228.322 99.1639 228.487C99.2821 228.653 99.3457 228.851 99.3457 229.055C99.3457 229.258 99.2821 229.457 99.1639 229.622C99.0456 229.788 98.8786 229.913 98.6861 229.979L83.1976 238.911C82.7063 239.158 82.1643 239.286 81.6147 239.286C81.065 239.286 80.523 239.158 80.0317 238.911V238.911Z" fill="url(#paint21_linear)"></path> <path d="M98.6862 228.884L76.0301 215.797C75.5327 215.543 74.9822 215.411 74.4236 215.411C73.8651 215.411 73.3145 215.543 72.8171 215.797L57.3168 224.789C57.0841 224.912 56.892 225.1 56.7637 225.33C56.5283 224.883 56.7637 224.377 57.3168 224.024L72.8171 215.079C73.3145 214.825 73.8651 214.693 74.4236 214.693C74.9822 214.693 75.5327 214.825 76.0301 215.079L98.6862 228.166C99.2982 228.519 99.4747 229.014 99.2511 229.461C99.1197 229.22 98.9242 229.021 98.6862 228.884V228.884Z" fill="#9198DB"></path> <g opacity="0.11"> <g opacity="0.11"> <path opacity="0.11" d="M81.4912 169.78L182.637 228.166C183.206 228.481 183.841 228.659 184.49 228.686C185.14 228.712 185.787 228.587 186.38 228.319L246.733 193.483C247.686 192.918 247.569 191.953 246.462 191.317L145.316 132.99C144.752 132.671 144.119 132.489 143.471 132.461C142.822 132.432 142.176 132.557 141.586 132.825L81.2087 167.615C80.2672 168.168 80.3849 169.133 81.4912 169.78Z" fill="url(#paint22_linear)"></path> <path opacity="0.11" d="M182.931 180.243L160.275 167.12C160.083 167.054 159.916 166.93 159.798 166.764C159.679 166.598 159.616 166.4 159.616 166.196C159.616 165.993 159.679 165.794 159.798 165.629C159.916 165.463 160.083 165.339 160.275 165.272L175.776 156.328C176.271 156.076 176.82 155.944 177.376 155.944C177.933 155.944 178.481 156.076 178.977 156.328L201.645 169.474C201.837 169.54 202.004 169.665 202.122 169.83C202.241 169.996 202.304 170.194 202.304 170.398C202.304 170.601 202.241 170.8 202.122 170.965C202.004 171.131 201.837 171.256 201.645 171.322L186.144 180.266C185.645 180.517 185.094 180.645 184.535 180.641C183.976 180.637 183.427 180.5 182.931 180.243Z" fill="url(#paint23_linear)"></path> <path opacity="0.11" d="M201.644 170.204L178.977 157.117C178.481 156.864 177.932 156.733 177.376 156.733C176.82 156.733 176.271 156.864 175.775 157.117L160.275 166.061C160.041 166.188 159.849 166.38 159.722 166.614C159.487 166.167 159.663 165.661 160.275 165.308L175.775 156.363C176.271 156.111 176.82 155.98 177.376 155.98C177.932 155.98 178.481 156.111 178.977 156.363L201.644 169.474C202.256 169.827 202.433 170.321 202.198 170.769C202.073 170.53 201.88 170.333 201.644 170.204V170.204Z" fill="#9198DB"></path> <path opacity="0.11" d="M211.602 200.686L127.557 152.162C127.281 152.003 126.969 151.919 126.65 151.919C126.332 151.919 126.02 152.003 125.744 152.162L95.8147 169.474C95.702 169.526 95.6065 169.609 95.5395 169.713C95.4726 169.817 95.437 169.939 95.437 170.062C95.437 170.186 95.4726 170.308 95.5395 170.412C95.6065 170.516 95.702 170.599 95.8147 170.651L179.824 219.151C180.101 219.307 180.413 219.389 180.731 219.389C181.048 219.389 181.36 219.307 181.637 219.151L211.602 201.851C211.711 201.798 211.803 201.715 211.868 201.612C211.933 201.509 211.967 201.39 211.967 201.268C211.967 201.146 211.933 201.027 211.868 200.924C211.803 200.821 211.711 200.739 211.602 200.686V200.686Z" fill="#ADB1F2"></path> <path opacity="0.11" d="M211.602 201.804L211.296 201.98L127.557 153.633C127.282 153.472 126.969 153.387 126.65 153.387C126.332 153.387 126.019 153.472 125.744 153.633L96.1207 170.769L95.8147 170.604C95.702 170.552 95.6065 170.469 95.5395 170.365C95.4726 170.261 95.437 170.14 95.437 170.016C95.437 169.892 95.4726 169.77 95.5395 169.666C95.6065 169.562 95.702 169.479 95.8147 169.427L125.744 152.115C126.02 151.956 126.332 151.872 126.65 151.872C126.969 151.872 127.281 151.956 127.557 152.115L211.602 200.639C211.711 200.692 211.803 200.774 211.868 200.877C211.933 200.98 211.967 201.1 211.967 201.221C211.967 201.343 211.933 201.462 211.868 201.565C211.803 201.668 211.711 201.751 211.602 201.804V201.804Z" fill="#9198DB"></path> <path opacity="0.11" d="M103.653 168.297L176.87 210.571L173.963 212.254L100.746 169.98L103.653 168.297Z" fill="#24126A"></path> <path opacity="0.11" d="M111.362 163.848L180.954 204.028L178.059 205.699L108.467 165.52L111.362 163.848Z" fill="#24126A"></path> <path opacity="0.11" d="M186.156 207.029L192.653 210.783L189.757 212.455L183.249 208.7L186.156 207.029Z" fill="#24126A"></path> <path opacity="0.11" d="M180.413 212.619L184.932 215.232L182.037 216.915L177.518 214.302L180.413 212.619Z" fill="#24126A"></path> <path opacity="0.11" d="M116.199 161.059L197.49 207.994L194.583 209.665L113.292 162.731L116.199 161.059Z" fill="#24126A"></path> <path opacity="0.11" d="M121.025 158.27L202.327 205.193L199.42 206.876L118.129 159.941L121.025 158.27Z" fill="#24126A"></path> <path opacity="0.11" d="M125.862 155.481L207.153 202.404L204.257 204.087L122.966 157.152L125.862 155.481Z" fill="#24126A"></path> </g> </g> <path d="M117.682 121.527L125.65 126.129L125.885 124.752L117.918 120.138L117.682 121.527Z" fill="#42E8E0"></path> <path d="M126.933 126.87L131.276 129.377L131.511 127.988L127.168 125.481L126.933 126.87Z" fill="#42E8E0"></path> <path d="M138.031 133.273L141.174 135.097L141.409 133.708L138.267 131.896L138.031 133.273Z" fill="#42E8E0"></path> <path d="M135.748 131.955L136.819 132.567L137.054 131.19L135.972 130.566L135.748 131.955Z" fill="#42E8E0"></path> <path d="M132.57 130.118L134.524 131.248L134.759 129.86L132.806 128.741L132.57 130.118Z" fill="#42E8E0"></path> <path d="M123.99 132.107L127.133 133.932L127.368 132.543L124.226 130.73L123.99 132.107Z" fill="#42E8E0"></path> <path d="M116.623 127.847L122.778 131.401L123.013 130.024L116.846 126.47L116.623 127.847Z" fill="#42E8E0"></path> <path d="M125.438 150.279L131.593 153.833L131.829 152.444L125.673 148.89L125.438 150.279Z" fill="#42E8E0"></path> <path d="M122.272 148.443L124.226 149.573L124.461 148.184L122.507 147.054L122.272 148.443Z" fill="#42E8E0"></path> <path d="M126.474 143.947L132.629 147.501L132.864 146.113L126.709 142.558L126.474 143.947Z" fill="#42E8E0"></path> <path d="M123.308 142.111L125.25 143.241L125.485 141.852L123.543 140.734L123.308 142.111Z" fill="#42E8E0"></path> <path d="M120.895 177.595L109.302 170.886L109.067 172.275L120.671 178.972L120.895 177.595Z" fill="#42E8E0"></path> <path d="M124.991 179.949L122.119 178.301L121.884 179.678L124.756 181.337L124.991 179.949Z" fill="#42E8E0"></path> <path d="M145.363 181.302L133.771 174.594L133.535 175.982L145.128 182.679L145.363 181.302Z" fill="#42E8E0"></path> <path d="M149.447 183.656L146.576 181.996L146.34 183.385L149.212 185.045L149.447 183.656Z" fill="#42E8E0"></path> <path d="M112.986 169.545L109.844 167.732L109.608 169.109L112.751 170.934L112.986 169.545Z" fill="#42E8E0"></path> <path d="M132.088 173.64L128.945 171.828L128.722 173.217L131.864 175.029L132.088 173.64Z" fill="#42E8E0"></path> <path d="M120.354 173.805L114.198 170.251L113.963 171.628L120.118 175.194L120.354 173.805Z" fill="#42E8E0"></path> <path d="M123.52 175.641L121.566 174.511L121.331 175.888L123.284 177.018L123.52 175.641Z" fill="#42E8E0"></path> <path d="M130.946 179.925L124.791 176.359L124.555 177.748L130.711 181.302L130.946 179.925Z" fill="#42E8E0"></path> <path d="M134.112 181.749L132.17 180.619L131.935 182.008L133.876 183.138L134.112 181.749Z" fill="#42E8E0"></path> <path d="M131.558 176.806L128.416 174.994L128.18 176.371L131.323 178.195L131.558 176.806Z" fill="#42E8E0"></path> <path d="M138.938 181.067L132.77 177.512L132.547 178.889L138.702 182.455L138.938 181.067Z" fill="#42E8E0"></path> <path d="M142.104 182.903L140.15 181.773L139.915 183.15L141.868 184.279L142.104 182.903Z" fill="#42E8E0"></path> <path d="M116.799 168.285L110.373 164.566L110.138 165.955L116.564 169.662L116.799 168.285Z" fill="#42E8E0"></path> <path d="M122.661 171.675L118.023 168.992L117.788 170.369L122.437 173.052L122.661 171.675Z" fill="#42E8E0"></path> <path d="M127.027 174.194L123.884 172.381L123.649 173.758L126.791 175.582L127.027 174.194Z" fill="#42E8E0"></path> <path d="M157.486 188.293L151.06 184.574L150.836 185.962L157.262 189.682L157.486 188.293Z" fill="#42E8E0"></path> <path d="M163.359 191.682L158.71 188.999L158.475 190.376L163.124 193.071L163.359 191.682Z" fill="#42E8E0"></path> <path d="M167.714 194.201L164.571 192.388L164.336 193.765L167.478 195.59L167.714 194.201Z" fill="#42E8E0"></path> <path d="M154.979 146.525L161.405 150.244L161.64 148.855L155.214 145.148L154.979 146.525Z" fill="#42E8E0"></path> <path d="M149.118 143.135L153.767 145.83L154.002 144.441L149.354 141.758L149.118 143.135Z" fill="#42E8E0"></path> <path d="M144.751 140.616L147.894 142.441L148.129 141.052L144.987 139.24L144.751 140.616Z" fill="#42E8E0"></path> <path d="M152.849 141.817L159.275 145.524L159.51 144.147L153.084 140.428L152.849 141.817Z" fill="#42E8E0"></path> <path d="M146.988 138.428L151.625 141.111L151.86 139.722L147.211 137.039L146.988 138.428Z" fill="#42E8E0"></path> <path d="M142.622 135.909L145.764 137.721L145.999 136.333L142.857 134.52L142.622 135.909Z" fill="#42E8E0"></path> <path d="M126.897 147.666L129.063 148.914L129.298 147.537L127.133 146.277L126.897 147.666Z" fill="#42E8E0"></path> <path d="M122.802 145.301L125.673 146.96L125.909 145.571L123.037 143.912L122.802 145.301Z" fill="#42E8E0"></path> <path d="M117.376 165.143L110.95 161.424L110.714 162.813L117.14 166.52L117.376 165.143Z" fill="#42E8E0"></path> <path d="M123.237 168.533L118.588 165.849L118.353 167.226L123.014 169.91L123.237 168.533Z" fill="#42E8E0"></path> <path d="M127.603 171.051L124.461 169.239L124.226 170.616L127.368 172.428L127.603 171.051Z" fill="#42E8E0"></path> <path d="M113.657 159.518L111.48 158.27L111.244 159.647L113.421 160.906L113.657 159.518Z" fill="#42E8E0"></path> <path d="M117.741 161.883L114.869 160.224L114.634 161.612L117.505 163.26L117.741 161.883Z" fill="#42E8E0"></path> <path d="M123.579 165.261L118.953 162.589L118.718 163.966L123.343 166.638L123.579 165.261Z" fill="#42E8E0"></path> <path d="M129.852 138.945L132.017 140.205L132.253 138.816L130.087 137.557L129.852 138.945Z" fill="#42E8E0"></path> <path d="M125.768 136.58L128.628 138.239L128.863 136.862L125.991 135.203L125.768 136.58Z" fill="#42E8E0"></path> <path d="M119.918 133.214L124.543 135.874L124.779 134.497L120.153 131.825L119.918 133.214Z" fill="#42E8E0"></path> <path d="M133.159 144.077L137.772 146.748L138.008 145.36L133.382 142.688L133.159 144.077Z" fill="#42E8E0"></path> <path d="M125.591 139.958L131.829 143.559L132.053 142.17L125.827 138.569L125.591 139.958Z" fill="#42E8E0"></path> <path d="M122.425 138.121L124.379 139.251L124.614 137.862L122.66 136.744L122.425 138.121Z" fill="#42E8E0"></path> <path d="M119.389 136.368L121.342 137.498L121.566 136.109L119.624 134.979L119.389 136.368Z" fill="#42E8E0"></path> <path d="M119.801 154.221L125.956 157.788L126.192 156.399L120.036 152.844L119.801 154.221Z" fill="#42E8E0"></path> <path d="M116.634 152.397L118.588 153.527L118.823 152.138L116.87 151.009L116.634 152.397Z" fill="#42E8E0"></path> <path d="M120.224 157.94L122.401 159.2L122.637 157.811L120.46 156.563L120.224 157.94Z" fill="#42E8E0"></path> <path d="M127.898 155.41L130.064 156.669L130.299 155.281L128.122 154.033L127.898 155.41Z" fill="#42E8E0"></path> <path d="M130.993 157.199L136.195 160.212L136.431 158.823L131.217 155.81L130.993 157.199Z" fill="#42E8E0"></path> <path d="M137.125 160.742L140.22 162.53L140.456 161.142L137.349 159.353L137.125 160.742Z" fill="#42E8E0"></path> <path d="M116.14 155.587L119.012 157.234L119.247 155.857L116.376 154.198L116.14 155.587Z" fill="#42E8E0"></path> <path d="M115.87 158.835L118.047 160.083L118.282 158.706L116.105 157.446L115.87 158.835Z" fill="#42E8E0"></path> <path d="M111.786 156.469L114.657 158.129L114.893 156.74L112.021 155.081L111.786 156.469Z" fill="#42E8E0"></path> <path d="M124.744 153.598L126.697 154.716L126.921 153.339L124.979 152.209L124.744 153.598Z" fill="#42E8E0"></path> <path d="M121.707 151.832L123.649 152.962L123.884 151.585L121.942 150.455L121.707 151.832Z" fill="#42E8E0"></path> <path d="M136.678 135.956L143.327 139.793L143.563 138.416L136.913 134.567L136.678 135.956Z" fill="#42E8E0"></path> <path d="M129.228 131.649L135.466 135.25L135.701 133.861L129.463 130.26L129.228 131.649Z" fill="#42E8E0"></path> <path d="M126.062 129.813L128.015 130.942L128.251 129.565L126.297 128.436L126.062 129.813Z" fill="#42E8E0"></path> <path d="M123.025 128.059L124.979 129.189L125.203 127.8L123.261 126.682L123.025 128.059Z" fill="#42E8E0"></path> <path d="M121.366 127.106L117.152 124.67L117.388 123.281L121.601 125.717L121.366 127.106Z" fill="#42E8E0"></path> <path d="M79.1489 183.044L82.3973 184.915L85.6456 183.044L82.3973 181.173L79.1489 183.044Z" fill="#24126A"></path> <path d="M71.1929 187.646L77.9367 191.529L81.1733 189.658L74.4412 185.762L71.1929 187.646Z" fill="#24126A"></path> <defs> <linearGradient id="paint0_linear" x1="16.8892" y1="94.376" x2="180.695" y2="94.376" gradientUnits="userSpaceOnUse"> <stop stop-color="#5761D7"></stop> <stop offset="0.18" stop-color="#5C66D9"></stop> <stop offset="0.39" stop-color="#6A73DF"></stop> <stop offset="0.61" stop-color="#8289E8"></stop> <stop offset="0.85" stop-color="#A3A7F5"></stop> <stop offset="1" stop-color="#BCBEFF"></stop> </linearGradient> <linearGradient id="paint1_linear" x1="117358" y1="1633.79" x2="118853" y2="1633.79" gradientUnits="userSpaceOnUse"> <stop stop-color="#C0BFF6"></stop> <stop offset="0.29" stop-color="#C5C4F7"></stop> <stop offset="0.64" stop-color="#D3D2F9"></stop> <stop offset="1" stop-color="#E9E9FD"></stop> </linearGradient> <linearGradient id="paint2_linear" x1="324550" y1="8029.99" x2="335976" y2="8029.99" gradientUnits="userSpaceOnUse"> <stop stop-color="#C0BFF6"></stop> <stop offset="0.29" stop-color="#C5C4F7"></stop> <stop offset="0.64" stop-color="#D3D2F9"></stop> <stop offset="1" stop-color="#E9E9FD"></stop> </linearGradient> <linearGradient id="paint3_linear" x1="55794.7" y1="6585.98" x2="56131.7" y2="6585.98" gradientUnits="userSpaceOnUse"> <stop stop-color="#5761D7"></stop> <stop offset="0.18" stop-color="#5C66D9"></stop> <stop offset="0.39" stop-color="#6A73DF"></stop> <stop offset="0.61" stop-color="#8289E8"></stop> <stop offset="0.85" stop-color="#A3A7F5"></stop> <stop offset="1" stop-color="#BCBEFF"></stop> </linearGradient> <linearGradient id="paint4_linear" x1="-23239.5" y1="7451.21" x2="-46024.9" y2="7451.21" gradientUnits="userSpaceOnUse"> <stop stop-color="#5761D7"></stop> <stop offset="0.18" stop-color="#5C66D9"></stop> <stop offset="0.39" stop-color="#6A73DF"></stop> <stop offset="0.61" stop-color="#8289E8"></stop> <stop offset="0.85" stop-color="#A3A7F5"></stop> <stop offset="1" stop-color="#BCBEFF"></stop> </linearGradient> <linearGradient id="paint5_linear" x1="-7362.77" y1="1634.14" x2="-8857.31" y2="1634.14" gradientUnits="userSpaceOnUse"> <stop stop-color="#C0BFF6"></stop> <stop offset="0.29" stop-color="#C5C4F7"></stop> <stop offset="0.64" stop-color="#D3D2F9"></stop> <stop offset="1" stop-color="#E9E9FD"></stop> </linearGradient> <linearGradient id="paint6_linear" x1="-21074.6" y1="8029.99" x2="-32508.2" y2="8029.99" gradientUnits="userSpaceOnUse"> <stop stop-color="#C0BFF6"></stop> <stop offset="0.29" stop-color="#C5C4F7"></stop> <stop offset="0.64" stop-color="#D3D2F9"></stop> <stop offset="1" stop-color="#E9E9FD"></stop> </linearGradient> <linearGradient id="paint7_linear" x1="-3436.13" y1="6585.98" x2="-3772.95" y2="6585.98" gradientUnits="userSpaceOnUse"> <stop stop-color="#5761D7"></stop> <stop offset="0.18" stop-color="#5C66D9"></stop> <stop offset="0.39" stop-color="#6A73DF"></stop> <stop offset="0.61" stop-color="#8289E8"></stop> <stop offset="0.85" stop-color="#A3A7F5"></stop> <stop offset="1" stop-color="#BCBEFF"></stop> </linearGradient> <linearGradient id="paint8_linear" x1="21473.5" y1="13015.3" x2="21473.5" y2="8425.34" gradientUnits="userSpaceOnUse"> <stop stop-color="#C0BFF6"></stop> <stop offset="0.29" stop-color="#C5C4F7"></stop> <stop offset="0.64" stop-color="#D3D2F9"></stop> <stop offset="1" stop-color="#E9E9FD"></stop> </linearGradient> <linearGradient id="paint9_linear" x1="21473.5" y1="9156.24" x2="21473.5" y2="4566.3" gradientUnits="userSpaceOnUse"> <stop stop-color="#C0BFF6"></stop> <stop offset="0.29" stop-color="#C5C4F7"></stop> <stop offset="0.64" stop-color="#D3D2F9"></stop> <stop offset="1" stop-color="#E9E9FD"></stop> </linearGradient> <radialGradient id="paint10_radial" cx="0" cy="0" r="1" gradientUnits="userSpaceOnUse" gradientTransform="translate(250.57 57.4448) scale(2.42449)"> <stop stop-color="#FF2C9C"></stop> <stop offset="0.03" stop-color="#F62F9F"></stop> <stop offset="0.2" stop-color="#C63EB0"></stop> <stop offset="0.37" stop-color="#9E4BBE"></stop> <stop offset="0.54" stop-color="#7F54C9"></stop> <stop offset="0.7" stop-color="#695BD1"></stop> <stop offset="0.86" stop-color="#5C60D5"></stop> <stop offset="1" stop-color="#5761D7"></stop> </radialGradient> <linearGradient id="paint11_linear" x1="290726" y1="18967.6" x2="302560" y2="18967.6" gradientUnits="userSpaceOnUse"> <stop stop-color="#C0BFF6"></stop> <stop offset="0.29" stop-color="#C5C4F7"></stop> <stop offset="0.64" stop-color="#D3D2F9"></stop> <stop offset="1" stop-color="#E9E9FD"></stop> </linearGradient> <linearGradient id="paint12_linear" x1="47896.5" y1="12906.2" x2="48245.4" y2="12906.2" gradientUnits="userSpaceOnUse"> <stop stop-color="#5761D7"></stop> <stop offset="0.18" stop-color="#5C66D9"></stop> <stop offset="0.39" stop-color="#6A73DF"></stop> <stop offset="0.61" stop-color="#8289E8"></stop> <stop offset="0.85" stop-color="#A3A7F5"></stop> <stop offset="1" stop-color="#BCBEFF"></stop> </linearGradient> <linearGradient id="paint13_linear" x1="413982" y1="17984.1" x2="437596" y2="17984.1" gradientUnits="userSpaceOnUse"> <stop stop-color="#5761D7"></stop> <stop offset="0.18" stop-color="#5C66D9"></stop> <stop offset="0.39" stop-color="#6A73DF"></stop> <stop offset="0.61" stop-color="#8289E8"></stop> <stop offset="0.85" stop-color="#A3A7F5"></stop> <stop offset="1" stop-color="#BCBEFF"></stop> </linearGradient> <linearGradient id="paint14_linear" x1="107347" y1="4969.4" x2="108896" y2="4969.4" gradientUnits="userSpaceOnUse"> <stop stop-color="#C0BFF6"></stop> <stop offset="0.29" stop-color="#C5C4F7"></stop> <stop offset="0.64" stop-color="#D3D2F9"></stop> <stop offset="1" stop-color="#E9E9FD"></stop> </linearGradient> <linearGradient id="paint15_linear" x1="413021" y1="14895.5" x2="436657" y2="14895.5" gradientUnits="userSpaceOnUse"> <stop stop-color="#C0BFF6"></stop> <stop offset="0.29" stop-color="#C5C4F7"></stop> <stop offset="0.64" stop-color="#D3D2F9"></stop> <stop offset="1" stop-color="#E9E9FD"></stop> </linearGradient> <linearGradient id="paint16_linear" x1="103512" y1="3687.59" x2="105061" y2="3687.59" gradientUnits="userSpaceOnUse"> <stop stop-color="#C0BFF6"></stop> <stop offset="0.29" stop-color="#C5C4F7"></stop> <stop offset="0.64" stop-color="#D3D2F9"></stop> <stop offset="1" stop-color="#E9E9FD"></stop> </linearGradient> <linearGradient id="paint17_linear" x1="22.2793" y1="233.462" x2="179.424" y2="233.462" gradientUnits="userSpaceOnUse"> <stop stop-color="#5761D7"></stop> <stop offset="0.14" stop-color="#5C60D5"></stop> <stop offset="0.3" stop-color="#695BD1"></stop> <stop offset="0.46" stop-color="#7F54C9"></stop> <stop offset="0.63" stop-color="#9E4BBE"></stop> <stop offset="0.8" stop-color="#C63EB0"></stop> <stop offset="0.97" stop-color="#F62F9F"></stop> <stop offset="1" stop-color="#FF2C9C"></stop> </linearGradient> <linearGradient id="paint18_linear" x1="15252.1" y1="18969.1" x2="3421.78" y2="18969.1" gradientUnits="userSpaceOnUse"> <stop stop-color="#C0BFF6"></stop> <stop offset="0.29" stop-color="#C5C4F7"></stop> <stop offset="0.64" stop-color="#D3D2F9"></stop> <stop offset="1" stop-color="#E9E9FD"></stop> </linearGradient> <linearGradient id="paint19_linear" x1="2500.68" y1="12906.2" x2="2150.82" y2="12906.2" gradientUnits="userSpaceOnUse"> <stop stop-color="#5761D7"></stop> <stop offset="0.18" stop-color="#5C66D9"></stop> <stop offset="0.39" stop-color="#6A73DF"></stop> <stop offset="0.61" stop-color="#8289E8"></stop> <stop offset="0.85" stop-color="#A3A7F5"></stop> <stop offset="1" stop-color="#BCBEFF"></stop> </linearGradient> <linearGradient id="paint20_linear" x1="19395.4" y1="17984.1" x2="-4219.5" y2="17984.1" gradientUnits="userSpaceOnUse"> <stop stop-color="#5761D7"></stop> <stop offset="0.18" stop-color="#5C66D9"></stop> <stop offset="0.39" stop-color="#6A73DF"></stop> <stop offset="0.61" stop-color="#8289E8"></stop> <stop offset="0.85" stop-color="#A3A7F5"></stop> <stop offset="1" stop-color="#BCBEFF"></stop> </linearGradient> <linearGradient id="paint21_linear" x1="1892.45" y1="4964.84" x2="343.716" y2="4964.84" gradientUnits="userSpaceOnUse"> <stop stop-color="#C0BFF6"></stop> <stop offset="0.29" stop-color="#C5C4F7"></stop> <stop offset="0.64" stop-color="#D3D2F9"></stop> <stop offset="1" stop-color="#E9E9FD"></stop> </linearGradient> <linearGradient id="paint22_linear" x1="20434.6" y1="14895.5" x2="-3204.57" y2="14895.5" gradientUnits="userSpaceOnUse"> <stop stop-color="#C0BFF6"></stop> <stop offset="0.29" stop-color="#C5C4F7"></stop> <stop offset="0.64" stop-color="#D3D2F9"></stop> <stop offset="1" stop-color="#E9E9FD"></stop> </linearGradient> <linearGradient id="paint23_linear" x1="5523.89" y1="3687.59" x2="3975.15" y2="3687.59" gradientUnits="userSpaceOnUse"> <stop stop-color="#C0BFF6"></stop> <stop offset="0.29" stop-color="#C5C4F7"></stop> <stop offset="0.64" stop-color="#D3D2F9"></stop> <stop offset="1" stop-color="#E9E9FD"></stop> </linearGradient> </defs> </svg> 