<?xml version="1.0" encoding="utf-8"?>
<!-- Generator: Adobe Illustrator 24.1.2, SVG Export Plug-In . SVG Version: 6.00 Build 0)  -->
<svg version="1.1" id="Layer_1" xmlns="http://www.w3.org/2000/svg" xmlns:xlink="http://www.w3.org/1999/xlink" x="0px" y="0px"
	 viewBox="0 0 500 500" style="enable-background:new 0 0 500 500;" xml:space="preserve">
<style type="text/css">
	.st0{fill:#F4F9FE;enable-background:new    ;}
	.st1{fill:#AED1B4;}
	.st2{fill:#00A651;}
	.st3{fill:#C0D8FB;}
	.st4{fill:#BDD3EF;}
	.st5{fill:#FFFFFF;}
	.st6{fill:#1F8BEB;}
	.st7{fill:#2B478B;}
	.st8{fill:#CDE0FB;}
	.st9{fill:#D2E8FB;}
	.st10{font-family:'ArialMT';}
	.st11{font-size:18.768px;}
</style>
<g>
	<path class="st0" d="M30.1,252.5c0,0,25.5-41.3-8.6-79.6S3.5,87.8,37.8,82s88.9,7.3,110.5-22.2s58.2-45.9,96.6-30.2
		s33.5,46,52,55.8s28,15.9,64.3,4s85.5,9.4,76.9,76.8s21,92.4,21,92.4s57.7,54.7,11.2,110.7s-104.3,1.5-143,20.5
		s-40.5,61.7-112.1,55.1s-64.2-73.1-111.5-75.6C56.3,366.8-9.9,329.1,30.1,252.5z"/>
	<path class="st1" d="M96,292.8c-5.3-12.8,15.3-23.2,15.3-23.2s26.5,9.3,30.4,7c3.9-2.3-21.1-12.4-21.1-12.4
		c6.4-5.9,30.4-10.8,30.4-10.8s15.5,22.5,18.7,19.4c3.2-3.1-14.8-19.3-14.8-19.3c8.2-3.1,20.4-0.1,20.4-0.1
		c17.5,6.7,7.9,28.7,7.9,28.7s5.6,7.7,16.8,12.8l0,0c0,0,2.3,0.8,5.4,2.7l-1.8,1.4c-0.5-0.4-1-0.7-1.6-1c0,0,0,0,0,0c0,0,0,0,0,0
		c-0.3-0.2-0.8-0.4-1.4-0.8c0,0,0,0,0,0c0,0,0,0,0,0c-1.4-0.7-2.4-1.2-3.1-1.6c0,0,0,0,0,0c-4.3-2.1-10.1-4.7-12.4-4.5
		c0,0,0-0.4-0.2-1.1c0.1,0.4,0.2,0.7,0.2,1.1c2,9-12.7,21.9-22.8,26.8c-10,4.8-8.1-0.5-6.5-8c1.6-7.5,12.2-13.9,13.9-17.6
		c1.7-3.7-3.7-2.1-9.2,2.8c-5.4,4.8-3.9,12.8-12.6,20.8c-8.7,8-29.2-4.1-29.2-4.1c8-2.9,16.8-15.2,15.6-17.8
		c-1.3-2.6-18.2,10.7-21.4,12C110,307.4,101.2,305.6,96,292.8z"/>
	<path class="st1" d="M230.1,134c7.7-10.6,26.3,0.6,26.3,0.6s5.8,25.7,9.5,27.7c3.8,2-0.6-23-0.6-23c7.9,2.1,23.9,18.8,23.9,18.8
		s-10.4,23.6-6.2,24.6c4.1,1,8.1-21.4,8.1-21.4c6.6,5,10.2,16.2,10.2,16.2c3.3,17.3-19.1,20.6-19.1,20.6s-3.4,8.3-1.9,19.8v0
		c0,0,0.5,2.2,0.6,5.7l-2-0.8c0-0.6,0.1-1.2,0-1.8c0,0,0,0,0,0c0,0,0,0,0,0c0-0.4-0.1-0.9-0.1-1.5c0,0,0,0,0,0c0,0,0,0,0,0
		c-0.2-1.4-0.2-2.5-0.3-3.2c0,0,0,0,0,0c-0.4-4.5-1.2-10.4-2.6-12.1c0,0,0.3-0.2,0.8-0.8c-0.2,0.2-0.5,0.5-0.8,0.8
		c-6.2,6.1-24,0.8-32.9-4.8s-3.7-6.7,3.2-9.2c6.8-2.4,17.3,2.8,21.1,2.3c3.9-0.5-0.2-4-6.8-5.9c-6.6-1.9-12.2,3.3-23,0.4
		c-10.7-2.9-11.3-25.3-11.3-25.3c6.3,4.9,20.7,5.8,22.1,3.5c1.4-2.3-17.7-9.2-20.4-11C225.4,152.4,222.4,144.6,230.1,134z"/>
	<path class="st1" d="M378.4,378.5c19-3.9,15.1-35.6,15.1-35.6s-31.4-23.3-31.8-29.6c-0.4-6.2,30.7,14.7,30.7,14.7
		c1.9-11.9-11-43.5-11-43.5s-38.3-0.4-37.1-6.6c1.2-6.2,33.9,2.1,33.9,2.1c-2.8-11.8-15.7-23.5-15.7-23.5
		c-21.3-14.9-39.5,13.1-39.5,13.1s-13.3-0.4-27.9-9.5l0,0c0,0-2.7-2-7.3-4.2l-0.2,3.2c0.8,0.3,1.6,0.6,2.4,1c0,0,0,0,0,0
		c0,0,0,0,0,0c0.5,0.2,1.2,0.6,2,1c0,0,0,0,0,0c0,0,0,0,0,0c1.8,1.1,3.2,1.8,4.2,2.3c0,0,0,0,0,0c5.8,3.3,13.3,7.9,14.8,10.8
		c0,0,0.5-0.3,1.5-0.6c-0.5,0.2-1,0.4-1.5,0.6c-12,4.7-15.6,31.7-13.5,47c2.2,15.3,6.9,9,14.3,1.3c7.5-7.7,6.7-24.9,9.7-29.7
		c3-4.9,5.3,2.7,3.9,12.7c-1.4,10-11.8,14.4-14.4,30.6c-2.6,16.2,27.4,30.5,27.4,30.5c-2.8-11.4,4.7-31.2,8.6-31.7
		c3.9-0.5,1.7,29.3,2.6,34C350.6,373.6,359.4,382.3,378.4,378.5z"/>
	<path class="st2" d="M337.6,180.1H153.4c-9.4,0-17,7.6-17,16.9v90.8c0,9.3,7.6,16.9,17,16.9H262l29.6,54.4v-54.4h46.1
		c9.4,0,17-7.6,17-16.9V197C354.6,187.7,347,180.1,337.6,180.1z"/>
	<path class="st3" d="M354.3,106.9h110.5c5.6,0,10.2,5.3,10.2,9.7v38.4c0,6.6-4.6,10.5-10.2,10.5h-65.1L381.9,191v-25.6h-27.6
		c-5.6,0-10.2-3.6-10.2-7.9v-39C344.1,111.1,348.7,106.9,354.3,106.9z"/>
	<path class="st4" d="M142.9,90.7H60.3c-4.2,0-7.6,3.4-7.6,7.6v40.7c0,4.2,3.4,7.6,7.6,7.6H109l13.3,24.4v-24.4h20.6
		c4.2,0,7.6-3.4,7.6-7.6V98.2C150.5,94,147.1,90.7,142.9,90.7z"/>
	<g>
		<path class="st5" d="M190.6,266.2h-6.3V250H168v16.2h-6.4v-36.4h6.4v15.1h16.3v-15.1h6.3V266.2z"/>
		<path class="st5" d="M224.7,249.9h-15v11.2h17.6v5h-23.9v-36.4H227v5.1h-17.4v10h15V249.9z"/>
		<path class="st5" d="M243.9,261.1h16.6v5h-23v-36.4h6.4V261.1z"/>
		<path class="st5" d="M276.8,261.1h16.6v5h-23v-36.4h6.4V261.1z"/>
		<path class="st5" d="M331,248.9c0,2.8-0.4,5.2-1.1,7.4c-0.7,2.2-1.8,4-3.1,5.6c-1.3,1.5-2.9,2.7-4.8,3.5c-1.9,0.8-3.9,1.2-6.2,1.2
			c-2.2,0-4.3-0.4-6.2-1.2c-1.9-0.8-3.5-2-4.8-3.5c-1.3-1.5-2.4-3.4-3.1-5.6c-0.7-2.2-1.1-4.7-1.1-7.4v-1.8c0-2.8,0.4-5.2,1.1-7.4
			c0.7-2.2,1.8-4.1,3.1-5.6c1.3-1.5,2.9-2.7,4.8-3.5c1.9-0.8,3.9-1.2,6.2-1.2c2.3,0,4.3,0.4,6.2,1.2c1.9,0.8,3.5,2,4.8,3.5
			c1.3,1.5,2.4,3.4,3.1,5.6c0.7,2.2,1.1,4.7,1.1,7.4V248.9z M324.7,247c0-2-0.2-3.8-0.6-5.4c-0.4-1.6-1-2.9-1.7-3.9
			c-0.8-1-1.7-1.8-2.8-2.4c-1.1-0.5-2.3-0.8-3.7-0.8c-1.4,0-2.6,0.3-3.7,0.8c-1.1,0.5-2,1.3-2.8,2.4c-0.8,1-1.3,2.4-1.8,3.9
			c-0.4,1.6-0.6,3.4-0.6,5.4v1.9c0,2,0.2,3.8,0.6,5.4c0.4,1.6,1,2.9,1.8,3.9c0.8,1.1,1.7,1.9,2.8,2.4c1.1,0.5,2.3,0.8,3.7,0.8
			c2.8,0,5-1.1,6.5-3.2c1.5-2.1,2.3-5.2,2.3-9.3V247z"/>
	</g>
	<g>
		<g>
			<path class="st6" d="M214.9,373.7h-44c-9.6,0-17.4-7.8-17.4-17.4v0c0-9.6,7.8-17.4,17.4-17.4h44c9.6,0,17.4,7.8,17.4,17.4v0
				C232.3,365.9,224.4,373.7,214.9,373.7z"/>
			<polygon class="st6" points="227.6,344.3 244.4,333.2 227.6,368.2 			"/>
		</g>
	</g>
	<g>
		<path class="st7" d="M362.5,142v-13.5h4.6c0.7,0,1.4,0.1,2,0.2c0.6,0.1,1.1,0.4,1.5,0.7c0.4,0.3,0.7,0.7,0.9,1.1
			c0.2,0.5,0.3,1,0.3,1.6c0,0.6-0.2,1.2-0.5,1.7c-0.3,0.5-0.8,0.9-1.5,1.1c0.4,0.1,0.7,0.3,1,0.5c0.3,0.2,0.5,0.4,0.7,0.7
			c0.2,0.3,0.3,0.6,0.4,0.9c0.1,0.3,0.1,0.7,0.1,1c0,0.6-0.1,1.2-0.3,1.7c-0.2,0.5-0.5,0.9-0.9,1.2c-0.4,0.3-0.9,0.6-1.5,0.7
			c-0.6,0.2-1.2,0.2-2,0.2H362.5z M364.8,134.2h2.3c0.7,0,1.3-0.2,1.7-0.5c0.4-0.3,0.6-0.8,0.6-1.4c0-0.7-0.2-1.1-0.6-1.4
			c-0.4-0.3-1-0.4-1.8-0.4h-2.3V134.2z M364.8,135.9v4.2h2.6c0.4,0,0.7,0,1-0.1c0.3-0.1,0.5-0.2,0.7-0.4c0.2-0.2,0.3-0.4,0.4-0.7
			s0.1-0.5,0.1-0.8c0-0.7-0.2-1.2-0.5-1.6c-0.4-0.4-0.9-0.6-1.7-0.6H364.8z"/>
		<path class="st7" d="M387.2,135.6c0,1-0.1,1.9-0.4,2.8c-0.3,0.8-0.6,1.5-1.1,2.1c-0.5,0.6-1.1,1-1.8,1.3c-0.7,0.3-1.5,0.5-2.3,0.5
			c-0.8,0-1.6-0.2-2.3-0.5c-0.7-0.3-1.3-0.7-1.8-1.3c-0.5-0.6-0.9-1.3-1.2-2.1c-0.3-0.8-0.4-1.7-0.4-2.8v-0.7c0-1,0.1-1.9,0.4-2.8
			c0.3-0.8,0.7-1.5,1.2-2.1c0.5-0.6,1.1-1,1.8-1.3c0.7-0.3,1.4-0.5,2.3-0.5c0.8,0,1.6,0.2,2.3,0.5c0.7,0.3,1.3,0.7,1.8,1.3
			c0.5,0.6,0.9,1.3,1.1,2.1c0.3,0.8,0.4,1.7,0.4,2.8V135.6z M384.8,134.9c0-0.8-0.1-1.4-0.2-2c-0.1-0.6-0.4-1.1-0.6-1.4
			c-0.3-0.4-0.6-0.7-1-0.9c-0.4-0.2-0.9-0.3-1.4-0.3c-0.5,0-1,0.1-1.4,0.3c-0.4,0.2-0.7,0.5-1,0.9c-0.3,0.4-0.5,0.9-0.7,1.4
			c-0.2,0.6-0.2,1.2-0.2,2v0.7c0,0.8,0.1,1.4,0.2,2c0.2,0.6,0.4,1.1,0.7,1.5c0.3,0.4,0.6,0.7,1,0.9c0.4,0.2,0.9,0.3,1.4,0.3
			c1,0,1.8-0.4,2.4-1.2c0.6-0.8,0.8-1.9,0.8-3.5V134.9z"/>
		<path class="st7" d="M402.2,142h-2.4l-6-9.6v9.6h-2.4v-13.5h2.4l6.1,9.6v-9.6h2.3V142z"/>
		<path class="st7" d="M412.4,128.5h2.3v9.4c0,0.7-0.1,1.3-0.3,1.8c-0.2,0.5-0.5,1-0.9,1.3s-0.9,0.6-1.4,0.8
			c-0.5,0.2-1.1,0.3-1.8,0.3c-0.6,0-1.2-0.1-1.8-0.2c-0.5-0.2-1-0.4-1.4-0.7c-0.4-0.3-0.7-0.8-0.9-1.3c-0.2-0.5-0.3-1.1-0.3-1.8h2.3
			c0,0.4,0.1,0.7,0.2,1c0.1,0.3,0.2,0.5,0.4,0.7c0.2,0.2,0.4,0.3,0.7,0.4c0.3,0.1,0.5,0.1,0.8,0.1c0.3,0,0.6-0.1,0.8-0.2
			c0.3-0.1,0.5-0.3,0.7-0.4c0.2-0.2,0.3-0.4,0.4-0.7c0.1-0.3,0.2-0.6,0.2-1V128.5z"/>
		<path class="st7" d="M430.1,135.6c0,1-0.1,1.9-0.4,2.8c-0.3,0.8-0.6,1.5-1.1,2.1c-0.5,0.6-1.1,1-1.8,1.3c-0.7,0.3-1.5,0.5-2.3,0.5
			c-0.8,0-1.6-0.2-2.3-0.5c-0.7-0.3-1.3-0.7-1.8-1.3c-0.5-0.6-0.9-1.3-1.2-2.1c-0.3-0.8-0.4-1.7-0.4-2.8v-0.7c0-1,0.1-1.9,0.4-2.8
			c0.3-0.8,0.7-1.5,1.2-2.1c0.5-0.6,1.1-1,1.8-1.3c0.7-0.3,1.4-0.5,2.3-0.5c0.8,0,1.6,0.2,2.3,0.5c0.7,0.3,1.3,0.7,1.8,1.3
			c0.5,0.6,0.9,1.3,1.1,2.1c0.3,0.8,0.4,1.7,0.4,2.8V135.6z M427.8,134.9c0-0.8-0.1-1.4-0.2-2c-0.1-0.6-0.4-1.1-0.6-1.4
			c-0.3-0.4-0.6-0.7-1-0.9c-0.4-0.2-0.9-0.3-1.4-0.3c-0.5,0-1,0.1-1.4,0.3c-0.4,0.2-0.7,0.5-1,0.9c-0.3,0.4-0.5,0.9-0.7,1.4
			c-0.2,0.6-0.2,1.2-0.2,2v0.7c0,0.8,0.1,1.4,0.2,2c0.2,0.6,0.4,1.1,0.7,1.5c0.3,0.4,0.6,0.7,1,0.9c0.4,0.2,0.9,0.3,1.4,0.3
			c1,0,1.8-0.4,2.4-1.2c0.6-0.8,0.8-1.9,0.8-3.5V134.9z"/>
		<path class="st7" d="M444.3,128.5v9c0,0.8-0.1,1.4-0.4,2c-0.3,0.6-0.6,1.1-1.1,1.5c-0.5,0.4-1,0.7-1.6,0.9c-0.6,0.2-1.3,0.3-2,0.3
			c-0.7,0-1.4-0.1-2-0.3c-0.6-0.2-1.2-0.5-1.6-0.9c-0.5-0.4-0.8-0.9-1.1-1.5c-0.3-0.6-0.4-1.3-0.4-2v-9h2.3v9c0,0.5,0.1,0.9,0.2,1.2
			c0.1,0.3,0.3,0.6,0.5,0.9c0.2,0.2,0.5,0.4,0.9,0.5c0.3,0.1,0.7,0.2,1.1,0.2c0.4,0,0.8-0.1,1.1-0.2c0.3-0.1,0.6-0.3,0.9-0.5
			c0.2-0.2,0.4-0.5,0.5-0.9c0.1-0.3,0.2-0.8,0.2-1.2v-9H444.3z"/>
		<path class="st7" d="M453.7,136.8H451v5.2h-2.4v-13.5h4.8c0.8,0,1.5,0.1,2.1,0.3c0.6,0.2,1.1,0.4,1.5,0.8c0.4,0.3,0.7,0.8,1,1.3
			c0.2,0.5,0.3,1.1,0.3,1.8c0,0.9-0.2,1.7-0.7,2.3c-0.4,0.6-1,1.1-1.8,1.4l3,5.6v0.1h-2.5L453.7,136.8z M451,134.9h2.4
			c0.4,0,0.8-0.1,1.1-0.2c0.3-0.1,0.6-0.3,0.8-0.5c0.2-0.2,0.4-0.4,0.5-0.7c0.1-0.3,0.2-0.6,0.2-0.9c0-0.3,0-0.7-0.1-0.9
			c-0.1-0.3-0.3-0.5-0.5-0.7c-0.2-0.2-0.5-0.4-0.8-0.5c-0.3-0.1-0.7-0.2-1.1-0.2H451V134.9z"/>
	</g>
	<g>
		<path class="st7" d="M77.3,113.8c-1,1.7-2,3.2-3,4.5c-0.3-0.4-0.9-1.2-1.2-1.6c2.7-3.2,5.3-8.7,7-14.1l2.4,0.7
			c-0.1,0.3-0.4,0.3-0.7,0.3c-0.8,2.3-1.7,4.7-2.8,6.9l0.8,0.2c-0.1,0.2-0.2,0.3-0.6,0.3v18.4h-1.9V113.8z M97.2,114.5
			c0.2-1.1,0.5-2.7,0.8-4.3h-5.8v16.9c0,2.1-0.8,2.5-4.8,2.5c-0.1-0.6-0.4-1.4-0.7-2c0.7,0,1.4,0,2,0h1.2c0.4,0,0.5-0.1,0.5-0.5
			v-16.9h-4.7c-0.9,2.1-1.9,4-3,5.5c-0.3-0.3-1-0.9-1.5-1.2c2.1-2.7,3.8-7.2,4.8-11.8l2.4,0.6c-0.1,0.2-0.3,0.3-0.6,0.3
			c-0.4,1.6-0.8,3.2-1.4,4.7h12.8l1,0c0,0.5-0.7,4.3-1.3,6.4L97.2,114.5z M87.9,115.4c-0.1,0.2-0.3,0.3-0.6,0.3
			c-0.9,3.6-2.5,7.3-4.4,9.7c-0.4-0.3-1.1-0.8-1.5-1c1.8-2.2,3.3-5.9,4.2-9.6L87.9,115.4z M98.4,125.2c-0.6-2.7-2.2-6.9-4-10
			l1.7-0.6c1.8,3.1,3.5,7.2,4.1,9.9L98.4,125.2z"/>
		<path class="st7" d="M115.2,108.7l1.1,0.3l-0.2,0.4c-0.4,5.1-1.3,9.2-2.8,12.4c1.4,1.1,2.6,2.2,3.4,3.2l-1.2,1.6
			c-0.7-0.9-1.8-2-3.1-3c-1.5,2.7-3.4,4.7-5.8,6c-0.3-0.5-0.8-1.2-1.2-1.6c2.2-1.2,4-3,5.5-5.6c-1.1-0.8-2.2-1.6-3.3-2.2l-0.3,1.3
			l-1.7-0.9c0.7-2.5,1.6-6.2,2.5-10h-2.9v-1.8h3.3c0.5-2.2,0.9-4.3,1.2-6.1l2.4,0.3c0,0.2-0.2,0.3-0.6,0.3c-0.3,1.6-0.7,3.5-1.2,5.5
			h4.5L115.2,108.7z M110,110.6c-0.6,2.7-1.3,5.4-1.9,7.8c1.2,0.7,2.5,1.5,3.7,2.3c1.2-2.7,2-6,2.4-10.1H110z M132.2,115.6v1.9h-7
			v9.6c0,2.2-0.9,2.6-6,2.5c-0.1-0.5-0.4-1.4-0.7-1.9c1.4,0,2.7,0.1,3.5,0.1c1,0,1.3,0,1.3-0.6v-9.6h-7.1v-1.9h7.1v-4.9l1,0.1
			c1.5-1.3,3.1-3.1,4.3-4.7h-11.2v-1.8h12.7l0.4-0.1l1.5,1c-0.1,0.1-0.3,0.2-0.5,0.3c-1.5,2.1-4,4.9-6.2,6.7v3.6H132.2z"/>
	</g>
	<g>
		<g>
			<path class="st3" d="M429.2,270c-7.7,6.1-19,4.8-25.1-2.8c-6.1-7.7-4.9-18.9,2.8-25c7.7-6.1,19-4.8,25.1,2.8
				C438.2,252.7,436.9,263.9,429.2,270z M408.6,244.3c-6.6,5.2-7.6,14.7-2.4,21.2c5.2,6.5,14.8,7.6,21.3,2.4
				c6.6-5.2,7.6-14.7,2.4-21.2C424.8,240.1,415.2,239.1,408.6,244.3z"/>
		</g>
		<g>
			<path class="st3" d="M448.2,293.7c-0.7,0.5-1.7,0.4-2.2-0.3l-18.5-23.1c-0.5-0.7-0.4-1.7,0.3-2.2c0.7-0.5,1.7-0.4,2.2,0.3
				l18.5,23.1C449,292.2,448.9,293.2,448.2,293.7z"/>
		</g>
	</g>
	<g>
		<g>
			<rect x="200.7" y="320.4" class="st2" width="5.5" height="9.9"/>
			<polygon class="st2" points="197.5,320.4 209,320.4 203.4,312 			"/>
		</g>
		<g>
			
				<rect x="186.8" y="312" transform="matrix(-1 -1.224647e-16 1.224647e-16 -1 379.236 633.7576)" class="st6" width="5.5" height="9.9"/>
			<polygon class="st6" points="195.6,321.8 184,321.8 189.6,330.2 			"/>
		</g>
	</g>
	<g>
		<g>
			
				<rect x="308.2" y="137.5" transform="matrix(-1.836970e-16 1 -1 -1.836970e-16 452.0244 -168.9543)" class="st2" width="4.5" height="8.1"/>
			<polygon class="st2" points="314.5,136.7 314.5,146.1 321.4,141.5 			"/>
		</g>
		<g>
			
				<rect x="315.1" y="126.3" transform="matrix(6.123234e-17 -1 1 6.123234e-17 187.0432 447.7146)" class="st8" width="4.5" height="8.1"/>
			<polygon class="st8" points="313.3,135.2 313.3,125.8 306.5,130.3 			"/>
		</g>
	</g>
</g>
<text transform="matrix(1.0047 0 0 1 159.3817 363.3731)" class="st9 st10 st11">SALOM</text>
</svg>
