<?xml version="1.0" encoding="utf-8"?>
<!-- Generator: Adobe Illustrator 24.1.2, SVG Export Plug-In . SVG Version: 6.00 Build 0)  -->
<svg version="1.1" id="Layer_1" xmlns="http://www.w3.org/2000/svg" xmlns:xlink="http://www.w3.org/1999/xlink" x="0px" y="0px"
	 viewBox="0 0 500 500" style="enable-background:new 0 0 500 500;" xml:space="preserve">
<style type="text/css">
	.st0{opacity:9.000000e-02;fill:#425619;enable-background:new    ;}
	.st1{fill:#FCF6D9;}
	.st2{fill:#F7E5B5;}
	.st3{fill:#C0272D;}
	.st4{fill:#EC1C24;}
	.st5{fill:#603813;}
	.st6{fill:#009145;}
	.st7{fill:#344676;}
	.st8{fill:#317873;}
	.st9{fill:#E1F4FF;}
	.st10{fill:#F6921E;}
	.st11{opacity:0.6;fill:#FFFFFF;enable-background:new    ;}
	.st12{opacity:0.6;}
	.st13{fill:#FFFFFF;}
	.st14{fill:#3AAF75;}
	.st15{opacity:0.4;}
	.st16{opacity:0.4;fill:#F8FBFC;enable-background:new    ;}
	.st17{fill:#FFBD66;}
	.st18{fill:#808080;}
	.st19{fill:#4D4D4D;}
	.st20{fill:#E5E5E5;}
	.st21{fill:#754C24;}
	.st22{fill:#FFFF00;}
	.st23{opacity:0.5;fill:#FFF8B6;enable-background:new    ;}
	.st24{fill:#A5B4C2;}
	.st25{fill:#D3E2EF;}
	.st26{fill:#8EA1AD;}
	.st27{fill:#3C4F6E;}
	.st28{fill:#576F93;}
	.st29{fill:#EFEFEF;}
	.st30{fill:#666666;}
	.st31{fill:#DD9536;}
	.st32{fill:#FFC578;}
	.st33{fill:#FAAF3B;}
	.st34{fill:#E5C4A3;}
	.st35{fill:#C59B6D;}
	.st36{fill:#333333;}
	.st37{fill:#A57C52;}
	.st38{fill:#FAC88F;}
	.st39{fill:#FFD6AE;}
	.st40{fill:#EDB680;}
	.st41{fill:#EA7171;}
	.st42{fill:#FF8B8B;}
	.st43{fill:#CDEBFF;}
	.st44{fill:#25A8C1;}
	.st45{opacity:0.4;fill:#FFFFFF;enable-background:new    ;}
	.st46{fill:#B6CDE2;}
	.st47{fill:#F05A24;}
	.st48{fill:#FCFCFC;}
	.st49{fill:#E8E3DF;}
	.st50{fill:#A8A3A0;}
	.st51{fill:#C9C4C1;}
	.st52{fill:#8B6239;}
	.st53{fill:#F8FBFC;}
</style>
<path class="st0" d="M27.5,269.3c0,0,25.5-41.3-8.6-79.6s-18-85.1,16.3-90.9s88.9,7.3,110.5-22.2s58.2-45.9,96.6-30.2
	s33.5,46,52,55.8s28,15.9,64.3,4s85.5,9.4,76.9,76.8s21,92.4,21,92.4s57.7,54.7,11.2,110.7s-104.3,1.5-143,20.5
	s-40.5,61.7-112.1,55.1s-64.2-73.1-111.5-75.6C53.7,383.6-12.5,345.9,27.5,269.3z"/>
<g id="OBJECTS">
	<g>
		<g>
			<path class="st1" d="M313.7,297.8H175.4c-1.8,0-3.2,1.4-3.2,3.2v23.3c0,1.8,1.4,3.2,3.2,3.2h138.3V297.8z"/>
			<rect x="172.1" y="321.5" class="st2" width="141.6" height="1.4"/>
			<rect x="172.1" y="312.6" class="st2" width="141.6" height="0.7"/>
			<rect x="172.1" y="306.7" class="st2" width="141.6" height="2.1"/>
			<path class="st2" d="M172.1,301v0.9h141.6v-4.2H175.4C173.6,297.8,172.1,299.2,172.1,301z"/>
			<path class="st3" d="M175.4,298.7H317v-2H175.4c-2.3,0-4.2,1.9-4.2,4.2v23.3c0,2.3,1.9,4.2,4.2,4.2H317v-2H175.4
				c-1.2,0-2.2-1-2.2-2.2V301C173.1,299.8,174.1,298.7,175.4,298.7z"/>
			<polygon class="st4" points="196.5,320.6 192.6,318.9 188.7,320.6 188.7,306.7 196.5,306.7 			"/>
		</g>
		<g>
			<path class="st1" d="M328.4,329.4H163c-1.8,0-3.2,1.4-3.2,3.2v37.7c0,1.8,1.4,3.2,3.2,3.2h165.3v-44.1L328.4,329.4L328.4,329.4z"
				/>
			<rect x="159.8" y="362.9" class="st2" width="168.5" height="2.7"/>
			<rect x="159.8" y="344.3" class="st2" width="168.5" height="0.7"/>
			<rect x="159.8" y="338.3" class="st2" width="168.5" height="2.1"/>
			<path class="st2" d="M159.8,332.7v0.9h168.5v-4.2H163C161.3,329.4,159.8,330.9,159.8,332.7z"/>
			<path class="st5" d="M163,330.4h168.6v-2H163c-2.3,0-4.2,1.9-4.2,4.2v37.7c0,2.3,1.9,4.2,4.2,4.2h168.6v-2H163
				c-1.2,0-2.2-1-2.2-2.2v-37.7C160.8,331.4,161.8,330.4,163,330.4z"/>
			<polygon class="st4" points="184.2,352.3 180.3,350.6 176.4,352.3 176.4,338.3 184.2,338.3 			"/>
		</g>
		<g>
			<path class="st1" d="M307.8,271.5H169.5c-1.8,0-3.2,1.4-3.2,3.2v17.9c0,1.8,1.4,3.2,3.2,3.2h138.3V271.5z"/>
			<rect x="166.3" y="292.6" class="st2" width="141.6" height="1.4"/>
			<rect x="166.3" y="283.7" class="st2" width="141.6" height="0.7"/>
			<rect x="166.3" y="277.8" class="st2" width="141.6" height="2.1"/>
			<path class="st2" d="M166.3,274.7v0.9h141.6v-4.2H169.5C167.7,271.5,166.3,272.9,166.3,274.7z"/>
			<path class="st6" d="M169.5,272.4h141.6v-2H169.5c-2.3,0-4.2,1.9-4.2,4.2v17.9c0,2.3,1.9,4.2,4.2,4.2h141.6v-2H169.5
				c-1.2,0-2.2-1-2.2-2.2v-17.9C167.3,273.4,168.3,272.4,169.5,272.4z"/>
			<polygon class="st4" points="190.7,291.7 186.8,290 182.8,291.7 182.8,277.8 190.7,277.8 			"/>
		</g>
		<g>
			<path class="st1" d="M328.4,245.1H176.3c-1.8,0-3.2,1.4-3.2,3.2v17.9c0,1.8,1.4,3.2,3.2,3.2h152.1L328.4,245.1L328.4,245.1z"/>
			<rect x="173.1" y="266.3" class="st2" width="155.3" height="1.4"/>
			<rect x="173.1" y="257.4" class="st2" width="155.3" height="0.7"/>
			<rect x="173.1" y="251.5" class="st2" width="155.3" height="2.1"/>
			<path class="st2" d="M173.1,248.4v0.9h155.3v-4.2H176.3C174.5,245.1,173.1,246.6,173.1,248.4z"/>
			<path class="st7" d="M176.3,246.1h155.4v-2H176.3c-2.3,0-4.2,1.9-4.2,4.2v17.9c0,2.3,1.9,4.2,4.2,4.2h155.4v-2H176.3
				c-1.2,0-2.2-1-2.2-2.2v-17.9C174,247.1,175.1,246.1,176.3,246.1z"/>
			<polygon class="st4" points="197.4,265.4 193.5,263.7 189.6,265.4 189.6,251.5 197.4,251.5 			"/>
		</g>
		<g>
			<path class="st1" d="M284.3,216.3h-99.8c-1.8,0-3.2,1.4-3.2,3.2V240c0,1.8,1.4,3.2,3.2,3.2h99.8V216.3z"/>
			<rect x="181.3" y="240" class="st2" width="103" height="1.4"/>
			<rect x="181.3" y="231.1" class="st2" width="103" height="0.7"/>
			<rect x="181.3" y="225.2" class="st2" width="103" height="2.1"/>
			<path class="st2" d="M181.3,219.5v0.9h103v-4.2h-99.8C182.7,216.3,181.3,217.7,181.3,219.5z"/>
			<path class="st8" d="M184.5,217.2h103.1v-2H184.5c-2.3,0-4.2,1.9-4.2,4.2V240c0,2.3,1.9,4.2,4.2,4.2h103.1v-2H184.5
				c-1.2,0-2.2-1-2.2-2.2v-20.5C182.2,218.2,183.2,217.2,184.5,217.2z"/>
			<polygon class="st4" points="205.6,239.1 201.7,237.4 197.8,239.1 197.8,225.2 205.6,225.2 			"/>
		</g>
	</g>
	<g>
		<g>
			<path class="st9" d="M70.1,367.7l15.2-37.3c1.3-3.1,1.9-6.6,1.9-10.2v-40.1h11.7h11.7v40.1c0,3.6,0.7,7.1,1.9,10.2l15.2,37.3
				c1.3,3.2-0.3,7.2-2.9,7.2H98.9H73.1C70.5,374.9,68.8,370.9,70.1,367.7z"/>
			<path class="st10" d="M82.5,342.2c5.5,1.4,11.7,2.3,15.4,0.9c4.8-1.8,12.1-2.1,17.1-1.9l11.1,27.3c0.6,1.5,0.3,3.1-0.3,4
				c-0.2,0.2-0.5,0.7-0.9,0.7H73.1c-0.4,0-0.8-0.4-0.9-0.7c-0.6-0.9-0.9-2.5-0.3-4L82.5,342.2z"/>
			<path class="st11" d="M108.4,280.1v44.1c0,1.9,0.3,3.7,1,5.4l12.2,31.3c1.5,3.8-1.3,7.8-5.4,7.8h-5.5c-2.8,0-5.3-2.1-5.7-4.9
				L99.8,328l-0.9-47.9H108.4z"/>
			<path class="st9" d="M86.1,275.9h25.7c1.3,0,2.4,1.1,2.4,2.4s-1.1,2.4-2.4,2.4H86.1c-1.3,0-2.4-1.1-2.4-2.4
				C83.6,277,84.7,275.9,86.1,275.9z"/>
			<g class="st12">
				<path class="st13" d="M87,278h25.1c0.5,0,0.9-0.4,0.9-0.9s-0.4-0.9-0.9-0.9H87c-0.5,0-0.9,0.4-0.9,0.9S86.5,278,87,278z"/>
			</g>
		</g>
		<g>
			<path class="st9" d="M104.8,368.5l18.1-44.5c1.5-3.7,2.3-7.9,2.3-12.2v-46.9h14h14v46.9c0,4.3,0.8,8.5,2.3,12.2l18.1,44.5
				c1.5,3.8-0.4,8.6-3.5,8.6h-30.9h-30.9C105.2,377.1,103.2,372.3,104.8,368.5z"/>
			<path class="st14" d="M119.5,338.1c6.6,1.6,14,2.7,18.4,1c5.7-2.2,14.5-2.4,20.4-2.3l13.2,32.6c0.7,1.8,0.3,3.7-0.4,4.8
				c-0.2,0.3-0.6,0.8-1.1,0.8h-61.8c-0.5,0-0.9-0.5-1.1-0.8c-0.7-1-1.1-3-0.4-4.8L119.5,338.1z"/>
			<path class="st11" d="M150.5,264.9v51.6c0,2.2,0.4,4.4,1.2,6.5l14.6,37.4c1.8,4.5-1.6,9.4-6.4,9.4h-6.5c-3.4,0-6.3-2.5-6.8-5.9
				l-6.3-42.8l-1.1-56.1h11.3V264.9z"/>
			<path class="st9" d="M123.8,259.9h30.7c1.6,0,2.9,1.3,2.9,2.9s-1.3,2.9-2.9,2.9h-30.7c-1.6,0-2.9-1.3-2.9-2.9
				S122.2,259.9,123.8,259.9z"/>
			<g class="st15">
				<path class="st11" d="M124.9,262.5h30c0.6,0,1.1-0.5,1.1-1.1s-0.5-1.1-1.1-1.1h-30c-0.6,0-1.1,0.5-1.1,1.1
					C123.9,262,124.3,262.5,124.9,262.5z"/>
			</g>
		</g>
		<path class="st16" d="M130.5,351.9c0,1.6,1.3,2.9,2.9,2.9c1.6,0,2.9-1.3,2.9-2.9s-1.3-2.9-2.9-2.9S130.5,350.3,130.5,351.9z"/>
		<path class="st16" d="M140.4,360.8c0,2.8,2.2,5,5,5s5-2.2,5-5s-2.2-5-5-5C142.6,355.8,140.4,358.1,140.4,360.8z"/>
		<path class="st16" d="M120.7,360c0,1.4,1.1,2.5,2.5,2.5s2.5-1.1,2.5-2.5s-1.1-2.5-2.5-2.5C121.8,357.5,120.7,358.6,120.7,360z"/>
		<path class="st16" d="M127.6,334.3c0,1.4,1.1,2.5,2.5,2.5c1.4,0,2.5-1.1,2.5-2.5s-1.1-2.5-2.5-2.5
			C128.7,331.8,127.6,332.9,127.6,334.3z"/>
		<path class="st16" d="M101.1,354.4c0,1.4,1.1,2.5,2.5,2.5s2.5-1.1,2.5-2.5s-1.1-2.5-2.5-2.5S101.1,353,101.1,354.4z"/>
		<path class="st16" d="M87.5,353.8c0,1.4,1.1,2.5,2.5,2.5s2.5-1.1,2.5-2.5s-1.1-2.5-2.5-2.5S87.5,352.5,87.5,353.8z"/>
		<path class="st16" d="M91.4,368.6c0,1,0.8,1.7,1.7,1.7c1,0,1.7-0.8,1.7-1.7c0-1-0.8-1.7-1.7-1.7C92.2,366.8,91.4,367.6,91.4,368.6
			z"/>
		<path class="st16" d="M90,337.9c0,1,0.8,1.7,1.7,1.7c1,0,1.7-0.8,1.7-1.7c0-1-0.8-1.7-1.7-1.7C90.8,336.2,90,336.9,90,337.9z"/>
		<path class="st16" d="M96.2,349c0,1,0.8,1.7,1.7,1.7s1.7-0.8,1.7-1.7c0-1-0.8-1.7-1.7-1.7S96.2,348.1,96.2,349z"/>
		<path class="st16" d="M80.3,364.9c0,2,1.6,3.6,3.6,3.6s3.6-1.6,3.6-3.6s-1.6-3.6-3.6-3.6S80.3,362.9,80.3,364.9z"/>
	</g>
	<g>
		<path class="st17" d="M338.8,131.4c-10.6-1.8-20.8,5.2-22.9,15.8c-1,4.8-0.1,9.6,2.1,13.6c2,3.6,2.7,7.8,1.9,11.9v0.2
			c-0.4,1.9,0.9,3.8,2.8,4.2l6.8,1.4l6.8,1.4c1.9,0.4,3.8-0.9,4.2-2.8v-0.2c0.8-4.1,3.1-7.7,6.3-10.2c3.6-2.8,6.2-6.9,7.2-11.7
			C356,144.2,349.3,133.9,338.8,131.4z"/>
		<path class="st18" d="M336.8,179.9l-14.7-3c-0.9-0.2-1.7,0.4-1.9,1.3c-0.2,0.9,0.4,1.7,1.3,1.9l14.7,3c0.9,0.2,1.7-0.4,1.9-1.3
			C338.2,180.9,337.7,180.1,336.8,179.9z"/>
		<path class="st18" d="M336.1,183.1l-14.7-3c-0.9-0.2-1.7,0.4-1.9,1.3c-0.2,0.9,0.4,1.7,1.3,1.9l14.7,3c0.9,0.2,1.7-0.4,1.9-1.3
			C337.6,184.1,337,183.2,336.1,183.1z"/>
		<path class="st18" d="M335.5,186.2l-14.7-3c-0.9-0.2-1.7,0.4-1.9,1.3c-0.2,0.9,0.4,1.7,1.3,1.9l14.7,3c0.9,0.2,1.7-0.4,1.9-1.3
			C337,187.3,336.4,186.4,335.5,186.2z"/>
		<path class="st18" d="M334.1,189.3l-13.2-2.6c-0.8-0.2-1.6,0.4-1.7,1.3c-0.2,0.9,0.3,1.7,1.1,1.9l13.2,2.6
			c0.8,0.2,1.6-0.4,1.7-1.3C335.4,190.3,334.9,189.4,334.1,189.3z"/>
		<path class="st19" d="M326,195.7c2.5,0.5,4.9-1.1,5.4-3.6l-9.1-1.8C321.8,192.7,323.5,195.2,326,195.7z"/>
		<path class="st20" d="M322.6,192.9c0.6,1.4,1.8,2.4,3.4,2.8c1.6,0.3,3.1-0.2,4.2-1.2L322.6,192.9z"/>
		<path class="st20" d="M322,176.9c-0.9-0.2-1.7,0.4-1.9,1.3c-0.1,0.6,0.1,1.2,0.6,1.6l15.9,0.1L322,176.9z"/>
		<path class="st20" d="M336.1,183.1l-14.7-3c-0.9-0.2-1.7,0.4-1.9,1.3c-0.2,0.8,0.2,1.5,0.9,1.8l16.2,0.1
			C336.5,183.2,336.3,183.1,336.1,183.1z"/>
		<path class="st20" d="M335.5,186.2l-14.7-3c-0.9-0.2-1.7,0.4-1.9,1.3c-0.1,0.7,0.2,1.3,0.7,1.7l16.2,0.1
			C335.7,186.3,335.6,186.3,335.5,186.2z"/>
		<path class="st20" d="M334.1,189.3L334.1,189.3l-13.2-2.7c-0.8-0.2-1.6,0.4-1.7,1.3c-0.1,0.6,0.1,1.1,0.4,1.5L334.1,189.3z"/>
		<g>
			<path class="st21" d="M326.1,177.7l-0.9-0.2l2.6-21.9c0.3-1.3,1.5-2.2,2.8-1.9l-0.2,0.9c-0.8-0.2-1.6,0.4-1.8,1.2L326.1,177.7z"
				/>
		</g>
		<g>
			<path class="st21" d="M332.9,179.1l-0.9-0.2l6.7-21.1c0.2-0.8-0.4-1.6-1.2-1.8l0.2-0.9c1.3,0.3,2.2,1.5,1.9,2.8L332.9,179.1z"/>
		</g>
		<g>
			<path class="st22" d="M330.2,156.2c-0.1,0-0.2-0.2-0.2-0.3l0.5-2.3c0-0.2,0.2-0.4,0.4-0.4c0.2,0,0.4,0.1,0.5,0.3l0.4,1.4l0.2-1.2
				c0-0.2,0.2-0.4,0.4-0.4c0.2,0,0.4,0.1,0.5,0.3l0.6,1.9l0.2-1.2c0-0.2,0.2-0.4,0.5-0.4c0.2,0,0.4,0.2,0.5,0.4l0.2,1.2l0.2-0.9
				c0-0.2,0.2-0.4,0.4-0.4c0.2,0,0.4,0.1,0.5,0.4l0.3,1.2l0.1-0.6c0-0.2,0.2-0.4,0.5-0.4c0.2,0,0.4,0.2,0.4,0.4l0.1,0.5l0.3-1.6
				c0-0.1,0.2-0.2,0.3-0.2s0.2,0.2,0.2,0.3l-0.4,1.8c0,0.2-0.2,0.4-0.5,0.4c-0.2,0-0.4-0.2-0.4-0.4l-0.1-0.5l-0.1,0.5
				c0,0.2-0.2,0.4-0.5,0.4c-0.2,0-0.4-0.1-0.5-0.4l-0.3-1.2l-0.2,0.9c0,0.2-0.2,0.4-0.5,0.4c-0.2,0-0.4-0.2-0.5-0.4l-0.2-1.2
				l-0.2,1.2c0,0.2-0.2,0.4-0.4,0.4c-0.2,0-0.4-0.1-0.5-0.3l-0.6-1.9l-0.2,1.2c0,0.2-0.2,0.4-0.4,0.4c-0.2,0-0.4-0.1-0.5-0.3
				l-0.4-1.4l-0.4,2.2C330.5,156.1,330.3,156.2,330.2,156.2z"/>
		</g>
		
			<ellipse transform="matrix(0.5952 -0.8036 0.8036 0.5952 15.4062 326.0164)" class="st23" cx="331.3" cy="147.7" rx="16.8" ry="13.5"/>
	</g>
	<g>
		<g>
			
				<rect x="320.5" y="222.3" transform="matrix(0.5849 -0.8111 0.8111 0.5849 -39.9242 389.8618)" class="st24" width="80.9" height="23.3"/>
			
				<rect x="313.1" y="227.5" transform="matrix(0.5849 -0.8111 0.8111 0.5849 -38.7285 381.7362)" class="st25" width="80.9" height="2.4"/>
			
				<rect x="324.6" y="231.9" transform="matrix(0.5849 -0.8111 0.8111 0.5849 -40.6838 394.5022)" class="st26" width="80.9" height="10.2"/>
			<g>
				<path class="st27" d="M397.5,204.8L377,190c-1-0.7-2.5-0.5-3.2,0.5s-0.5,2.5,0.5,3.2l20.4,14.7c1,0.7,2.5,0.5,3.2-0.5
					C398.7,206.9,398.5,205.5,397.5,204.8z"/>
				<path class="st28" d="M377,190c-1-0.7-2.5-0.5-3.2,0.5c-0.2,0.2-0.3,0.5-0.4,0.8c0.1,0.1,0.2,0.3,0.4,0.4l20.4,14.7
					c1,0.7,2.5,0.5,3.2-0.5c0.2-0.2,0.3-0.5,0.4-0.8c-0.1-0.1-0.2-0.3-0.4-0.4L377,190z"/>
			</g>
			<g>
				<path class="st27" d="M347.5,274.1l-20.4-14.7c-1-0.7-2.5-0.5-3.2,0.5s-0.5,2.5,0.5,3.2l20.4,14.7c1,0.7,2.5,0.5,3.2-0.5
					C348.7,276.3,348.5,274.8,347.5,274.1z"/>
				<path class="st28" d="M327.1,259.4c-1-0.7-2.5-0.5-3.2,0.5c-0.2,0.2-0.3,0.5-0.4,0.8c0.1,0.1,0.2,0.3,0.4,0.4l20.4,14.7
					c1,0.7,2.5,0.5,3.2-0.5c0.2-0.2,0.3-0.5,0.4-0.8c-0.1-0.1-0.2-0.3-0.4-0.4L327.1,259.4z"/>
			</g>
			
				<rect x="385" y="182.5" transform="matrix(0.5849 -0.8111 0.8111 0.5849 5.6086 396.7398)" class="st24" width="10.9" height="20.8"/>
			
				<rect x="326" y="264.4" transform="matrix(0.5849 -0.8111 0.8111 0.5849 -85.3382 382.9462)" class="st24" width="10.9" height="20.8"/>
			
				<rect x="319.6" y="276.7" transform="matrix(0.5849 -0.8111 0.8111 0.5849 -95.2237 381.4101)" class="st28" width="10.9" height="14.1"/>
			
				<rect x="321.5" y="280.9" transform="matrix(0.5849 -0.8111 0.8111 0.5849 -95.472 383.4561)" class="st27" width="10.9" height="8.2"/>
			
				<rect x="329" y="271.8" transform="matrix(0.5849 -0.8111 0.8111 0.5849 -85.894 386.3081)" class="st26" width="10.9" height="10.5"/>
			
				<rect x="319.5" y="268.8" transform="matrix(0.5849 -0.8111 0.8111 0.5849 -84.3029 375.7568)" class="st25" width="10.9" height="2.9"/>
			
				<rect x="389" y="191.4" transform="matrix(0.5849 -0.8111 0.8111 0.5849 4.8771 401.2276)" class="st26" width="10.9" height="8.9"/>
			
				<rect x="378.8" y="187" transform="matrix(0.5849 -0.8111 0.8111 0.5849 6.6734 389.8293)" class="st25" width="10.9" height="2.8"/>
			<polygon class="st28" points="405.1,185.7 398.9,181.2 392.8,176.8 385.2,182.5 393.6,188.5 402.1,194.6 			"/>
			<path class="st27" d="M399.5,181.6c-0.1,0.1-4,8.2-4,8.2l5.8,4.2l2.8-9.1L399.5,181.6z"/>
		</g>
		<g>
			<polygon class="st24" points="365.3,330.2 283.1,305 284.5,301.2 366.6,326.4 			"/>
		</g>
		<g>
			<path class="st24" d="M366.1,335.9l-0.3-15.1c24-0.5,43.2-20.5,42.7-44.5c-0.4-19.2-13.1-35.7-31.5-41l4.2-14.6
				c11.8,3.4,22.5,10.6,30,20.3c7.9,10,12.2,22.1,12.4,34.9C424.3,308.3,398.5,335.2,366.1,335.9z"/>
		</g>
		<path class="st29" d="M409.6,285.1c3.4-29.4-15.2-40.1-15.2-40.1l0,0c8.5,7.8,13.8,18.9,14,31.1c0.5,24-18.6,44-42.7,44.5l0.5,3.8
			C375.9,323,405.9,316.5,409.6,285.1z"/>
		<g>
			
				<rect x="358.1" y="328.3" transform="matrix(0.9998 -2.143388e-02 2.143388e-02 0.9998 -7.2433 7.9289)" class="st24" width="16.3" height="27.1"/>
		</g>
		<path class="st30" d="M382,327.8c-0.1-3.5-1.3-6.7-3.3-9.3c-4.1,1.4-8.4,2.1-12.9,2.2l0.3,15.1c5.2-0.1,10.2-0.9,14.9-2.3
			C381.7,331.8,382.1,329.9,382,327.8z"/>
		<path class="st8" d="M358.1,341.6c2.5,1.5,5.4,2.3,8.5,2.3c2.8-0.1,5.5-0.9,7.8-2.2l-0.3-13.5l-16.3,0.3L358.1,341.6z"/>
		<ellipse class="st28" cx="366.3" cy="328.1" rx="14.4" ry="14.4"/>
		<ellipse class="st27" cx="366.3" cy="328.1" rx="11.7" ry="11.7"/>
		<path class="st28" d="M371.4,328c0.1,2.9-2.2,5.2-5.1,5.3c-2.9,0.1-5.2-2.2-5.3-5.1c-0.1-2.9,2.2-5.2,5.1-5.3
			C369,322.9,371.4,325.2,371.4,328z"/>
		<path class="st28" d="M391.5,227.9c0.1,6.6-5.1,12-11.6,12.1c-6.6,0.1-12-5.1-12.1-11.6c-0.1-6.6,5.1-12,11.6-12.1
			C386,216.2,391.4,221.4,391.5,227.9z"/>
		<path class="st27" d="M389.4,228c0.1,5.4-4.2,9.9-9.6,10s-9.9-4.2-10-9.6c-0.1-5.4,4.2-9.9,9.6-10
			C384.8,218.3,389.3,222.6,389.4,228z"/>
		<path class="st28" d="M384.4,228.1c0.1,2.6-2,4.8-4.6,4.8c-2.6,0.1-4.8-2-4.8-4.6c-0.1-2.6,2-4.8,4.6-4.8
			C382.2,223.4,384.3,225.5,384.4,228.1z"/>
		<polygon class="st27" points="308.6,356.6 408.6,354.5 425.6,370.7 296.1,373.5 		"/>
	</g>
	<g>
		<polygon class="st31" points="109.5,162.8 111.1,161.4 144.2,199.2 142.6,200.6 		"/>
		<polygon class="st32" points="105.3,166.5 106.9,165.1 140,202.8 138.4,204.2 		"/>
		<polygon class="st33" points="106.9,165.1 109.5,162.8 142.6,200.6 140,202.8 		"/>
		<polygon class="st31" points="144.2,199.2 152.5,214.4 138.4,204.2 		"/>
		<path class="st34" d="M152.5,214.4l-8.3-15.3c0,0-1.5-0.7-2.4,0.5c0,0-1-0.3-1.9,0.4s-0.6,1.9-0.6,1.9s-1.4,0.6-0.9,2.2
			L152.5,214.4z"/>
		<path class="st35" d="M152.5,214.4L152.5,214.4l-8.3-15.3c0,0-1.5-0.7-2.4,0.5c0,0-0.6-0.2-1.2,0L152.5,214.4z"/>
		<path class="st36" d="M148.5,207.2c-0.6,0.2-1.2,0.5-1.7,0.9s-0.8,0.9-1.1,1.5l6.7,4.9L148.5,207.2z"/>
		
			<rect x="103.6" y="163.5" transform="matrix(0.7528 -0.6582 0.6582 0.7528 -81.1223 111.5855)" class="st37" width="8.8" height="0.6"/>
		
			<rect x="98.1" y="157.2" transform="matrix(0.7528 -0.6582 0.6582 0.7528 -78.3143 106.3971)" class="st37" width="8.8" height="0.6"/>
		
			<rect x="101.2" y="156.7" transform="matrix(0.7528 -0.6582 0.6582 0.7528 -79.705 108.9222)" class="st38" width="8" height="7.8"/>
		
			<rect x="102" y="158.9" transform="matrix(0.7528 -0.6582 0.6582 0.7528 -81.7557 107.8921)" class="st39" width="1.5" height="7.8"/>
		
			<rect x="106.5" y="154.7" transform="matrix(0.7528 -0.6582 0.6582 0.7528 -77.8485 109.9409)" class="st40" width="1.9" height="7.8"/>
		<path class="st41" d="M105.1,154.8l-5-5.7c-0.9-1-2.4-1.2-3.3-0.3l-2.2,1.9c-0.9,0.8-1,2.3-0.1,3.3l5,5.7L105.1,154.8z"/>
		<path class="st42" d="M98.9,150.4c-0.9-1-2.4-1.2-3.3-0.3l-1.7,1.5c-0.3,0.8-0.1,1.7,0.5,2.4l5,5.7l4.3-3.7L98.9,150.4z"/>
	</g>
	<g>
		<path class="st13" d="M386.1,333.2c1.6-1,2.6-2.8,2.6-4.6l-0.6-41.1l17.8-0.2l0.6,41.1c0,1.9,1,3.6,2.7,4.6
			c6.9,3.9,11.7,11.3,11.8,19.8c0.2,12.5-9.9,23-22.4,23.3c-12.8,0.4-23.5-9.9-23.6-22.7C374.8,344.7,379.3,337.2,386.1,333.2z"/>
		<path class="st43" d="M387.3,328.5c0,1.4-0.7,2.8-1.9,3.5l0,0c-7.4,4.4-12,12.6-11.8,21.2c0.1,6.6,2.7,12.7,7.5,17.2
			c4.6,4.5,10.7,6.9,17.2,6.8c0.1,0,0.2,0,0.3,0c13.2-0.4,23.8-11.4,23.6-24.6c-0.1-8.7-4.9-16.7-12.4-20.9c-1.2-0.7-2-2-2-3.4
			l-0.6-42.5l-20.4,0.3"/>
		<path class="st44" d="M400.1,345.9c8.5-1.8,16-0.8,19.7,0c0.7,2.1,1,4.3,1.1,6.5c0.2,12.5-9.9,23-22.4,23.3
			c-6.2,0.2-12.1-2.1-16.6-6.4s-7-10.1-7.1-16.3c0-3.6,0.8-7.1,2.3-10.2C384.5,345.6,393.5,347.3,400.1,345.9z"/>
		<path class="st43" d="M385.2,279.4l23.4-0.3c2.2,0,4,1.7,4.1,4c0,2.2-1.7,4-4,4.1l-23.4,0.3c-2.2,0-4-1.7-4.1-4
			C381.2,281.2,383,279.4,385.2,279.4z"/>
		<g>
			<path class="st13" d="M403.1,325.9c0.7,0,1.3-0.6,1.3-1.3l-0.4-30.7c0-0.7-0.6-1.3-1.3-1.3c-0.7,0-1.3,0.6-1.3,1.3l0.4,30.7
				C401.8,325.3,402.4,325.9,403.1,325.9z"/>
		</g>
		<path class="st45" d="M398,351.4c4.2,7.8,11.8,11.8,17,9s6-11.4,1.8-19.2c-4.2-7.8-11.8-11.8-17-9
			C394.6,335.1,393.8,343.7,398,351.4z"/>
	</g>
	<g>
		<g>
			<path class="st46" d="M413.4,152c-15.3,5.8-32.4-1.9-38.2-17.2c-5.8-15.3,1.9-32.4,17.2-38.2c15.3-5.8,32.4,1.9,38.2,17.2
				C436.4,129,428.7,146.2,413.4,152z M393.1,98.4c-14.2,5.4-21.4,21.4-16,35.6s21.4,21.4,35.6,16s21.4-21.4,16-35.6
				C423.3,100.2,407.4,93,393.1,98.4z"/>
			<path class="st46" d="M406.8,134.5L406.8,134.5c-1.3,0.5-2.6,0.9-3.8,1.3c-0.5,0.2-1.1-0.1-1.3-0.6c-0.2-0.5,0.1-1.1,0.6-1.3
				c1.2-0.4,2.5-0.8,3.7-1.3c0.5-0.2,1.1,0.1,1.3,0.6C407.6,133.7,407.3,134.3,406.8,134.5z M410.5,133c-0.5,0.2-1.1,0-1.3-0.5
				c-0.2-0.5,0-1.1,0.5-1.3c1.2-0.5,2.4-1.1,3.6-1.7c0.5-0.2,1.1,0,1.3,0.4c0.2,0.5,0,1.1-0.4,1.3C413,131.9,411.8,132.4,410.5,133
				L410.5,133z M399.2,137C399.1,137,399.1,137,399.2,137c-1.4,0.4-2.8,0.7-4.1,1c-0.5,0.1-1.1-0.2-1.2-0.8
				c-0.1-0.5,0.2-1.1,0.8-1.2c1.3-0.3,2.5-0.6,3.8-0.9c0.5-0.1,1.1,0.2,1.2,0.7C399.9,136.3,399.6,136.8,399.2,137z M417.7,129.4
				c-0.5,0.2-1,0-1.2-0.4c-0.3-0.5-0.1-1.1,0.4-1.4c1.2-0.7,2.3-1.4,3.3-2.1c0.5-0.3,1.1-0.2,1.4,0.3s0.2,1.1-0.3,1.4
				C420.2,127.9,419.1,128.7,417.7,129.4C417.8,129.4,417.7,129.4,417.7,129.4z M391.3,138.6c-0.1,0-0.1,0-0.2,0.1
				c-1.4,0.2-2.8,0.3-4.1,0.4c-0.6,0-1-0.4-1-1s0.4-1,1-1c1.2,0,2.5-0.2,3.9-0.3c0.5-0.1,1.1,0.3,1.1,0.9
				C392,138,391.7,138.4,391.3,138.6z M424.3,124.9c-0.4,0.1-0.8,0-1.1-0.3c-0.3-0.4-0.3-1.1,0.1-1.4c1.1-0.9,2-1.8,2.8-2.6
				c0.4-0.4,1-0.4,1.4-0.1c0.4,0.4,0.4,1,0.1,1.4c-0.9,0.9-1.9,1.9-3,2.8C424.5,124.8,424.4,124.9,424.3,124.9z M383.3,138.8
				c-0.1,0.1-0.3,0.1-0.5,0.1c-1.6-0.2-3-0.5-4.2-1c-0.5-0.2-0.8-0.8-0.5-1.3c0.2-0.5,0.8-0.8,1.3-0.5c1,0.4,2.2,0.7,3.6,0.8
				c0.5,0.1,0.9,0.5,0.9,1.1C383.9,138.4,383.6,138.7,383.3,138.8z M429.6,118.9c-0.2,0.1-0.5,0.1-0.8,0c-0.5-0.2-0.7-0.8-0.5-1.3
				c0.6-1.2,0.7-2.2,0.4-3.1c-0.2-0.5,0-1.1,0.6-1.3c0.5-0.2,1.1,0,1.3,0.5v0.1c0.5,1.4,0.4,3-0.5,4.7
				C430,118.7,429.8,118.8,429.6,118.9z M376.5,135.3c-0.5,0.2-1.1,0-1.3-0.6l0,0c-0.5-1.4-0.4-2.9,0.4-4.6c0.2-0.5,0.8-0.7,1.3-0.5
				s0.7,0.8,0.5,1.3c-0.6,1.2-0.7,2.2-0.4,3C377.3,134.5,377,135.1,376.5,135.3z M427.1,112.4c-0.2,0.1-0.5,0.1-0.7,0
				c-1-0.4-2.2-0.7-3.6-0.8c-0.5-0.1-1-0.5-0.9-1.1c0.1-0.5,0.5-0.9,1.1-0.9c1.6,0.2,3,0.5,4.2,0.9c0.5,0.2,0.8,0.8,0.6,1.3
				C427.5,112.1,427.3,112.3,427.1,112.4z M379.2,128.2c-0.3,0.1-0.7,0.1-1-0.2c-0.4-0.4-0.4-1-0.1-1.4c0.9-0.9,1.9-1.9,3-2.8
				c0.4-0.3,1.1-0.3,1.4,0.1s0.3,1.1-0.1,1.4c-1.1,0.9-2,1.8-2.8,2.6C379.5,128.1,379.3,128.2,379.2,128.2z M419.1,111.4
				c-0.1,0-0.2,0.1-0.3,0.1c-1.2,0.1-2.5,0.2-3.9,0.4c-0.5,0.1-1.1-0.3-1.1-0.9c-0.1-0.5,0.3-1,0.9-1.1c1.4-0.2,2.8-0.3,4.1-0.4
				c0.6,0,1,0.4,1,1C419.8,110.9,419.5,111.3,419.1,111.4z M385.4,123.1c-0.4,0.2-0.9,0-1.2-0.4c-0.3-0.5-0.2-1.1,0.3-1.4
				c1.1-0.7,2.3-1.5,3.5-2.2c0.5-0.3,1.1-0.1,1.4,0.4s0.1,1.1-0.4,1.4c-1.2,0.7-2.3,1.4-3.3,2.1
				C385.5,123.1,385.4,123.1,385.4,123.1z M411.2,112.5c0,0-0.1,0-0.2,0c-1.3,0.3-2.6,0.6-3.8,0.9c-0.5,0.1-1.1-0.2-1.2-0.7
				s0.2-1.1,0.7-1.2c1.3-0.4,2.7-0.7,4-0.9c0.5-0.1,1.1,0.2,1.2,0.8C411.9,111.8,411.6,112.3,411.2,112.5z M392.3,119.1
				c-0.5,0.2-1,0-1.2-0.5s0-1.1,0.4-1.3c1.2-0.6,2.4-1.2,3.7-1.7c0.5-0.2,1.1,0,1.3,0.5c0.2,0.5,0,1.1-0.5,1.3
				C394.8,117.9,393.6,118.5,392.3,119.1C392.4,119.1,392.3,119.1,392.3,119.1z M403.4,114.5C403.4,114.6,403.4,114.6,403.4,114.5
				c-1.3,0.4-2.5,0.8-3.7,1.3c-0.5,0.2-1.1-0.1-1.3-0.6c-0.2-0.5,0-1.1,0.6-1.3h0.1c1.2-0.5,2.5-0.9,3.8-1.3
				c0.5-0.2,1.1,0.1,1.3,0.6C404.2,113.8,403.9,114.4,403.4,114.5z"/>
			<path class="st46" d="M413.4,152L413.4,152c-1.4,0.5-2.9,0.4-4.6-0.5c-0.5-0.2-0.7-0.8-0.5-1.3s0.8-0.7,1.3-0.5
				c1.2,0.6,2.2,0.7,3.1,0.4c0.5-0.2,1.1,0,1.3,0.6C414.2,151.1,414,151.7,413.4,152C413.5,151.9,413.4,151.9,413.4,152z M416,149
				c-0.2,0.1-0.5,0.1-0.7,0c-0.5-0.2-0.8-0.8-0.6-1.3c0.4-1,0.7-2.2,0.8-3.6c0.1-0.6,0.5-0.9,1.1-0.9c0.5,0.1,1,0.5,0.9,1.1
				c-0.2,1.6-0.5,3-0.9,4.2C416.5,148.7,416.3,148.9,416,149z M406.3,149.2c-0.3,0.1-0.7,0.1-1-0.2c-0.9-0.9-1.9-1.9-2.8-3
				c-0.3-0.4-0.3-1.1,0.1-1.4c0.4-0.4,1.1-0.3,1.4,0.1c0.9,1.1,1.8,2,2.6,2.8c0.4,0.4,0.4,1,0.1,1.4
				C406.5,149.1,406.4,149.1,406.3,149.2z M417,141.1c-0.1,0-0.2,0.1-0.3,0.1c-0.6,0-1-0.4-1-1c-0.1-1.2-0.2-2.5-0.4-3.9
				c-0.1-0.5,0.3-1,0.9-1.1c0.5-0.1,1.1,0.3,1.1,0.9c0.2,1.4,0.3,2.8,0.4,4.1C417.7,140.6,417.4,140.9,417,141.1z M401.2,143
				c-0.4,0.2-0.9,0-1.2-0.4c-0.7-1.1-1.5-2.2-2.2-3.5c-0.3-0.5-0.1-1.1,0.4-1.4c0.5-0.3,1.1-0.1,1.4,0.4c0.7,1.2,1.4,2.3,2.1,3.3
				c0.3,0.5,0.2,1.1-0.3,1.4C401.3,143,401.2,143,401.2,143z M416,133.1c0,0-0.1,0-0.2,0c-0.5,0.1-1.1-0.2-1.2-0.8
				c-0.3-1.3-0.6-2.6-0.9-3.8c-0.1-0.5,0.2-1.1,0.7-1.2s1.1,0.2,1.2,0.7c0.4,1.3,0.7,2.7,0.9,4C416.7,132.5,416.4,133,416,133.1z
				 M397.1,136.1c-0.5,0.2-1,0-1.2-0.5c-0.6-1.2-1.2-2.4-1.7-3.7c-0.2-0.5,0-1.1,0.5-1.3s1.1,0,1.3,0.5c0.5,1.2,1.1,2.4,1.7,3.6
				C397.9,135.2,397.7,135.8,397.1,136.1C397.2,136.1,397.2,136.1,397.1,136.1z M413.9,125.4L413.9,125.4c-0.6,0.2-1.1-0.1-1.3-0.6
				c-0.4-1.2-0.8-2.5-1.3-3.7c-0.2-0.5,0.1-1.1,0.6-1.3c0.5-0.2,1.1,0,1.3,0.6v0.1c0.5,1.2,0.9,2.5,1.3,3.8
				C414.6,124.7,414.4,125.2,413.9,125.4z M393.9,128.7c-0.5,0.2-1.1-0.1-1.3-0.6l0,0c-0.5-1.3-0.9-2.5-1.3-3.8
				c-0.2-0.5,0.1-1.1,0.6-1.3c0.5-0.2,1.1,0.1,1.3,0.6c0.4,1.2,0.8,2.5,1.3,3.7C394.7,127.9,394.4,128.5,393.9,128.7z M411,117.9
				c-0.5,0.2-1.1,0-1.3-0.5c-0.5-1.2-1.1-2.4-1.7-3.6c-0.2-0.5,0-1.1,0.4-1.3c0.5-0.3,1.1,0,1.3,0.4c0.6,1.2,1.2,2.4,1.7,3.7
				C411.8,117.1,411.6,117.6,411,117.9C411.1,117.9,411.1,117.9,411,117.9z M391.5,121.1C391.4,121.1,391.4,121.1,391.5,121.1
				c-0.6,0.2-1.2-0.1-1.3-0.7c-0.4-1.3-0.7-2.7-0.9-4c-0.1-0.5,0.2-1.1,0.8-1.2c0.5-0.1,1.1,0.2,1.2,0.8c0.3,1.3,0.6,2.5,0.9,3.8
				C392.2,120.4,391.9,120.9,391.5,121.1z M407.4,110.7c-0.5,0.2-1,0-1.2-0.4c-0.7-1.2-1.4-2.3-2.1-3.3c-0.3-0.5-0.2-1.1,0.3-1.4
				s1.1-0.2,1.4,0.3c0.7,1.1,1.5,2.2,2.2,3.5c0.3,0.5,0.1,1.1-0.4,1.4C407.5,110.7,407.5,110.7,407.4,110.7z M389.9,113.2
				c-0.1,0-0.1,0-0.2,0.1c-0.5,0.1-1.1-0.3-1.1-0.9c-0.2-1.4-0.3-2.8-0.4-4.1c0-0.6,0.4-1,1-1s1,0.4,1,1c0,1.2,0.2,2.5,0.3,3.9
				C390.6,112.6,390.3,113.1,389.9,113.2z M402.9,104.1c-0.4,0.1-0.8,0-1.1-0.3c-0.9-1.1-1.8-2-2.6-2.8c-0.4-0.4-0.4-1-0.1-1.4
				c0.4-0.4,1-0.4,1.4-0.1c0.9,0.9,1.9,1.9,2.8,3c0.3,0.4,0.3,1.1-0.1,1.4C403.1,104,403,104,402.9,104.1z M389.6,105.2
				c-0.1,0.1-0.3,0.1-0.5,0.1c-0.5-0.1-0.9-0.5-0.9-1.1c0.2-1.6,0.5-3,1-4.2c0.2-0.5,0.8-0.8,1.3-0.5c0.5,0.2,0.8,0.8,0.5,1.3
				c-0.4,1-0.7,2.2-0.8,3.6C390.2,104.8,389.9,105.1,389.6,105.2z M396.9,98.8c-0.2,0.1-0.5,0.1-0.8,0c-1.2-0.6-2.2-0.7-3-0.4
				c-0.5,0.2-1.1-0.1-1.3-0.6c-0.2-0.5,0-1.1,0.6-1.3l0,0c1.4-0.5,2.9-0.4,4.6,0.4c0.5,0.2,0.7,0.8,0.5,1.3
				C397.4,98.6,397.2,98.7,396.9,98.8z"/>
		</g>
		<g>
			<g>
				<g>
					<path class="st46" d="M192.3,169.8c-0.7,0-1.3-0.2-1.8-0.5c-2.1-1.2-2.8-4.4-2.1-9.1c0.8-4.6,2.8-10,5.8-15.4s6.5-10,10-13
						c3.6-3.2,6.7-4.3,8.9-3.1c4.2,2.4,2.6,13.1-3.7,24.5l0,0c-3,5.4-6.5,10-10,13C196.6,168.6,194.2,169.8,192.3,169.8z
						 M211.2,129.2c-1.7,0-3.9,1.1-6.3,3.3c-3.4,3-6.9,7.5-9.8,12.8c-2.9,5.3-4.9,10.6-5.7,15.1c-0.7,4.2-0.1,7.2,1.6,8.1
						c1.7,0.9,4.5-0.1,7.7-3c3.4-3,6.9-7.5,9.8-12.8c5.9-10.5,7.7-21.2,4.1-23.2C212.1,129.3,211.7,129.2,211.2,129.2z"/>
					<path class="st46" d="M211.5,169.6c-4.5,0-11.6-6.5-17.2-16.3c-3.1-5.3-5.2-10.7-6-15.3c-0.9-4.7-0.2-8,1.9-9.2
						c2.1-1.2,5.2-0.2,8.9,2.9c3.5,3,7.2,7.6,10.2,12.9c6.5,11.3,8.3,22,4.1,24.5C212.8,169.5,212.2,169.6,211.5,169.6z M192,129.4
						c-0.5,0-1,0.1-1.4,0.4c-1.7,1-2.2,3.9-1.4,8.1c0.8,4.4,2.9,9.8,5.9,15c6,10.4,14.2,17.5,17.8,15.4s1.5-12.7-4.5-23.1
						c-3-5.2-6.6-9.7-10-12.6C195.9,130.5,193.7,129.4,192,129.4z"/>
					<path class="st46" d="M199.9,157.7c-5.3,0-10.3-0.7-14.2-1.9c-4.6-1.5-7.1-3.6-7.2-6c-0.2-4.9,9.9-9,23-9.4
						c6.1-0.2,11.9,0.5,16.3,1.9c4.6,1.5,7.1,3.6,7.2,6c0.2,4.9-9.9,9-23,9.4C201.3,157.7,200.6,157.7,199.9,157.7z M203.6,141.3
						c-0.7,0-1.4,0-2.1,0c-12.1,0.4-22.1,4.2-22,8.4c0.1,1.9,2.4,3.8,6.5,5.1c4.3,1.4,10,2,16,1.8c12.1-0.4,22.1-4.2,22-8.4
						c-0.1-1.9-2.4-3.8-6.5-5.1C213.7,142,208.8,141.3,203.6,141.3z"/>
				</g>
				<g>
					<path class="st33" d="M198.4,131.5c-0.5,0.8-1.5,1.1-2.3,0.7c-0.8-0.5-1.1-1.5-0.7-2.3c0.5-0.8,1.5-1.1,2.3-0.7
						S198.8,130.7,198.4,131.5z"/>
					<path class="st46" d="M196.9,132.9c-0.4,0-0.7-0.1-1.1-0.3c-0.5-0.3-0.9-0.8-1.1-1.3c-0.2-0.6-0.1-1.2,0.2-1.7
						c0.6-1.1,1.9-1.4,3-0.9c0.5,0.3,0.9,0.8,1.1,1.3c0.2,0.6,0.1,1.2-0.2,1.7l0,0C198.4,132.5,197.6,132.9,196.9,132.9z
						 M196.9,129.5c-0.4,0-0.8,0.2-1.1,0.6c-0.2,0.3-0.2,0.6-0.1,0.9c0.1,0.3,0.3,0.6,0.6,0.7c0.6,0.3,1.3,0.1,1.6-0.5
						c0.2-0.3,0.2-0.6,0.1-0.9c-0.1-0.3-0.3-0.6-0.6-0.7C197.3,129.5,197.1,129.5,196.9,129.5z"/>
				</g>
				<g>
					<path class="st33" d="M200.3,167.6c-0.5,0.8-1.5,1.1-2.3,0.7c-0.8-0.5-1.1-1.5-0.7-2.3c0.5-0.8,1.5-1.1,2.3-0.7
						C200.4,165.8,200.7,166.8,200.3,167.6z"/>
					<path class="st46" d="M198.8,169c-0.4,0-0.7-0.1-1.1-0.3c-1.1-0.6-1.4-1.9-0.9-3c0.6-1.1,1.9-1.4,3-0.9c1.1,0.6,1.4,1.9,0.9,3
						c-0.3,0.5-0.8,0.9-1.3,1.1C199.2,169,199,169,198.8,169z M198.8,165.6c-0.4,0-0.8,0.2-1.1,0.6c-0.3,0.6-0.1,1.3,0.5,1.6
						s1.3,0.1,1.6-0.5l0,0c0.3-0.6,0.1-1.3-0.5-1.6C199.2,165.6,199,165.6,198.8,165.6z"/>
				</g>
				<g>
					<path class="st33" d="M221.2,154.6c-0.5,0.8-1.5,1.1-2.3,0.7c-0.8-0.5-1.1-1.5-0.7-2.3c0.5-0.8,1.5-1.1,2.3-0.7
						C221.4,152.8,221.7,153.8,221.2,154.6z"/>
					<path class="st46" d="M219.7,156c-0.4,0-0.7-0.1-1.1-0.3c-1.1-0.6-1.4-1.9-0.9-3c0.3-0.5,0.8-0.9,1.3-1.1
						c0.6-0.2,1.2-0.1,1.7,0.2c1.1,0.6,1.4,1.9,0.9,3C221.2,155.6,220.5,156,219.7,156z M219.7,152.6c-0.4,0-0.8,0.2-1.1,0.6
						c-0.3,0.6-0.1,1.3,0.5,1.6s1.3,0.1,1.6-0.5s0.1-1.3-0.5-1.6C220.1,152.7,219.9,152.6,219.7,152.6z"/>
				</g>
			</g>
			<g>
				<path class="st47" d="M205,150.8c-1,1.8-3.3,2.5-5.1,1.5s-2.5-3.3-1.5-5.1s3.3-2.5,5.1-1.5C205.4,146.7,206,149,205,150.8z"/>
				<path class="st46" d="M201.7,153.3c-0.7,0-1.4-0.2-2.1-0.5c-2.1-1.1-2.8-3.7-1.7-5.8s3.7-2.8,5.8-1.7c1,0.6,1.7,1.5,2,2.6
					s0.2,2.2-0.4,3.2l0,0c-0.6,1-1.5,1.7-2.6,2C202.5,153.2,202.1,153.3,201.7,153.3z M201.7,145.7c-1.1,0-2.3,0.6-2.9,1.7
					c-0.9,1.6-0.3,3.6,1.3,4.4c0.8,0.4,1.6,0.5,2.5,0.3c0.8-0.2,1.5-0.8,2-1.6l0,0c0.4-0.8,0.5-1.6,0.3-2.5c-0.2-0.8-0.8-1.5-1.6-2
					C202.8,145.9,202.3,145.7,201.7,145.7z"/>
			</g>
			<path class="st33" d="M202.8,148.1c-0.4,0.6-1.1,0.9-1.8,0.5c-0.6-0.4-0.9-1.1-0.5-1.8c0.4-0.6,1.1-0.9,1.8-0.5
				C202.9,146.7,203.2,147.5,202.8,148.1z"/>
		</g>
		<path class="st46" d="M291.5,192.9c-4.3,0-8.2-3.4-13.8-12.4c-4.6-7.5-4.6-15-0.2-20.3c3.1-3.7,8-5.1,11.7-3.6
			c5.4,2.2,7.3,6.6,7.4,6.8l0.3,0.8l-6.1,3.9l-0.6-0.6c0,0-3.6-3.4-6.6-1.6c-2.8,1.7-3.3,4.4,1.8,13.5c2.1,3.6,4.3,5.6,6.3,5.5
			c1.7-0.1,3-1.6,3.6-2.9c1.4-3.1-0.1-5.4-0.1-5.4l-0.6-0.9l6.5-3.7l0.5,0.9c2.1,4.1,4.3,13-2.3,17
			C296.5,191.8,294,192.9,291.5,192.9z M286.1,158c-2.4,0-5.1,1.3-7,3.5c-3.9,4.5-3.8,11.2,0.3,17.9c8.3,13.5,12,13.1,19,8.8
			c5.5-3.4,3.1-10.8,2-13.5l-2.9,1.7c0.5,1.3,1.1,3.6-0.2,6.4c-0.9,1.9-2.7,4-5.3,4.1c-2,0.1-4.9-1-8.1-6.5
			c-4.5-7.9-6.1-13.1-1.1-16.2c3.4-2.1,7,0.3,8.4,1.4l3.3-2.1c-0.8-1.2-2.6-3.6-5.9-5C287.8,158.2,287,158,286.1,158z"/>
		<path class="st46" d="M309.1,98.7l-9.3-35.2l0.9-0.3c0.4-0.1,9.2-3.3,14.5,0.6c4.3,3.2,2.9,9.2,2,11.9c2.4,0.3,7.2,1.6,9.7,7.1
			l0,0c1,2.2,1,4.3-0.1,6.3c-3.3,6.4-16.2,9.2-16.7,9.3L309.1,98.7z M302.2,64.7l8.4,31.6c2.9-0.7,12-3.4,14.4-8.1
			c0.7-1.4,0.7-2.9,0-4.6c-2.8-6.3-9.2-6-9.2-6l-1.6,0.1l0.7-1.5c0-0.1,3.4-7.7-0.8-10.8C310.4,62.7,304.5,64.1,302.2,64.7z
			 M312.5,94.1l-3-11.5l0.8-0.3c0.2-0.1,5.3-2.2,8.8-0.5c1.4,0.7,2.3,1.9,2.8,3.6c1,3.7-6.7,7.5-8.2,8.2L312.5,94.1z M311.9,83.8
			l2,7.4c3-1.6,6.4-4.1,6.1-5.4c-0.3-1.1-0.8-1.8-1.7-2.3C316.4,82.7,313.5,83.3,311.9,83.8z M308.8,79.8l-3.3-12.6l0.8-0.3
			c0.3-0.1,3.2-1.2,5.3-0.1c0.9,0.5,1.6,1.3,1.8,2.4c1,4-3.2,8.9-3.4,9.1L308.8,79.8z M307.8,68.4l1.8,7c1.1-1.6,2.2-4,1.8-5.7
			c-0.1-0.6-0.4-0.9-0.8-1.1C309.9,68.1,308.7,68.2,307.8,68.4z"/>
		<path class="st46" d="M86.7,253.6l-8.2-1.9l0.9-11.5l-4.8-1.1l-5.9,10.3l-7.8-1.9l19.8-33.2l6.9,1.6L86.7,253.6z M80.6,250.1
			l4.1,1l0.8-33.6l-3.9-0.9L64,246.1l3.7,0.9l5.9-10.3l7.9,1.9L80.6,250.1z M81.7,236.5l-7-1.7l8.3-14.4L81.7,236.5z M77.8,233.5
			l2.1,0.5l0.4-4.8L77.8,233.5z"/>
		<path class="st46" d="M430.9,215.4c-0.4,0-0.8-0.3-1-0.7l-2.1-7.6c-0.7-2.3-2.5-4.2-4.8-4.8l-7.6-2.1c-0.4-0.1-0.7-0.5-0.7-1
			c0-0.4,0.3-0.8,0.7-1l7.6-2.1c2.3-0.7,4.2-2.5,4.8-4.8l2.1-7.6c0.1-0.4,0.5-0.7,1-0.7c0.4,0,0.8,0.3,1,0.7l2.1,7.6
			c0.7,2.3,2.5,4.2,4.8,4.8l7.6,2.1c0.4,0.1,0.7,0.5,0.7,1c0,0.4-0.3,0.8-0.7,1l-7.6,2.1l0,0c-2.3,0.7-4.2,2.5-4.8,4.8l-2.1,7.6
			C431.7,215.1,431.3,215.4,430.9,215.4z M419.4,199.3l4.1,1.2c3,0.8,5.4,3.2,6.2,6.2l1.2,4.1l1.2-4.1c0.8-3,3.2-5.4,6.2-6.2
			l4.1-1.2l-4.1-1.2c-3-0.8-5.4-3.2-6.2-6.2l-1.2-4.1l-1.2,4.1c-0.8,3-3.2,5.4-6.2,6.2L419.4,199.3z M438.5,201.4L438.5,201.4
			L438.5,201.4z"/>
		<path class="st46" d="M124.8,105.3c-0.4,0-0.8-0.3-1-0.7l-2.1-7.6c-0.7-2.3-2.5-4.2-4.8-4.8l-7.6-2.1c-0.4-0.1-0.7-0.5-0.7-1
			c0-0.4,0.3-0.8,0.7-1l7.6-2.1c2.3-0.7,4.2-2.5,4.8-4.8l2.1-7.6c0.1-0.4,0.5-0.7,1-0.7c0.4,0,0.8,0.3,1,0.7l2.1,7.6
			c0.7,2.3,2.5,4.2,4.8,4.8l7.6,2.1c0.4,0.1,0.7,0.5,0.7,1c0,0.4-0.3,0.8-0.7,1l-7.6,2.1l0,0c-2.3,0.7-4.2,2.5-4.8,4.8l-2.1,7.6
			C125.6,105,125.2,105.3,124.8,105.3z M113.2,89.1l4.1,1.2c3,0.8,5.4,3.2,6.2,6.2l1.2,4.1l1.2-4.1c0.8-3,3.2-5.4,6.2-6.2l4.1-1.2
			l-4.1-1.2c-3-0.8-5.4-3.2-6.2-6.2l-1.2-4.1l-1.2,4.1c-0.8,3-3.2,5.4-6.2,6.2L113.2,89.1z M132.4,91.2L132.4,91.2L132.4,91.2z"/>
		<path class="st46" d="M442.4,245.3c-0.4,0-0.8-0.3-1-0.7l-1-3.7c-0.3-1-1-1.7-2-2l-3.7-1c-0.4-0.1-0.7-0.5-0.7-1
			c0-0.4,0.3-0.8,0.7-1l3.7-1c1-0.3,1.7-1,2-2l1-3.7c0.1-0.4,0.5-0.7,1-0.7l0,0c0.4,0,0.8,0.3,1,0.7l1,3.7c0.3,1,1,1.7,2,2l3.7,1
			c0.4,0.1,0.7,0.5,0.7,1c0,0.4-0.3,0.8-0.7,1l-3.7,1c-1,0.3-1.7,1-2,2l-1,3.7C443.3,245,442.9,245.3,442.4,245.3z M438.8,236.9
			l0.2,0.1c1.6,0.5,2.9,1.7,3.4,3.4l0.1,0.2l0.1-0.2c0.5-1.6,1.7-2.9,3.4-3.4l0,0l0.2-0.1l-0.2-0.1c-1.6-0.5-2.9-1.7-3.4-3.4
			l-0.1-0.2l-0.1,0.2c-0.5,1.6-1.7,2.9-3.4,3.4L438.8,236.9z"/>
		<path class="st46" d="M98.8,120.1c-0.4,0-0.8-0.3-1-0.7l-1-3.7c-0.3-1-1-1.7-2-2l-3.7-1c-0.4-0.1-0.7-0.5-0.7-1s0.3-0.8,0.7-1
			l3.7-1c1-0.3,1.7-1,2-2l1-3.7c0.1-0.4,0.5-0.7,1-0.7l0,0c0.4,0,0.8,0.3,1,0.7l1,3.7c0.3,1,1,1.7,2,2l3.7,1c0.4,0.1,0.7,0.5,0.7,1
			s-0.3,0.8-0.7,1l-3.7,1c-1,0.3-1.7,1-2,2l-1,3.7C99.6,119.8,99.3,120.1,98.8,120.1z M95.1,111.8l0.2,0.1c1.6,0.5,2.9,1.7,3.4,3.4
			l0.1,0.2l0.1-0.2c0.5-1.6,1.7-2.9,3.4-3.4l0,0l0.2-0.1l-0.2-0.1c-1.6-0.5-2.9-1.7-3.4-3.4l-0.1-0.2l-0.1,0.2
			c-0.5,1.6-1.7,2.9-3.4,3.4L95.1,111.8z"/>
		<path class="st46" d="M242.9,100.2c-3.1,0-5.6-2.5-5.6-5.6s2.5-5.6,5.6-5.6s5.6,2.5,5.6,5.6S246,100.2,242.9,100.2z M242.9,91.1
			c-2,0-3.6,1.6-3.6,3.6s1.6,3.6,3.6,3.6s3.6-1.6,3.6-3.6S244.9,91.1,242.9,91.1z"/>
		<path class="st46" d="M60.9,299.3c-3.1,0-5.6-2.5-5.6-5.6s2.5-5.6,5.6-5.6s5.6,2.5,5.6,5.6S64,299.3,60.9,299.3z M60.9,290.2
			c-2,0-3.6,1.6-3.6,3.6s1.6,3.6,3.6,3.6s3.6-1.6,3.6-3.6C64.5,291.8,62.9,290.2,60.9,290.2z"/>
		<path class="st46" d="M450.8,327c-3.1,0-5.6-2.5-5.6-5.6s2.5-5.6,5.6-5.6s5.6,2.5,5.6,5.6S453.9,327,450.8,327z M450.8,317.9
			c-2,0-3.6,1.6-3.6,3.6s1.6,3.6,3.6,3.6s3.6-1.6,3.6-3.6S452.8,317.9,450.8,317.9z"/>
		<path class="st46" d="M118.6,226.6c-3.1,0-5.6-2.5-5.6-5.6s2.5-5.6,5.6-5.6s5.6,2.5,5.6,5.6C124.1,224.1,121.6,226.6,118.6,226.6z
			 M118.6,217.5c-2,0-3.6,1.6-3.6,3.6s1.6,3.6,3.6,3.6s3.6-1.6,3.6-3.6C122.1,219.1,120.5,217.5,118.6,217.5z"/>
	</g>
	<g>
		<g>
			<path class="st5" d="M250,416v-44.7L90.5,417.4l143.5-7.8c0,0,8.2,7.8,11.3,7.8C248.4,417.4,250,416,250,416z"/>
			<path class="st48" d="M101,390.7l30.7-32.7c0,0,7.6,2.2,21.4-7.4c15.4-10.8,42.8-19.2,60.4-15.6c17.7,3.6,36.6,24.9,36.6,24.9
				v31.7l-142,10L101,390.7z"/>
			<path class="st29" d="M250,389.4l-8.2-18.1l-37.8-37l0,0l-36.4,8.4c-4.4,1.9-8.4,4-12,6.3l-21.8,40.5c0,0,94.6-6.8,102.8-1.3
				c2.6,1.7,5,3,7.3,3.9l6.2-0.4v-2.3H250z"/>
			<path class="st49" d="M232.8,406.7c0,0-17.9-2.3-38.8-1.5s-80.8,12.2-103.5,12.2l10.4-26.7c0,0,26.5-2.1,37.9-9
				s40.5-24.8,67.3-15.3c28.6,10.1,43.8,25.2,43.8,25.2S240.4,393.7,232.8,406.7z"/>
			<path class="st50" d="M241.8,389.8c-4.9-3-10-5.7-15.2-8.1c-5.2-2.5-10.4-4.7-15.8-6.4c-5.4-1.7-10.9-3.1-16.4-3.2
				c-0.7,0-1.4,0-2.1,0c-0.7,0-1.4,0-2.1,0.1c-1.4,0.1-2.8,0.2-4.2,0.3c-2.8,0.3-5.5,0.8-8.3,1.4c-5.5,1.2-10.8,3.2-16,5.5
				s-10.2,5.1-15.3,7.7s-10.3,5.1-15.7,6.9c-5.4,1.8-11,2.7-16.6,2.6c2.8-0.1,5.6-0.3,8.4-0.8s5.5-1.2,8.2-2.2
				c5.3-1.8,10.5-4.4,15.5-7.1c5.1-2.7,10.1-5.5,15.3-7.8c5.2-2.4,10.6-4.3,16.1-5.6c2.8-0.6,5.5-1.1,8.3-1.4
				c1.4-0.2,2.8-0.2,4.2-0.3c0.7,0,1.4,0,2.1-0.1c0.7,0,1.4-0.1,2.1,0c2.8,0.1,5.6,0.5,8.4,1.1c2.8,0.6,5.5,1.4,8.2,2.3
				c5.4,1.8,10.6,4.1,15.7,6.7c2.6,1.3,5.1,2.6,7.6,4C236.9,386.7,239.4,388.2,241.8,389.8z"/>
			<path class="st51" d="M236.6,391.6c-4.8-1.9-9.7-3.5-14.6-5c-4.9-1.5-9.8-2.9-14.8-3.9s-10-1.8-15.1-1.8
				c-5.1,0.1-10.1,0.9-15,2.3c-9.9,2.6-19.3,7-28.9,11c-2.4,1-4.8,1.9-7.2,2.8s-4.9,1.7-7.3,2.4c-2.5,0.7-5,1.3-7.5,1.6
				c-2.5,0.4-5.1,0.5-7.6,0.3c5.1,0.2,10.1-0.9,15-2.4c4.9-1.5,9.7-3.5,14.4-5.5s9.5-4.1,14.3-6.1c4.8-1.9,9.6-3.7,14.6-5.1
				c5-1.3,10.1-2.2,15.2-2.2c1.3,0,2.6,0.1,3.8,0.1c1.3,0.1,2.5,0.2,3.8,0.4c1.3,0.2,2.5,0.4,3.8,0.6c1.3,0.3,2.5,0.5,3.8,0.8
				C217.3,384.3,227,387.6,236.6,391.6z"/>
			<path class="st51" d="M234,394.6c-4.8-1.8-9.7-3.3-14.6-4.5c-4.9-1.3-9.9-2.3-14.9-3c-5-0.6-10.1-1-15.1-0.6
				c-2.5,0.2-5,0.6-7.5,1.2s-4.9,1.3-7.3,2.1c-9.7,3.1-19.2,7-29,10.2c-4.9,1.6-9.8,3-14.8,3.9c-2.5,0.5-5,0.8-7.6,0.9
				c-2.5,0.2-5.1,0.1-7.6-0.2c5.1,0.4,10.1-0.2,15.1-1.2c5-1,9.9-2.5,14.7-4.1c4.8-1.7,9.6-3.4,14.4-5.3c4.8-1.8,9.6-3.6,14.5-5.1
				c2.4-0.8,4.9-1.5,7.4-2c2.5-0.6,5-1,7.6-1.2c5.1-0.3,10.2,0,15.2,0.7s10,1.8,14.9,3.2c2.5,0.7,4.9,1.4,7.3,2.2
				C229.2,392.7,231.6,393.6,234,394.6z"/>
			<path class="st51" d="M227.7,400.6c-4.2-0.7-8.5-1.4-12.7-1.9s-8.5-1-12.8-1.3s-8.5-0.5-12.8-0.5c-4.3,0.1-8.5,0.3-12.7,1.1
				c-4.2,0.8-8.4,1.8-12.6,2.9c-4.2,1.1-8.3,2.3-12.5,3.4c-4.2,1-8.4,1.9-12.6,2.6c-4.2,0.7-8.5,1.2-12.8,1.6
				c8.5-1.1,17-2.6,25.3-4.8c8.3-2.2,16.6-4.9,25.1-6.4c4.3-0.7,8.6-1,12.8-1h3.2c1.1,0,2.1,0.1,3.2,0.1c1.1,0,2.1,0.1,3.2,0.2
				c1.1,0.1,2.1,0.1,3.2,0.3C210.8,397.5,219.3,398.8,227.7,400.6z"/>
			<path class="st10" d="M250,391.6c0,0-7.5-1.3-17.2,15.1c0,0,0.4,1.2,1.1,0.9c0.7-0.2,7.5-13.9,16-14.3L250,391.6L250,391.6z"/>
			<path class="st52" d="M233.9,407.7l-143.4,9.7l0.1,4.2l143.4-9.7c6.2,7.9,16,8.3,16,8.3V416C242.4,415.5,233.9,407.7,233.9,407.7
				z"/>
			<path class="st5" d="M250,416v-44.7l159.5,46.2L266,409.6c0,0-8.2,7.8-11.3,7.8S250,416,250,416z"/>
			<path class="st29" d="M399,390.7L368.4,358c0,0-7.6,2.2-21.4-7.4c-15.4-10.8-42.8-19.2-60.4-15.6c-17.7,3.6-36.6,24.9-36.6,24.9
				v31.7l142,10L399,390.7z"/>
			<path class="st49" d="M267.2,406.7c0,0,17.9-2.3,38.8-1.5s80.8,12.2,103.5,12.2L399,390.7c0,0-26.5-2.1-37.9-9
				s-40.5-24.8-67.3-15.3c-28.6,10.1-43.8,25.2-43.8,25.2S259.6,393.7,267.2,406.7z"/>
			<path class="st50" d="M258.2,389.8c4.9-3,10-5.7,15.2-8.1c5.2-2.5,10.4-4.7,15.8-6.4c5.4-1.7,10.9-3.1,16.4-3.2
				c0.7,0,1.4,0,2.1,0s1.4,0,2.1,0.1c1.4,0.1,2.8,0.2,4.2,0.3c2.8,0.3,5.5,0.8,8.3,1.4c5.5,1.2,10.8,3.2,16,5.5s10.2,5.1,15.3,7.7
				c5.1,2.6,10.3,5.1,15.7,6.9c5.4,1.8,11,2.7,16.6,2.6c-2.8-0.1-5.6-0.3-8.4-0.8s-5.5-1.2-8.2-2.2c-5.3-1.8-10.5-4.4-15.5-7.1
				c-5.1-2.7-10.1-5.5-15.3-7.8c-5.2-2.4-10.6-4.3-16.1-5.6c-2.8-0.6-5.5-1.1-8.3-1.4c-1.4-0.2-2.8-0.2-4.2-0.3
				c-0.7,0-1.4,0-2.1-0.1c-0.7,0-1.4-0.1-2.1,0c-2.8,0.1-5.6,0.5-8.4,1.1s-5.5,1.4-8.2,2.3c-5.4,1.8-10.6,4.1-15.7,6.7
				c-2.6,1.3-5.1,2.6-7.6,4C263.1,386.7,260.6,388.2,258.2,389.8z"/>
			<path class="st51" d="M263.4,391.6c4.8-1.9,9.7-3.5,14.6-5s9.8-2.9,14.8-3.9s10-1.8,15.1-1.8c5.1,0.1,10.1,0.9,15,2.3
				c9.9,2.6,19.3,7,28.9,11c2.4,1,4.8,1.9,7.2,2.8c2.4,0.9,4.9,1.7,7.3,2.4c2.5,0.7,5,1.3,7.5,1.6c2.5,0.4,5.1,0.5,7.6,0.3
				c-5.1,0.2-10.1-0.9-15-2.4s-9.7-3.5-14.4-5.5c-4.7-2-9.5-4.1-14.3-6.1c-4.8-1.9-9.6-3.7-14.6-5.1c-5-1.3-10.1-2.2-15.2-2.2
				c-1.3,0-2.6,0.1-3.8,0.1c-1.3,0.1-2.5,0.2-3.8,0.4c-1.3,0.2-2.5,0.4-3.8,0.6c-1.3,0.3-2.5,0.5-3.8,0.8
				C282.7,384.3,273,387.6,263.4,391.6z"/>
			<path class="st51" d="M266,394.6c4.8-1.8,9.7-3.3,14.6-4.5c4.9-1.3,9.9-2.3,14.9-3c5-0.6,10.1-1,15.1-0.6c2.5,0.2,5,0.6,7.5,1.2
				s4.9,1.3,7.3,2.1c9.7,3.1,19.2,7,29,10.2c4.9,1.6,9.8,3,14.8,3.9c2.5,0.5,5,0.8,7.6,0.9c2.5,0.2,5.1,0.1,7.6-0.2
				c-5.1,0.4-10.1-0.2-15.1-1.2s-9.9-2.5-14.7-4.1c-4.8-1.7-9.6-3.4-14.4-5.3c-4.8-1.8-9.6-3.6-14.5-5.1c-2.4-0.8-4.9-1.5-7.4-2
				c-2.5-0.6-5-1-7.6-1.2c-5.1-0.3-10.2,0-15.2,0.7s-10,1.8-14.9,3.2c-2.5,0.7-4.9,1.4-7.3,2.2C270.8,392.7,268.4,393.6,266,394.6z"
				/>
			<path class="st51" d="M272.3,400.6c4.2-0.7,8.5-1.4,12.7-1.9s8.5-1,12.8-1.3s8.5-0.5,12.8-0.5c4.3,0.1,8.5,0.3,12.7,1.1
				c4.2,0.8,8.4,1.8,12.6,2.9s8.3,2.3,12.5,3.4c4.2,1,8.4,1.9,12.6,2.6s8.5,1.2,12.8,1.6c-8.5-1.1-17-2.6-25.3-4.8
				c-8.3-2.2-16.6-4.9-25.1-6.4c-4.3-0.7-8.6-1-12.8-1h-3.2c-1.1,0-2.1,0.1-3.2,0.1s-2.1,0.1-3.2,0.2s-2.1,0.1-3.2,0.3
				C289.2,397.5,280.7,398.8,272.3,400.6z"/>
			<path class="st10" d="M250,391.6c0,0,7.5-1.3,17.2,15.1c0,0-0.4,1.2-1.1,0.9c-0.7-0.2-7.5-13.9-16-14.3v-1.7H250z"/>
			<path class="st52" d="M266.1,407.7l143.4,9.7l-0.1,4.2L266,411.9c-6.2,7.9-16,8.3-16,8.3V416
				C257.6,415.5,266.1,407.7,266.1,407.7z"/>
		</g>
		<path class="st53" d="M250,391.6v-31.7c0,0,18.3-32.9,41.3-33.9s46.1,20.7,57.9,26.1L358,379c-25.2-6.2-44.6-36.8-69-29.3
			C267.2,356.3,250,391.6,250,391.6z"/>
		<path class="st48" d="M250,391.6c0,0-29.3-38.3-51-41.6c-21.7-3.3-50,0.3-68.3-10.3l33.3-19.3c0,0,9,4,37.7,1.7
			C230.2,319.8,250,360,250,360V391.6z"/>
	</g>
</g>
</svg>
