<?xml version="1.0" encoding="utf-8"?>
<svg version="1.1" id="Layer_1" xmlns="http://www.w3.org/2000/svg" xmlns:xlink="http://www.w3.org/1999/xlink" x="0px" y="0px"
	 viewBox="0 0 200 100" style="enable-background:new 0 0 200 100;" xml:space="preserve">
<style type="text/css">
	.st0{display:none;fill:#171796;}
	.st1{fill-rule:evenodd;clip-rule:evenodd;fill:#171796;}
	.st2{display:none;fill-rule:evenodd;clip-rule:evenodd;fill:#171796;}
	.st3{enable-background:new    ;}
	.st4{fill:#171796;}
</style>
<g id="Слой_x0020_1">
	<path class="st0" d="M10.9,3.5l27.9,0.3c0,0,26.1,0,27.4,22.3c1.4,22.3-33.2,30.8-38.1,30.3 M36.2,18c0,0,15.6,1.4,14,16.8
		c-1.6,15.4-10.5,18.5-22,21.5 M36.2,18l-12.8,0.2l-6.1,43.3c58.7,2.6,59-57.4,59-57.4 M89.3,18.9L80,71.2l16.8,0.5l9.5-52.3
		l13.7,0.2l2.2-15.4h-46 M77.7,18.9h11.6 M10.9,3.5L0.3,71.2c0,0,70.9,12.3,77.5-52.3 M114,71.7h17.3 M131.3,71.7l12-39.6l9,38.6
		h6.6l22.5-37.9l-1.2,38.6h17.3l1.7-67l-17.6-0.2L161,39.9l-7.1-35.7h-17.2L114,71.7"/>
	<path class="st1" d="M76.3,4.2c0,0-0.2,59.9-59,57.4l6.1-43.3L36.2,18c0,0,15.6,1.4,14,16.8c-1.7,15.4-10.5,18.5-22,21.5
		c4.9,0.5,39.6-8.1,38.1-30.3C64.8,3.8,38.9,3.8,38.9,3.8L10.9,3.6L0.3,71.3c0,0,70.9,12.3,77.5-52.3h11.5L80,71.3l16.8,0.5
		l9.5-52.3l13.7,0.2l2.2-15.4L76.3,4.2L76.3,4.2z"/>
	<polygon class="st2" points="136.7,3.5 114,71 131.3,71 143.3,31.4 152.3,70.1 159,70.1 181.5,32.2 180.3,70.8 197.6,70.8 
		199.3,3.8 181.7,3.5 161.1,39.3 154,3.5 	"/>
	<path class="st2" d="M96.9,71.7l9.5-52.3l13.7,0.2l2.2-15.4h-46c0,0-0.2,59.9-59,57.4l6.1-43.3L36.2,18c0,0,15.6,1.4,14,16.8
		c-1.6,15.4-10.5,18.5-22,21.5c4.9,0.5,39.6-8.1,38.1-30.3C64.9,3.8,38.9,3.8,38.9,3.8L10.9,3.6L0.3,71.3c0,0,70.9,12.3,77.5-52.3
		h11.5L80,71.3L96.9,71.7z"/>
	<path class="st2" d="M143.3,32.2l-12,39.6H114l22.7-67.5H154l7.1,35.7l20.6-35.7l17.6,0.2l-1.7,67h-17.3l1.2-38.6L159,70.8h-6.6
		L143.3,32.2L143.3,32.2z M106.4,19.4l-9.5,52.3l-16.8-0.5l9.3-52.3H77.8C71.2,83.5,0.3,71.2,0.3,71.2L10.9,3.5l27.9,0.3
		c0,0,26.1,0,27.4,22.3c1.4,22.3-33.2,30.8-38.1,30.3c11.6-3.1,20.3-6.1,22-21.5c1.7-15.4-14-16.8-14-16.8l-12.8,0.2l-6.1,43.2
		c58.7,2.6,59-57.4,59-57.4h46l-2.2,15.4L106.4,19.4z"/>
	<path class="st2" d="M96.9,71.7l9.5-52.3l13.7,0.2l2.2-15.4h-46c0,0-0.2,59.9-59,57.4l6.1-43.3L36.2,18c0,0,15.6,1.4,14,16.8
		c-1.6,15.4-10.5,18.5-22,21.5c4.9,0.5,39.6-8.1,38.1-30.3C64.9,3.8,38.9,3.8,38.9,3.8L10.9,3.6L0.3,71.3c0,0,70.9,12.3,77.5-52.3
		h11.5L80,71.3L96.9,71.7z"/>
	<polygon class="st1" points="136.7,3.5 114,71 131.3,71 143.3,31.4 152.3,70.1 159,70.1 181.5,32.2 180.3,70.8 197.6,70.8 
		199.3,3.8 181.7,3.5 161.1,39.3 154,3.5 	"/>
</g>
<g class="st3">
	<path class="st4" d="M1.1,85.5h4.5c1,0,1.8,0.1,2.4,0.2c0.7,0.2,1.4,0.6,1.9,1.2c0.5,0.6,0.9,1.2,1.2,2c0.3,0.8,0.4,1.8,0.4,3
		c0,1-0.1,1.9-0.4,2.7c-0.3,0.9-0.8,1.6-1.3,2.2c-0.4,0.4-1,0.8-1.8,1C7.4,97.9,6.7,98,5.9,98H1.2L1.1,85.5L1.1,85.5z M3.6,87.6v8.2
		h1.9c0.7,0,1.2,0,1.5-0.1c0.4-0.1,0.7-0.3,1-0.5s0.5-0.6,0.7-1.2c0.2-0.6,0.3-1.3,0.3-2.3c0-1-0.1-1.7-0.3-2.2s-0.4-0.9-0.7-1.2
		s-0.7-0.5-1.2-0.6c-0.4-0.1-1-0.1-2.1-0.1L3.6,87.6L3.6,87.6z"/>
	<path class="st4" d="M24.6,97.9h-2.7l-1.1-2.8h-4.9l-1,2.8h-2.7l4.8-12.3h2.6L24.6,97.9z M20,92.9l-1.7-4.5l-1.7,4.5H20z"/>
	<path class="st4" d="M27.8,97.9l-4.4-12.3H26l3.2,9.2l3.1-9.2h2.7l-4.4,12.3H27.8z"/>
	<path class="st4" d="M36.2,97.9V85.6h2.5v10.2h6.2v2.1L36.2,97.9L36.2,97.9z"/>
	<path class="st4" d="M57.7,97.9H55l-1.1-2.8H49l-1,2.8h-2.7l4.8-12.3h2.7L57.7,97.9z M53.1,92.9l-1.7-4.5l-1.7,4.5H53.1z"/>
	<path class="st4" d="M60.4,97.9V87.6h-3.7v-2.1h9.8v2.1h-3.7v10.3H60.4z"/>
	<path class="st4" d="M75.7,97.9V87.6h-3.7v-2.1h9.8v2.1h-3.7v10.3H75.7z"/>
	<path class="st4" d="M83.4,97.9V85.5h9.1v2.1h-6.6v2.8h6.2v2.1h-6.2v3.4h6.9v2.1L83.4,97.9L83.4,97.9z"/>
	<path class="st4" d="M94.3,93.8l2.4-0.2c0.1,0.8,0.4,1.4,0.9,1.8c0.5,0.4,1.1,0.6,1.8,0.6c0.8,0,1.4-0.2,1.8-0.5
		c0.4-0.3,0.6-0.7,0.6-1.2c0-0.3-0.1-0.5-0.3-0.8c-0.2-0.2-0.5-0.4-0.9-0.5c-0.3-0.1-1-0.3-2-0.5c-1.3-0.3-2.3-0.7-2.8-1.2
		c-0.8-0.7-1.1-1.5-1.1-2.5c0-0.6,0.2-1.2,0.5-1.8c0.4-0.6,0.9-1,1.6-1.3s1.5-0.4,2.5-0.4c1.6,0,2.7,0.3,3.5,1
		c0.8,0.7,1.2,1.6,1.2,2.8l-2.5,0.1c-0.1-0.6-0.3-1.1-0.7-1.4c-0.4-0.3-0.9-0.4-1.6-0.4c-0.7,0-1.3,0.2-1.7,0.5
		c-0.3,0.2-0.4,0.5-0.4,0.8c0,0.3,0.1,0.5,0.4,0.8s1.1,0.5,2.3,0.8c1.2,0.3,2.1,0.6,2.7,0.9c0.6,0.3,1,0.7,1.4,1.3
		c0.3,0.5,0.5,1.2,0.5,2c0,0.7-0.2,1.4-0.6,2c-0.4,0.6-1,1.1-1.7,1.4s-1.6,0.5-2.7,0.5c-1.6,0-2.8-0.4-3.6-1.1
		C95,96.3,94.5,95.2,94.3,93.8z"/>
	<path class="st4" d="M109.2,97.9V87.6h-3.7v-2.1h9.8v2.1h-3.7v10.3H109.2z"/>
	<path class="st4" d="M121.6,97.9V85.5h3.8l2.3,8.4l2.2-8.4h3.8v12.3h-2.4v-9.8l-2.5,9.8h-2.4l-2.5-9.8v9.8H121.6z"/>
	<path class="st4" d="M147,97.9h-2.7l-1.1-2.8h-4.9l-1,2.8h-2.7l4.8-12.3h2.7L147,97.9z M142.5,92.9l-1.7-4.5l-1.7,4.5H142.5z"/>
	<path class="st4" d="M148.4,97.9V85.5h5.2c1.3,0,2.3,0.1,2.9,0.3s1.1,0.6,1.4,1.2c0.4,0.6,0.5,1.2,0.5,2c0,0.9-0.3,1.7-0.8,2.3
		c-0.5,0.6-1.4,1-2.5,1.2c0.5,0.3,1,0.7,1.3,1.1c0.4,0.4,0.8,1.1,1.4,2l1.5,2.4h-3l-1.8-2.7c-0.6-1-1.1-1.6-1.3-1.8
		c-0.2-0.3-0.5-0.4-0.8-0.5c-0.3-0.1-0.7-0.1-1.3-0.1h-0.5V98L148.4,97.9L148.4,97.9z M150.9,90.7h1.9c1.2,0,2-0.1,2.3-0.2
		c0.3-0.1,0.5-0.3,0.7-0.5c0.2-0.3,0.3-0.6,0.3-0.9c0-0.4-0.1-0.8-0.3-1c-0.2-0.3-0.5-0.4-0.9-0.5c-0.2,0-0.8,0-1.8,0h-2v3.1H150.9z
		"/>
	<path class="st4" d="M160.8,97.9V85.5h2.5V91l5-5.5h3.4l-4.6,4.8l4.8,7.5h-3.2l-3.4-5.8l-2,2.1v3.8L160.8,97.9L160.8,97.9z"/>
	<path class="st4" d="M184.3,97.9h-2.8l-1.1-2.8h-4.9l-1,2.8h-2.7l4.8-12.3h2.7L184.3,97.9z M179.7,92.9l-1.7-4.5l-1.7,4.5H179.7z"
		/>
	<path class="st4" d="M184.5,97.9v-2.3l6.4-8h-5.7v-2.1h9v2l-6.7,8.4h7V98L184.5,97.9L184.5,97.9z"/>
	<path class="st4" d="M196,97.9V85.5h2.5v12.3H196z"/>
</g>
</svg>
